<?xml version="1.0" standalone="no"?>
<!DOCTYPE svg PUBLIC "-//W3C//DTD SVG 1.1//EN" "http://www.w3.org/Graphics/SVG/1.1/DTD/svg11.dtd" >
<svg xmlns="http://www.w3.org/2000/svg" xmlns:xlink="http://www.w3.org/1999/xlink" version="1.1">
<metadata>
Created by FontForge 20170910 at Tue Sep 20 19:14:12 2005
 By Jimmy Wärting
(c) Copyright 2005 by Tong Duc Thinh. All Rights Reserved
</metadata>
<defs>
<font id="SFUShannonExtraBold" horiz-adv-x="630" >
  <font-face 
    font-family="SFU Shannon"
    font-weight="800"
    font-stretch="normal"
    units-per-em="1000"
    panose-1="0 0 8 0 0 0 0 0 0 0"
    ascent="800"
    descent="-200"
    x-height="508"
    cap-height="712"
    bbox="-62 -270 1263 1158"
    underline-thickness="50"
    underline-position="-115"
    unicode-range="U+0020-F002"
  />
<missing-glyph horiz-adv-x="500" 
d="M63 0v770h375v-770h-375zM125 63h250v645h-250v-645z" />
    <glyph glyph-name=".notdef" horiz-adv-x="500" 
d="M63 0v770h375v-770h-375zM125 63h250v645h-250v-645z" />
    <glyph glyph-name=".null" horiz-adv-x="0" 
 />
    <glyph glyph-name="nonmarkingreturn" horiz-adv-x="352" 
 />
    <glyph glyph-name="space" unicode=" " horiz-adv-x="352" 
 />
    <glyph glyph-name="exclam" unicode="!" horiz-adv-x="370" 
d="M88 254v97q0 186 -22 348l233 13q-15 -204 -15 -361v-87zM297 0v0h-214q2 28 2 84q0 22 -7 104l224 12q-10 -65 -10 -116q0 -14 5 -84z" />
    <glyph glyph-name="quotedbl" unicode="&#x22;" horiz-adv-x="591" 
d="M112 391l-32 321h192l-34 -321h-126zM351 391l-32 321h192l-34 -321h-126z" />
    <glyph glyph-name="numbersign" unicode="#" 
d="M285 430l-37 -123h102l38 123h-103zM157 -17h-147q24 71 70 214q-29 -2 -85 -8l34 118h84l38 123q-29 -2 -85 -8l34 118h84q14 47 48 189h145q-10 -31 -58 -189h102q38 121 47 189h148q-31 -94 -60 -189q49 2 78 8l-35 -118h-77l-37 -123q49 2 78 8l-35 -118h-77
q-26 -85 -55 -214h-145q35 121 65 214h-101q-29 -98 -58 -214z" />
    <glyph glyph-name="dollar" unicode="$" 
d="M241 -118l7 118q-84 11 -174 37v161q128 -48 211 -48q99 0 99 61q0 31 -62 56l-117 47q-59 24 -96 69q-43 53 -43 123q0 89 68 147q53 46 127 59l-4 90h136l-7 -90q46 -3 116 -19v-143q-92 22 -152 22q-104 0 -104 -61q0 -33 54 -53l93 -34q171 -63 171 -207
q0 -94 -65 -155q-53 -48 -126 -62l4 -118h-136z" />
    <glyph glyph-name="percent" unicode="%" horiz-adv-x="1000" 
d="M231 291q-83 0 -136 58q-56 60 -56 161q0 98 45 155q50 64 147 64q103 0 152 -69q40 -56 40 -150q0 -91 -48 -151q-52 -68 -144 -68zM174 510q0 -109 57 -109t57 109t-57 109t-57 -109zM769 -17q-83 0 -136 58q-56 60 -56 161q0 98 45 155q50 64 147 64q103 0 152 -69
q40 -56 40 -150q0 -91 -48 -151q-52 -68 -144 -68zM712 202q0 -109 57 -109t57 109t-57 109t-57 -109zM393 -17l-130 -8q31 61 103 213l140 313q62 139 95 222l140 6q-39 -68 -120 -228l-140 -313q-48 -108 -88 -205z" />
    <glyph glyph-name="ampersand" unicode="&#x26;" horiz-adv-x="815" 
d="M790 512v-150q-73 -13 -167 -13q25 -36 33 -55q14 -32 14 -74q0 -110 -100 -177q-89 -60 -213 -60q-139 0 -233 74q-99 76 -99 196q0 80 49 130q23 24 76 52q-78 59 -78 126q0 84 86 130q73 38 179 38q33 0 145 -14v-140q-78 19 -114 19q-126 0 -126 -60q0 -58 102 -77
v-95q-45 0 -79 -18q-55 -28 -55 -94q0 -54 48 -89q45 -33 104 -33q57 0 95 28q43 32 43 88q0 58 -35 86q-16 13 -61 27v95q138 6 199 15q67 10 187 45z" />
    <glyph glyph-name="quotesingle" unicode="'" horiz-adv-x="352" 
d="M112 391l-32 321h192l-34 -321h-126z" />
    <glyph glyph-name="parenleft" unicode="(" horiz-adv-x="352" 
d="M370 -216l-195 -12q-66 110 -93 197q-36 115 -36 277q0 122 50 262q22 59 86 195l187 9q-76 -155 -97 -214q-46 -126 -46 -249q0 -160 38 -272q31 -91 106 -193z" />
    <glyph glyph-name="parenright" unicode=")" horiz-adv-x="352" 
d="M189 -219l-187 -9q76 155 97 214q46 126 46 249q0 160 -38 272q-31 91 -106 193l195 12q66 -110 93 -197q36 -115 36 -277q0 -122 -50 -262q-22 -59 -86 -195z" />
    <glyph glyph-name="asterisk" unicode="*" 
d="M268 306v0l-124 89q70 60 102 93q-48 7 -142 15l48 137q41 -22 124 -65q-11 57 -32 137h152q-22 -83 -31 -137q57 27 117 65l41 -137q-43 -3 -130 -15q46 -41 112 -93l-118 -89l-65 130q-20 -42 -54 -130z" />
    <glyph glyph-name="plus" unicode="+" horiz-adv-x="1000" 
d="M585 -17l-182 -13q6 77 6 175v59h-59q-17 0 -135 -10l7 180h187v59q0 21 -6 129l182 13q-6 -96 -6 -142v-59h59q44 0 146 10l-7 -180h-198v-59q0 -40 6 -162z" />
    <glyph glyph-name="comma" unicode="," horiz-adv-x="352" 
d="M212 -78l-175 -11q34 123 40 149q11 53 16 128l188 15q-31 -95 -41 -135q-15 -59 -28 -146z" />
    <glyph glyph-name="hyphen" unicode="-" horiz-adv-x="352" 
d="M22 183l13 190h137q87 0 157 10l-13 -190h-156q-48 0 -138 -10z" />
    <glyph glyph-name="hyphen" unicode="&#x2010;" horiz-adv-x="352" 
d="M22 183l13 190h137q87 0 157 10l-13 -190h-156q-48 0 -138 -10z" />
    <glyph glyph-name="period" unicode="." horiz-adv-x="352" 
d="M278 0v0h-200q3 90 3 83q0 24 -7 108l204 12q-5 -82 -5 -97q0 -46 5 -106z" />
    <glyph glyph-name="slash" unicode="/" 
d="M302 -13l-219 -4q33 87 98 276l79 252q39 124 66 249l225 13q-36 -88 -99 -262l-79 -252q-31 -99 -71 -272z" />
    <glyph glyph-name="zero" unicode="0" 
d="M318 -17q-135 0 -214 117q-73 106 -73 263q0 168 73 265q75 101 214 101q135 0 209 -102q71 -98 71 -264q0 -148 -65 -254q-77 -126 -215 -126zM211 363q0 -85 21 -147q28 -83 86 -83q54 0 80 81q20 60 20 149q0 86 -20 143q-25 73 -80 73q-57 0 -85 -69
q-22 -57 -22 -147z" />
    <glyph glyph-name="one" unicode="1" 
d="M444 0h-200q10 73 10 222v316q-37 -38 -107 -74l-78 121q104 50 111 54q75 40 137 90l117 -63v-444q0 -76 10 -222z" />
    <glyph glyph-name="two" unicode="2" 
d="M52 0l-11 113q36 60 186 221q120 129 120 179q0 27 -27 45q-30 21 -84 21q-50 0 -156 -25l5 152q132 23 195 23q104 0 175.5 -51.5t71.5 -132.5q0 -79 -52 -161q-35 -55 -111 -133q-87 -87 -105 -111h76q61 0 211 15l-5 -155h-489z" />
    <glyph glyph-name="three" unicode="3" 
d="M74 570v135q125 24 184 24q99 0 167 -36q83 -44 83 -128q0 -58 -35 -96q-18 -20 -67 -50q69 -28 96 -61q36 -43 36 -123q0 -113 -84 -182.5t-216 -69.5q-73 0 -164 21v147q80 -18 120 -18q73 0 113.5 26.5t40.5 70.5q0 50 -44 76q-37 22 -89 22h-46v120h21q52 0 89 15
q49 20 49 62q0 64 -115 64q-30 0 -139 -19z" />
    <glyph glyph-name="four" unicode="4" 
d="M533 0h-190q5 49 5 121v40h-150q-27 0 -73 -4q-54 -5 -74 -6l-39 128q90 103 148 191q52 80 121 213l252 46q-5 -58 -5 -171v-267l87 5l-12 -135h-75v-40q0 -21 5 -121zM358 291v267h-2q-79 -159 -164 -267h166z" />
    <glyph glyph-name="five" unicode="5" 
d="M222 572v-97q78 6 79 6q114 0 186 -59q76 -62 76 -167q0 -133 -102 -207q-89 -65 -219 -65q-75 0 -157 17v150q73 -17 132 -17q66 0 110 26q56 32 56 97q0 45 -41 70t-110 25q-48 0 -150 -23q5 65 5 190q0 89 -5 194h421v-150q-64 10 -171 10h-110z" />
    <glyph glyph-name="six" unicode="6" 
d="M507 715v-140q-68 14 -103 14q-97 0 -136 -50q-23 -29 -34 -102q72 44 130 44q89 0 148 -60q64 -65 64 -175q0 -117 -66.5 -190t-175.5 -73q-146 0 -221 122q-59 97 -59 240q0 188 86 286t253 98q48 0 114 -14zM234 247q0 -48 23 -83q26 -41 74 -41q47 0 72 36
q23 33 23 88q0 45 -21 75q-26 34 -73 34q-45 0 -71.5 -28.5t-26.5 -80.5z" />
    <glyph glyph-name="seven" unicode="7" 
d="M342 0h-240q60 169 108 271q46 99 159 301h-98q-67 0 -201 -10v150h440l50 -112q-107 -220 -133 -288q-46 -118 -85 -312z" />
    <glyph glyph-name="eight" unicode="8" 
d="M316 -17q-115 0 -196 67q-86 71 -86 183q0 79 46 130q21 23 68 51q-81 44 -81 136q0 82 80 133q71 46 169 46q94 0 165 -46q79 -51 79 -133q0 -92 -88 -136q52 -25 76 -50q48 -49 48 -131q0 -109 -84 -181q-80 -69 -196 -69zM204 229q0 -44 32 -75t80 -31q47 0 78.5 31
t31.5 75t-30.5 72t-79.5 28q-50 0 -81 -28t-31 -72zM217 532q0 -33 32 -55q28 -20 67 -20q37 0 65.5 20.5t28.5 54.5q0 33 -27.5 52.5t-66.5 19.5q-37 0 -66 -18q-33 -21 -33 -54z" />
    <glyph glyph-name="nine" unicode="9" 
d="M105 -2v140q88 -15 118 -15q97 0 136 50q23 29 34 102q-72 -44 -130 -44q-89 0 -148 60q-64 65 -64 175q0 117 66.5 190t175.5 73q146 0 221 -122q59 -97 59 -240q0 -188 -86 -286t-253 -98q-45 0 -129 15zM201 465q0 -45 22 -75q25 -34 72 -34q45 0 71.5 28.5t26.5 80.5
q0 48 -23 83q-26 41 -74 41q-47 0 -71 -34.5t-24 -89.5z" />
    <glyph glyph-name="colon" unicode=":" horiz-adv-x="352" 
d="M278 0v0h-200q3 90 3 83q0 24 -7 108l204 12q0 -14 -3 -49q-2 -30 -2 -48q0 -46 5 -106zM278 305v0h-200q3 90 3 83q0 24 -7 108l204 12q0 -14 -3 -48q-2 -30 -2 -48q0 -47 5 -107z" />
    <glyph glyph-name="semicolon" unicode=";" horiz-adv-x="352" 
d="M212 -78l-175 -11q34 123 40 149q11 53 16 128l188 15q-31 -95 -41 -135q-15 -59 -28 -146zM285 305v0h-200q3 90 3 83q0 24 -7 108l204 12q-5 -82 -5 -96q0 -47 5 -107z" />
    <glyph glyph-name="less" unicode="&#x3c;" horiz-adv-x="1000" 
d="M775 14l-550 202v145l550 205v-150l-348 -126v-2l348 -124v-150z" />
    <glyph glyph-name="equal" unicode="=" horiz-adv-x="1000" 
d="M215 54l5 180h334q146 0 230 10l-5 -180h-357q-114 0 -207 -10zM215 334l5 180h334q146 0 230 10l-5 -180h-357q-114 0 -207 -10z" />
    <glyph glyph-name="greater" unicode="&#x3e;" horiz-adv-x="1000" 
d="M225 14v150l347 124v2l-347 126v150l550 -205v-145z" />
    <glyph glyph-name="question" unicode="?" horiz-adv-x="481" 
d="M303 267l-207 -12q-5 38 -5 46q0 56 41 106q14 16 78 71q41 36 41 60q0 51 -66 51q-48 0 -155 -21l5 140q120 21 173 21q112 0 177.5 -46t65.5 -128q0 -56 -39 -104l-72 -72q-39 -41 -39 -78q0 -24 2 -34zM313 0v0h-214q2 28 2 84q0 22 -7 104l224 12q-10 -65 -10 -116
q0 -14 5 -84z" />
    <glyph glyph-name="at" unicode="@" horiz-adv-x="1000" 
d="M804 14l26 -23q-32 -36 -107 -73q-105 -51 -216 -51q-179 0 -295.5 92.5t-116.5 238.5q0 178 134 312t314 134q154 0 258 -91t104 -233q0 -131 -86.5 -225.5t-194.5 -94.5q-70 0 -73 71q-56 -65 -130 -65q-57 0 -93 36q-39 39 -39 107q0 112 81.5 219.5t176.5 107.5
q78 0 117 -74l22 54h86l-83 -207q-61 -152 -61 -170q0 -27 30 -27q65 0 128 70q73 81 73 198q0 124 -94 201q-88 72 -218 72q-145 0 -264 -123t-119 -271q0 -125 94.5 -206t252.5 -81q163 0 293 102zM369 114q0 -67 69 -67q40 0 72 33q13 13 37 52q38 61 64 145q21 67 21 96
q0 25 -17 44.5t-45 19.5q-67 0 -137 -126q-64 -116 -64 -197z" />
    <glyph glyph-name="A" unicode="A" horiz-adv-x="722" 
d="M198 0h-192q29 70 94 240l63 178q59 168 75 278l238 33q10 -111 69 -284l68 -201q23 -69 102 -244h-214q-19 56 -55 170h-201q-33 -109 -47 -170zM279 290h136q-17 68 -35 136q-18 77 -28 148h-2q-19 -121 -71 -284z" />
    <glyph glyph-name="B" unicode="B" horiz-adv-x="685" 
d="M280 327v-197q33 -5 42 -5q53 0 93 28q46 32 46 83q0 53 -51 78q-35 18 -81 18q-24 0 -49 -5zM193 0h-118q5 115 5 198v316q0 121 -10 198h123q30 0 89.5 5t89.5 5q105 0 174.5 -48.5t69.5 -122.5q0 -112 -130 -156v-2q68 -7 117 -51q58 -52 58 -133q0 -214 -299 -214
q-28 0 -84.5 2.5t-84.5 2.5zM280 587v-152q15 -3 31 -3q104 0 105 86q0 36 -30 57q-25 17 -59 17q-14 0 -47 -5z" />
    <glyph glyph-name="C" unicode="C" horiz-adv-x="574" 
d="M535 157v-165q-117 -9 -116 -9q-178 0 -285 125q-96 112 -96 268q0 181 107 272q95 81 260 81q41 0 123 -10v-170q-92 15 -112 15q-89 0 -136 -55q-42 -50 -42 -133q0 -98 54 -161q58 -67 154 -67q44 0 89 9z" />
    <glyph glyph-name="D" unicode="D" horiz-adv-x="741" 
d="M171 0h-94q5 115 5 198v316q0 121 -10 198h99q27 0 80.5 5t80.5 5q373 0 373 -384q0 -171 -105 -262q-94 -81 -245 -81q-31 0 -92 2.5t-92 2.5zM282 552v-387q21 -5 63 -5q160 0 160 178q0 103 -47.5 161t-127.5 58q-28 0 -48 -5z" />
    <glyph glyph-name="E" unicode="E" horiz-adv-x="574" 
d="M512 0h-436q5 115 5 198v316q0 121 -10 198h430l11 -145q-17 0 -64 3q-42 2 -65 2h-102v-132h73q27 0 73 2q54 3 74 3v-150l-73 3q-49 2 -74 2h-73v-160h53q50 0 190 20z" />
    <glyph glyph-name="F" unicode="F" horiz-adv-x="556" 
d="M286 0h-210q5 115 5 198v316q0 121 -10 198h430l11 -145q-17 0 -64 3q-42 2 -65 2h-102v-147h73q27 0 74 2q53 3 73 3v-150q-120 5 -147 5h-73v-87q0 -25 5 -198z" />
    <glyph glyph-name="G" unicode="G" horiz-adv-x="648" 
d="M612 326v-330q-106 -13 -149 -13q-193 0 -305 94q-122 102 -122 293q0 159 99 256q106 103 299 103q55 0 132 -14v-165q-72 14 -123 14q-87 0 -144 -47q-63 -52 -63 -143q0 -94 57 -161q54 -65 126 -65h18v178h175z" />
    <glyph glyph-name="H" unicode="H" horiz-adv-x="759" 
d="M285 0h-210q5 115 5 198v316q0 121 -10 198h220q-10 -77 -10 -198v-70h198v70q0 121 -10 198h220q-10 -77 -10 -198v-316q0 -25 5 -198h-210q5 115 5 198v106h-198v-106q0 -25 5 -198z" />
    <glyph glyph-name="I" unicode="I" horiz-adv-x="370" 
d="M300 0h-225q5 115 5 198v316q0 121 -10 198h220q-10 -63 -10 -198v-266q0 -48 8 -123q11 -106 12 -125z" />
    <glyph glyph-name="J" unicode="J" horiz-adv-x="426" 
d="M328 514v-271q0 -27 2.5 -94.5t2.5 -95.5q0 -232 -241 -232q-59 0 -116 15l-5 156q54 -6 62 -6q68 0 86.5 37.5t18.5 179.5v311q0 70 -10 198h215q-15 -79 -15 -198z" />
    <glyph glyph-name="K" unicode="K" horiz-adv-x="722" 
d="M729 0h-255q-79 133 -135 249l-56 117l171 346h210q-39 -67 -112 -201l-65 -130l68 -132q59 -114 174 -249zM285 0h-210q5 115 5 198v316q0 121 -10 198h220q-10 -77 -10 -198v-316q0 -25 5 -198z" />
    <glyph glyph-name="L" unicode="L" horiz-adv-x="556" 
d="M533 0h-460q5 86 5 198v316q0 121 -10 198h220q-10 -63 -10 -198v-374h77q48 0 185 20z" />
    <glyph glyph-name="M" unicode="M" horiz-adv-x="1037" 
d="M238 0h-180q7 95 12 240l8 243q4 116 -9 229h300l142 -509h2l152 509h290v-229l7 -243q3 -103 17 -240h-210q5 141 3 240l-6 252h-2q-62 -190 -150 -492l-221 -17q-32 125 -77 268q-38 120 -77 241h-2l-2 -252q-1 -137 3 -240z" />
    <glyph glyph-name="N" unicode="N" horiz-adv-x="796" 
d="M271 0h-185q5 97 5 283v170q0 68 -20 259h214q69 -117 139 -235q78 -135 131 -241l2 2l-7 215q-5 156 -15 259h185q-5 -89 -5 -259v-170q0 -163 10 -283l-208 -17l-259 470h-2v-170q0 -88 15 -283z" />
    <glyph glyph-name="O" unicode="O" horiz-adv-x="741" 
d="M369 -17q-150 0 -247 107t-97 266q0 173 94 273t250 100q145 0 238 -88q106 -100 106 -285q0 -158 -92 -263q-97 -110 -252 -110zM225 356q0 -84 36 -143q40 -65 108 -65q72 0 111 66q33 57 33 142t-33 142q-38 66 -111 66q-144 0 -144 -208z" />
    <glyph glyph-name="P" unicode="P" 
d="M280 576v-198q57 0 99 24q53 30 53 89q0 91 -105 91q-8 0 -47 -6zM285 0h-210q5 115 5 198v316q0 121 -10 198h123q30 0 89.5 5t89.5 5q115 0 178 -70q57 -63 57 -163q0 -138 -134 -210q-95 -51 -193 -51v-30q0 -25 5 -198z" />
    <glyph glyph-name="Q" unicode="Q" horiz-adv-x="741" 
d="M267 -121l-133 50q26 58 73 90q-84 46 -133 136t-49 201q0 173 94 273t250 100q145 0 238 -88q106 -100 106 -285q0 -108 -47 -196.5t-130 -134.5q56 -48 56 -134q0 -1 -6 -55l-144 14q10 38 10 56q0 31 -24.5 54t-58.5 23q-63 0 -102 -104zM225 356q0 -84 36 -143
q40 -65 108 -65q72 0 111 66q33 57 33 142t-33 142q-38 66 -111 66q-144 0 -144 -208z" />
    <glyph glyph-name="R" unicode="R" horiz-adv-x="704" 
d="M285 0h-210q5 115 5 198v316q0 121 -10 198h123q30 0 89.5 5t89.5 5q111 0 184 -54q78 -58 78 -157q0 -140 -158 -192q114 -183 235 -319h-256q-71 98 -95 142q-29 51 -78 173h-2v-117q0 -25 5 -198zM280 576v-176h23q59 0 104 25q52 29 52 79q0 37 -36.5 57.5
t-95.5 20.5q-8 0 -47 -6z" />
    <glyph glyph-name="S" unicode="S" horiz-adv-x="574" 
d="M491 708v-135q-101 16 -134 16q-133 0 -133 -62q0 -28 31 -48q23 -15 119 -56q77 -32 115 -67q65 -59 65 -149q0 -96 -72.5 -160t-187.5 -64q-88 0 -228 39v157q129 -46 214 -46q84 0 84 70q0 27 -43 50q-26 14 -103 42q-81 29 -125 89t-44 136q0 103 91 161
q77 48 181 48q72 0 170 -21z" />
    <glyph glyph-name="T" unicode="T" horiz-adv-x="611" 
d="M406 0h-210q5 115 5 198v374h-52q-18 0 -141 -10l9 150h414q97 0 172 10l-9 -150h-193v-374q0 -25 5 -198z" />
    <glyph glyph-name="U" unicode="U" horiz-adv-x="759" 
d="M501 0l-7 90h-2q-23 -38 -64 -66q-58 -41 -128 -41q-222 0 -222 292v194q0 85 -10 243h220q-10 -85 -10 -243v-164q0 -84 16 -117q18 -40 69 -40q37 0 68 35q40 45 40 122v164q0 85 -10 243h220q-10 -85 -10 -243v-194q0 -132 20 -275h-190z" />
    <glyph glyph-name="V" unicode="V" horiz-adv-x="685" 
d="M474 10l-210 -27q-31 113 -39 142q-26 87 -52 157l-68 181q-25 67 -105 244l225 10q29 -83 83 -253q39 -131 60 -226h2l50 214q37 157 50 255l215 10l-139 -433q-46 -142 -72 -274z" />
    <glyph glyph-name="W" unicode="W" horiz-adv-x="1019" 
d="M433 13l-248 -30q-18 111 -23 142q-16 87 -34 156l-44 167q-28 106 -82 259l200 10q28 -128 57 -256q32 -149 48 -258h2l55 283q20 104 40 221l210 10q16 -72 48 -219l63 -295h2l36 180q26 129 53 324l200 10q-44 -133 -72 -250l-33 -137q-44 -183 -66 -317l-243 -30
q-18 125 -38 215l-55 252h-2l-49 -258q-19 -100 -25 -179z" />
    <glyph glyph-name="X" unicode="X" horiz-adv-x="667" 
d="M-20 0l252 365q-91 156 -238 342l215 10l130 -197q61 89 105 187l215 10l-233 -332q128 -208 262 -385h-225l-144 225q-38 -62 -59 -99q-38 -66 -65 -126h-215z" />
    <glyph glyph-name="Y" unicode="Y" horiz-adv-x="667" 
d="M451 0h-210q5 98 5 172v122l-115 206q-48 87 -136 207l218 10q63 -105 101 -183l45 -93l38 79q26 53 75 187l201 10l-227 -426v-119q0 -39 5 -172z" />
    <glyph glyph-name="Z" unicode="Z" horiz-adv-x="574" 
d="M19 0l-6 120q207 259 323 452h-100q-121 0 -199 -20v160h508l7 -99q-92 -163 -318 -473h103q45 0 112 7q55 7 111 13v-160h-541z" />
    <glyph glyph-name="bracketleft" unicode="[" horiz-adv-x="352" 
d="M342 -228h-310q7 105 7 200v527q0 141 -7 213h310l5 -95l-133 5v-760l132 5z" />
    <glyph glyph-name="backslash" unicode="\" 
d="M546 -17l-219 4q-40 173 -71 272l-79 252q-19 62 -99 262l225 -13q27 -125 66 -249l79 -252q26 -84 98 -276z" />
    <glyph glyph-name="bracketright" unicode="]" horiz-adv-x="352" 
d="M13 -228l-5 95l133 -5v760l-132 -5l4 95h310q-7 -105 -7 -200v-527q0 -141 7 -213h-310z" />
    <glyph glyph-name="asciicircum" unicode="^" 
d="M39 271l206 441h145l201 -441h-150l-124 271l-130 -271h-148z" />
    <glyph glyph-name="underscore" unicode="_" horiz-adv-x="500" 
d="M0 -115v50h500v-50h-500z" />
    <glyph glyph-name="grave" unicode="`" horiz-adv-x="445" 
d="M346 582l-124 -11q-26 43 -62 84l-64 70l143 12q29 -47 107 -155z" />
    <glyph glyph-name="a" unicode="a" horiz-adv-x="593" 
d="M397 0l-8 100h-2q-64 -117 -187 -117q-75 0 -123 44.5t-48 110.5q0 99 95 154q78 46 180 46q13 0 37 -2.5t34 -2.5q0 72 -96 72q-76 0 -182 -26v123q123 23 194 23q132 0 193 -51.5t61 -162.5v-106q0 -109 15 -205h-163zM375 225v23q-24 5 -54 5q-44 0 -76 -22
q-36 -23 -36 -61q0 -21 18.5 -36.5t42.5 -15.5q49 0 79 37q26 31 26 70z" />
    <glyph glyph-name="b" unicode="b" horiz-adv-x="648" 
d="M197 0h-167q20 101 20 237v320q0 110 -20 204l200 12q-10 -144 -10 -216v-74q98 42 162 42q103 0 164 -78t61 -203q0 -112 -65 -186.5t-155 -74.5q-63 0 -114 29q-24 13 -64 47zM220 252q0 -56 26 -92q29 -42 86 -42q43 0 69 33.5t26 91.5q0 70 -31 111q-28 36 -69 36
q-50 0 -78.5 -36t-28.5 -102z" />
    <glyph glyph-name="c" unicode="c" horiz-adv-x="463" 
d="M435 122v-131q-64 -8 -97 -8q-127 0 -215 74q-97 81 -97 217q0 131 98 196q80 55 208 55q33 0 103 -8v-135q-58 8 -86 8q-54 0 -96 -29q-47 -34 -47 -87q0 -68 41 -109q45 -47 133 -47q10 0 29.5 2t25.5 2z" />
    <glyph glyph-name="d" unicode="d" horiz-adv-x="648" 
d="M447 0l-6 58q-33 -34 -56 -48q-45 -27 -104 -27q-104 0 -174.5 78.5t-70.5 197.5q0 110 63 185q68 81 184 81q79 0 154 -52v84q0 110 -20 204l200 12q-10 -144 -10 -216v-326q0 -99 10 -231h-170zM216 262q0 -65 31 -104.5t82 -39.5q49 0 78.5 38.5t29.5 96.5
q0 61 -31.5 99t-82.5 38q-48 0 -76 -32q-31 -34 -31 -96z" />
    <glyph glyph-name="e" unicode="e" horiz-adv-x="574" 
d="M509 140v-140q-94 -17 -147 -17q-153 0 -244 86q-88 83 -88 219q0 104 76 170.5t188 66.5q250 0 250 -272v-33h-324q5 -38 41 -66q45 -36 119 -36q24 0 129 22zM210 310h184q0 32 -14 57q-23 38 -76 38q-49 0 -74 -35q-20 -27 -20 -60z" />
    <glyph glyph-name="f" unicode="f" horiz-adv-x="426" 
d="M302 0h-190q1 19 6 144q4 88 4 144v100h-26q7 0 -76 -10l6 130h94v76q0 97 63 147q54 42 139 42l78 -9l5 -129q-48 3 -47 3q-78 0 -78 -82v-48h31q52 0 91 10l-6 -130h-104v-100q0 -155 10 -288z" />
    <glyph glyph-name="g" unicode="g" horiz-adv-x="648" 
d="M601 270v-216q0 -171 -85 -237q-72 -56 -244 -56q-95 0 -203 22v140q149 -27 200 -27q108 0 143 38q27 29 27 114v26h-2q-26 -34 -51 -48q-45 -26 -121 -26q-109 0 -174 76t-65 194q0 117 72 188q67 67 168 67q66 0 120 -29q23 -12 62 -46l11 53l162 10
q-20 -155 -20 -243zM206 270q0 -57 32.5 -96t82.5 -39q49 0 79.5 34t30.5 86q0 61 -29.5 98t-82.5 37q-54 0 -85 -37q-28 -33 -28 -83z" />
    <glyph glyph-name="h" unicode="h" 
d="M235 0h-190q10 203 10 244v313q0 110 -20 204l200 12q-10 -144 -10 -216v-121q45 50 67 63q42 26 112 26q170 0 170 -218v-158q0 -39 5 -149h-170q-5 60 -5 149v95q0 65 -8 93q-16 53 -65 53q-65 0 -89 -44q-17 -32 -17 -102q0 -131 10 -244z" />
    <glyph glyph-name="i" unicode="i" horiz-adv-x="278" 
d="M227 0h-180q5 102 5 177v109q0 71 -10 217l190 10q-10 -132 -10 -227v-88q0 -33 5 -198zM53 598v77q0 44 -10 99l193 14q-3 -61 -3 -113v-68z" />
    <glyph glyph-name="j" unicode="j" horiz-adv-x="333" 
d="M273 286v-260q0 -265 -223 -265q-34 0 -102 12v155q35 -7 64 -7q63 0 80 44q11 30 11 147v174q0 71 -10 217l190 10q-10 -132 -10 -227zM104 598v77q0 44 -10 99l194 14q-4 -55 -4 -113v-68z" />
    <glyph glyph-name="k" unicode="k" horiz-adv-x="611" 
d="M395 0l-162 262q71 109 135 241l205 10l-159 -237l70 -106q37 -56 55 -81q34 -47 71 -89h-215zM234 0h-190q10 203 10 244v313q0 110 -20 204l200 12q-10 -144 -10 -216v-313q0 -131 10 -244z" />
    <glyph glyph-name="l" unicode="l" horiz-adv-x="278" 
d="M235 0h-190q10 203 10 244v313q0 110 -20 204l200 12q-10 -144 -10 -216v-313q0 -131 10 -244z" />
    <glyph glyph-name="m" unicode="m" horiz-adv-x="944" 
d="M223 0h-180q5 102 5 177v109q0 77 -25 217l160 10q13 -52 14 -88q82 100 194 100q95 0 146 -97q35 47 68 68q47 29 116 29q171 0 171 -239v-137q0 -39 5 -149h-170q-5 60 -5 149v70q0 105 -21 142q-17 29 -60 29q-86 0 -86 -171v-70q0 -39 5 -149h-170q-5 60 -5 149v70
q0 97 -10 126q-15 45 -69 45q-88 0 -88 -144v-69q0 -29 5 -177z" />
    <glyph glyph-name="n" unicode="n" 
d="M223 0h-180q5 102 5 177v109q0 77 -25 217l160 10q8 -32 14 -88q82 100 199 100q181 0 181 -239v-137q0 -39 5 -149h-170q-5 60 -5 149v97q0 77 -15 107q-20 37 -76 37q-98 0 -98 -144v-69q0 -29 5 -177z" />
    <glyph glyph-name="o" unicode="o" horiz-adv-x="611" 
d="M308 -17q-131 0 -210 83q-75 78 -75 197q0 122 84 194q79 68 201 68q123 0 201 -73t78 -189q0 -124 -78 -202t-201 -78zM203 263q0 -145 105 -145q99 0 99 145q0 127 -99 127q-105 0 -105 -127z" />
    <glyph glyph-name="p" unicode="p" horiz-adv-x="648" 
d="M240 -216l-200 -12q10 144 10 217v288q0 98 -20 226l167 10l9 -65q47 41 79 56q42 21 99 21q100 0 168 -87q65 -83 65 -196q0 -110 -63 -183q-65 -76 -171 -76q-52 0 -100 18q-31 15 -63 30v-42q0 -111 20 -205zM220 242q0 -53 26 -85q31 -39 92 -39q99 0 99 120
q0 61 -30 106.5t-76 45.5q-111 0 -111 -148z" />
    <glyph glyph-name="q" unicode="q" horiz-adv-x="648" 
d="M206 278q0 -69 31 -114.5t81 -45.5q46 0 74.5 38.5t28.5 99.5q0 134 -110 134q-46 0 -75.5 -30t-29.5 -82zM421 -11v72q-33 -35 -53 -49q-44 -29 -103 -29q-113 0 -179 90q-60 82 -60 205q0 110 67 178.5t175 68.5q63 0 115 -26q21 -11 64 -44l5 48l159 10
q-20 -217 -20 -257v-267q0 -111 10 -205l-190 -12q10 144 10 217z" />
    <glyph glyph-name="r" unicode="r" horiz-adv-x="389" 
d="M231 0h-180q5 102 5 177v109q0 77 -25 217l160 10q13 -54 13 -88h2q34 50 71.5 73t98.5 27v-157q-24 7 -42 7q-108 0 -108 -114v-84q0 -29 5 -177z" />
    <glyph glyph-name="s" unicode="s" horiz-adv-x="444" 
d="M253 333l77 -41q39 -21 66 -57q32 -42 32 -88q0 -80 -68 -125q-60 -39 -146 -39q-72 0 -179 25v135q108 -30 163 -30q60 0 60 25q0 19 -46 41l-57 27q-125 59 -125 163q0 69 57.5 112.5t150.5 43.5q55 0 132 -12v-115q-76 17 -110 17q-22 0 -39 -9q-21 -11 -21 -31
q0 -14 53 -42z" />
    <glyph glyph-name="t" unicode="t" horiz-adv-x="426" 
d="M384 121l-10 -134q-37 -4 -86 -4q-82 0 -130 47.5t-48 130.5v227h-29q-15 0 -35 -4q-29 -5 -36 -6l6 130h94v30q0 35 -5 77l181 64q-6 -76 -6 -111v-60h16q48 0 87 10l-6 -130h-97v-148q0 -67 8 -89q13 -33 57 -33z" />
    <glyph glyph-name="u" unicode="u" 
d="M415 0l-4 74q-41 -43 -66 -59q-49 -32 -111 -32q-95 0 -137 56t-42 174v122q0 73 -10 168l190 10q-10 -118 -10 -178v-72q0 -75 14 -104q19 -41 77 -41q89 0 89 145v72q0 73 -10 168l190 10q-10 -120 -10 -178v-143q0 -60 10 -192h-170z" />
    <glyph glyph-name="v" unicode="v" horiz-adv-x="574" 
d="M389 0l-200 -17q-15 61 -53 180l-52 137q-25 67 -89 203l190 10q63 -164 101 -357h2q11 54 45 176q45 162 47 171l190 10q-29 -69 -81 -203l-47 -131q-32 -88 -53 -179z" />
    <glyph glyph-name="w" unicode="w" horiz-adv-x="907" 
d="M378 0l-200 -17q-14 58 -45 168l-41 124q-25 66 -88 228l190 10q54 -202 86 -352h2l82 342l185 10l87 -351h2q38 164 81 341l190 10q-23 -59 -69 -184l-52 -150q-33 -95 -55 -179l-200 -17l-77 319h-2z" />
    <glyph glyph-name="x" unicode="x" horiz-adv-x="593" 
d="M-1 0l199 263q-41 59 -96 126l-96 114l204 10l90 -143q47 60 77 133l204 10l-191 -248q48 -66 95 -131q56 -76 110 -134h-204l-94 155q-42 -65 -94 -155h-204z" />
    <glyph glyph-name="y" unicode="y" horiz-adv-x="611" 
d="M327 -216l-206 -12q36 64 69 159l26 74l-69 175q-68 173 -156 323l204 10q83 -196 115 -361h2q8 63 44 186q39 136 45 165l195 10q-41 -98 -112 -276l-80 -215q-48 -129 -77 -238z" />
    <glyph glyph-name="z" unicode="z" horiz-adv-x="519" 
d="M29 0v91q52 58 115 144q53 71 106 143h-56q-52 0 -156 -10v140h437v-76l-221 -302h63q29 0 171 10v-140h-459z" />
    <glyph glyph-name="braceleft" unicode="{" 
d="M470 -200v-28q-74 6 -132 43q-78 49 -78 133q0 30 13.5 89t13.5 89q0 73 -111 128v22q111 49 111 128q0 30 -13.5 90.5t-13.5 91.5q0 72 64 119q57 42 146 53v-28q-108 -31 -108 -145q0 -26 7 -77t7 -77q0 -100 -155 -166q67 -29 99 -56q56 -47 56 -110q0 -25 -7 -75
t-7 -73q0 -124 108 -151z" />
    <glyph glyph-name="bar" unicode="|" horiz-adv-x="333" 
d="M82 -228v940h170v-940h-170z" />
    <glyph glyph-name="braceright" unicode="}" 
d="M162 -228v28q107 27 107 151q0 16 -6.5 70t-6.5 78q0 63 56 110q32 27 98 56q-60 26 -89 49q-65 49 -65 117q0 26 7 77t7 77q0 114 -108 145v28q89 -11 146 -53q64 -47 64 -119q0 -32 -14 -93t-14 -89q0 -78 111 -128v-22q-111 -57 -111 -128q0 -30 14 -89t14 -89
q0 -84 -78 -133q-58 -37 -132 -43z" />
    <glyph glyph-name="asciitilde" unicode="~" horiz-adv-x="1000" 
d="M228 129v117q0 83 48.5 136t122.5 53q57 0 105 -42q40 -35 58 -84q8 -24 16 -49q8 -20 22 -20q27 0 27 49v108h145v-137q0 -71 -48.5 -118t-117.5 -47q-42 0 -84 24q-37 21 -57.5 50t-36.5 83q-11 38 -27 38q-28 0 -28 -44v-117h-145z" />
    <glyph glyph-name="dagger" unicode="&#x2020;" 
d="M225 -228v530h-33q-59 0 -131 -10l7 140h157v79q0 64 -10 192l190 9v-280h28q23 0 135 10l-6 -140h-157v-206q0 -104 10 -314z" />
    <glyph glyph-name="cent" unicode="&#xa2;" 
d="M312 -17v119q-88 27 -146 91q-70 77 -70 184q0 112 80 177q54 45 136 62l-6 88l129 8l2 -96q30 0 63 -6v-135q-29 6 -73 6q-67 0 -109 -29t-42 -80q0 -65 48.5 -103t123.5 -38q11 0 60 7v-135q-28 -7 -71 -7l11 -113h-136z" />
    <glyph glyph-name="sterling" unicode="&#xa3;" 
d="M576 0h-457q18 162 18 235v92h-92v130h83q-3 48 -3 50q0 222 280 222q51 0 130 -11v-147q-99 8 -109 8q-121 0 -121 -87q0 -14 3 -35h171v-130h-162v-187h126q-16 0 141 10z" />
    <glyph glyph-name="section" unicode="&#xa7;" 
d="M503 710v-147q-94 26 -143 26q-35 0 -64 -12q-34 -14 -34 -36q0 -30 40 -50q25 -12 121 -42q57 -18 99 -66q46 -53 46 -115t-38 -112q-14 -20 -56 -56q37 -23 53 -41q33 -38 33 -95q0 -83 -62 -135q-69 -57 -193 -57q-96 0 -217 38v150q116 -48 193 -48q35 0 60 12
q29 14 29 40q0 27 -42 50q-26 13 -101 40q-64 23 -112 76q-54 60 -54 126q0 94 96 162q-70 60 -70 127q0 86 74 136q71 48 185 48q47 0 157 -19zM216 272q0 -32 35 -57q32 -23 71 -23q86 0 86 67q0 28 -35.5 51t-75.5 23q-32 0 -55 -15q-26 -17 -26 -46z" />
    <glyph glyph-name="bullet" unicode="&#x2022;" 
d="M315 180q-74 0 -127.5 53t-53.5 127q0 75 53 128.5t128 53.5t128 -53.5t53 -128.5q0 -74 -53.5 -127t-127.5 -53z" />
    <glyph glyph-name="paragraph" unicode="&#xb6;" 
d="M319 -193v437q-221 42 -222 226q-1 146 132 205q84 37 215 37h69v-39h-70v-866h-37v864q-32 -2 -50 -4v-860h-37z" />
    <glyph glyph-name="germandbls" unicode="&#xdf;" horiz-adv-x="593" 
d="M223 0h-190q10 203 10 244v269q0 131 75 200q66 60 173 60q80 0 131 -40q56 -43 56 -120q0 -61 -25 -123t-25 -77q0 -19 35 -62q48 -60 64 -88q35 -60 35 -121q0 -67 -55 -113t-146 -46q-39 0 -91 10v135q22 -10 64 -10q26 0 47 14t21 39q0 38 -64.5 117t-64.5 113
q0 19 27.5 78t27.5 97q0 28 -15 45t-36 17q-64 0 -64 -125v-269q0 -131 10 -244z" />
    <glyph glyph-name="acute" unicode="&#xb4;" horiz-adv-x="445" 
d="M222 580l-128 -9q69 97 96 157l154 9q-47 -53 -122 -157z" />
    <glyph glyph-name="dieresis" unicode="&#xa8;" horiz-adv-x="445" 
d="M87 586v37q0 45 -4 84l116 8q-5 -50 -5 -92v-30zM250 586v37q0 45 -4 84l116 8q-5 -50 -5 -92v-30z" />
    <glyph glyph-name="AE" unicode="&#xc6;" horiz-adv-x="944" 
d="M452 301v113q0 35 -5 88q-7 77 -8 90h-2q-43 -123 -123 -291h138zM1 0l205 418q82 168 108 294h558l11 -145q-17 0 -64 3q-42 2 -65 2h-102v-132h73q27 0 74 2q53 3 73 3v-150l-73 3q-49 2 -74 2h-73v-160h53q50 0 190 20l-12 -160h-436q5 105 5 181h-183
q-20 -41 -68 -181h-200z" />
    <glyph glyph-name="Oslash" unicode="&#xd8;" horiz-adv-x="741" 
d="M12 -17l96 122q-83 103 -83 251q0 173 94 273t250 100q100 0 185 -50l36 50h153l-106 -120q76 -97 76 -253q0 -158 -92 -263q-97 -110 -252 -110q-94 0 -173 45l-26 -40zM239 265l208 274q-33 25 -78 25q-144 0 -144 -208q0 -46 14 -91zM503 430l-200 -264q27 -18 66 -18
q72 0 111 66q33 57 33 142q0 41 -10 74z" />
    <glyph glyph-name="yen" unicode="&#xa5;" 
d="M462 358l-37 -70v-31h213v-120h-212q0 -54 4 -140h-210q4 96 4 140h-210v120h211v34q-14 35 -31 67h-180v120h117q-59 103 -155 228l219 12q64 -105 145 -277q78 157 113 265l201 12l-128 -240h112v-120h-176z" />
    <glyph glyph-name="ordfeminine" unicode="&#xaa;" 
d="M352 370l-3 51q-75 -62 -134 -62q-53 0 -85 33t-32 81q0 70 74 103q54 25 128 25h40q0 38 -63 38q-42 0 -120 -16v90q75 16 144 16q169 0 169 -125v-93q0 -33 11 -141h-129zM340 546h-38q-29 0 -49 -13.5t-20 -39.5q0 -17 11 -28t26 -11q41 0 57 32q8 17 13 60z" />
    <glyph glyph-name="ordmasculine" unicode="&#xba;" 
d="M314 353q-91 0 -146 57q-50 52 -50 131q0 88 51.5 138t144.5 50q86 0 139 -46q58 -50 58 -142q0 -75 -51 -129q-56 -59 -146 -59zM258 541q0 -88 56 -88q29 0 45 31q12 24 12 57q0 88 -57 88q-56 0 -56 -88z" />
    <glyph glyph-name="ae" unicode="&#xe6;" horiz-adv-x="926" 
d="M375 238h-54q-42 0 -73 -19q-34 -20 -34 -50q0 -51 76 -51q39 0 64 33q21 29 21 64v23zM859 140v-140q-94 -17 -147 -17q-165 0 -253 105q-85 -105 -239 -105q-80 0 -133 43.5t-53 106.5q0 94 93 147q76 43 177 43h71q-5 37 -14 50q-24 32 -92 32q-71 0 -172 -26v123
q117 23 184 23q121 0 184 -52q76 52 179 52q250 0 250 -259v-28h-324q5 -44 41 -78q45 -42 119 -42q24 0 129 22zM560 323h184q0 29 -15 50q-23 32 -75 32q-86 0 -94 -82z" />
    <glyph glyph-name="oslash" unicode="&#xf8;" horiz-adv-x="611" 
d="M207 216l137 168q-15 6 -35 6q-52 0 -80 -38q-25 -34 -25 -89q0 -31 3 -47zM405 305l-148 -172q23 -15 52 -15q99 0 99 145q0 20 -3 42zM0 -13l87 97q-63 74 -63 179q0 122 84 194q79 68 201 68q73 0 131 -29l27 40h141l-82 -91q62 -77 62 -182q0 -124 -78 -202t-201 -78
q-80 0 -142 41l-24 -30z" />
    <glyph glyph-name="questiondown" unicode="&#xbf;" horiz-adv-x="481" 
d="M432 -60l-5 -140q-120 -21 -173 -21q-112 0 -177.5 46t-65.5 128q0 56 39 104l72 72q39 41 39 78q0 24 -2 34l207 12q5 -37 5 -46q0 -56 -41 -106q-14 -16 -78 -71q-41 -36 -41 -60q0 -51 66 -51q48 0 155 21zM368 320v0l-224 -12q10 65 10 116q0 14 -5 84h214
q-2 -28 -2 -84q0 -22 7 -104z" />
    <glyph glyph-name="exclamdown" unicode="&#xa1;" horiz-adv-x="370" 
d="M309 -191v0l-233 -13q15 204 15 361v87l196 10v-97q0 -186 22 -348zM297 320v0l-224 -12q10 65 10 116q0 14 -5 84h214q-2 -28 -2 -84q0 -22 7 -104z" />
    <glyph glyph-name="florin" unicode="&#x192;" 
d="M339 0h-192q32 164 44 265l15 123q-21 0 -47 -3q-38 -6 -54 -7l21 130h94l7 56q13 107 81 161q60 48 150 48q2 0 83 -9l-15 -145q-32 4 -47 4q-75 0 -82 -59l-7 -56h21q67 0 106 10l-21 -130h-115l-15 -123q-17 -140 -27 -265z" />
    <glyph glyph-name="guillemotleft" unicode="&#xab;" horiz-adv-x="574" 
d="M131 37l-103 189l101 227l171 8l-107 -235l103 -186zM372 37l-104 189l101 227l171 8l-107 -235l104 -186z" />
    <glyph glyph-name="guillemotright" unicode="&#xbb;" horiz-adv-x="574" 
d="M437 461l103 -227l-101 -189l-171 -8l107 197l-103 224zM196 461l104 -227l-101 -189l-171 -8l107 197l-104 224z" />
    <glyph glyph-name="ellipsis" unicode="&#x2026;" horiz-adv-x="1000" 
d="M85 0v54q0 35 -8 97l183 11q-5 -78 -5 -124v-38h-170zM415 0v54q0 35 -8 97l183 11q-5 -78 -5 -124v-38h-170zM745 0v54q0 35 -8 97l183 11q-5 -78 -5 -124v-38h-170z" />
    <glyph glyph-name="OE" unicode="&#x152;" horiz-adv-x="1000" 
d="M224 356q0 -84 36 -143q40 -65 108 -65q71 0 110 66q33 57 33 142t-32 142q-39 66 -111 66q-144 0 -144 -208zM932 0h-441q-65 -17 -123 -17q-150 0 -247 107t-97 266q0 173 94 273t250 100q61 0 123 -17h430l11 -145q-17 0 -64 3q-42 2 -65 2h-102v-132h73q90 0 147 5
v-150q-45 5 -147 5h-73v-160h53q50 0 190 20z" />
    <glyph glyph-name="oe" unicode="&#x153;" horiz-adv-x="944" 
d="M879 140v-140q-94 -17 -147 -17q-141 0 -231 71q-77 -71 -194 -71q-131 0 -210 83q-75 78 -75 197q0 122 84 194q79 68 201 68q104 0 179 -56q75 56 178 56q250 0 250 -272v-33h-324q5 -38 41 -66q45 -36 119 -36q24 0 129 22zM202 263q0 -145 105 -145q98 0 98 145
q0 127 -98 127q-105 0 -105 -127zM580 310h184q0 32 -14 57q-23 38 -76 38q-48 0 -74 -35q-18 -26 -20 -60z" />
    <glyph glyph-name="endash" unicode="&#x2013;" 
d="M45 195l11 165h255q191 0 273 10l-11 -165h-271q-85 0 -257 -10z" />
    <glyph glyph-name="emdash" unicode="&#x2014;" horiz-adv-x="1000" 
d="M42 195l9 165h520q237 0 377 10l-9 -165h-457q-264 0 -440 -10z" />
    <glyph glyph-name="quotedblleft" unicode="&#x201c;" horiz-adv-x="611" 
d="M498 437v0l-188 -11q34 111 43 140q24 84 33 140l173 6q-41 -138 -43 -148q-15 -61 -18 -127zM239 437v0l-188 -11q61 191 77 280l173 6q-38 -124 -44 -148q-15 -60 -18 -127z" />
    <glyph glyph-name="quotedblright" unicode="&#x201d;" horiz-adv-x="611" 
d="M224 432v0l-173 -6q38 124 45 148q14 60 17 127l188 11q-61 -191 -77 -280zM482 432v0l-173 -6q40 134 44 148q15 61 18 127l188 11q-40 -130 -43 -140q-25 -85 -34 -140z" />
    <glyph glyph-name="quoteleft" unicode="&#x2018;" horiz-adv-x="352" 
d="M248 437v0l-188 -11q61 191 77 280l173 6q-38 -124 -44 -148q-15 -60 -18 -127z" />
    <glyph glyph-name="quoteright" unicode="&#x2019;" horiz-adv-x="352" 
d="M224 432v0l-173 -6q38 124 45 148q14 60 17 127l188 11q-61 -191 -77 -280z" />
    <glyph glyph-name="fraction" unicode="&#x2044;" horiz-adv-x="357" 
d="M68 -17l-130 -8q31 61 103 213l140 313q62 139 95 222l140 6q-39 -68 -120 -228l-140 -313q-48 -108 -88 -205z" />
    <glyph glyph-name="currency" unicode="&#xa4;" 
d="M109 118l-30 30l67 67q-47 51 -47 136q0 79 48 138l-70 70l32 31l69 -68q64 46 137 46q72 0 136 -46l69 68l32 -31l-70 -70q48 -49 48 -138q0 -83 -47 -136l67 -67l-30 -30l-66 66q-63 -47 -139 -47q-80 0 -140 47zM140 351q0 -72 51.5 -122.5t123.5 -50.5q71 0 122.5 51
t51.5 122q0 72 -51 124t-123 52t-123.5 -52t-51.5 -124z" />
    <glyph glyph-name="guilsinglleft" unicode="&#x2039;" horiz-adv-x="333" 
d="M131 37l-103 189l101 227l171 8l-107 -235l103 -186z" />
    <glyph glyph-name="guilsinglright" unicode="&#x203a;" horiz-adv-x="333" 
d="M197 461l103 -227l-101 -189l-171 -8l107 197l-103 224z" />
    <glyph glyph-name="fi" unicode="&#xf001;" horiz-adv-x="667" 
d="M302 0h-190q1 19 6 144q4 88 4 144v100h-26q7 0 -76 -10l6 130h94v76q0 97 79 147q67 42 173 42q73 0 138 -19l5 -129q-57 13 -107 13q-128 0 -128 -82v-48h185q32 0 80 4q67 5 80 6q-10 -132 -10 -232v-88q0 -33 5 -198h-180q5 102 5 177v109q0 17 -5 102h-148v-100
q0 -155 10 -288z" />
    <glyph glyph-name="fl" unicode="&#xf002;" horiz-adv-x="667" 
d="M305 0h-190q1 19 6 144q4 88 4 144v100h-26q7 0 -76 -10l6 130h94v76q0 97 63 147q54 42 139 42q22 0 56 -6q48 -9 55 -10l187 16q-10 -154 -10 -232v-297q0 -131 10 -244h-190q10 203 10 244v297q0 42 -5 92q-36 5 -77 5q-78 0 -78 -102v-28h31q51 0 90 10l-5 -130h-104
v-100q0 -155 10 -288z" />
    <glyph glyph-name="daggerdbl" unicode="&#x2021;" 
d="M225 -228v309h-33q-59 0 -131 -10l7 140h157v167h-33q-59 0 -131 -10l7 140h157q0 69 -10 195l190 9v-204h28q23 0 135 10l-6 -140h-157v-167h28q45 0 135 10l-6 -140h-157q3 -165 10 -299z" />
    <glyph glyph-name="periodcentered" 
d="M422 248v0h-210q5 33 5 77q0 55 -10 123l215 13q0 -16 -3 -57q-2 -36 -2 -57q0 -16 5 -99z" />
    <glyph glyph-name="quotesinglbase" unicode="&#x201a;" horiz-adv-x="352" 
d="M224 -77v0l-173 -6q39 131 43 148q15 61 18 127l188 11q-62 -191 -76 -280z" />
    <glyph glyph-name="quotedblbase" unicode="&#x201e;" horiz-adv-x="611" 
d="M211 -77v0l-173 -6q39 131 43 148q15 61 18 127l188 11q-34 -111 -43 -140q-24 -84 -33 -140zM469 -77v0l-173 -6q38 124 45 148q14 60 17 127l188 11q-61 -191 -77 -280z" />
    <glyph glyph-name="perthousand" unicode="&#x2030;" horiz-adv-x="1296" 
d="M203 338q-78 0 -127 63q-44 57 -44 132q0 90 44.5 143t126.5 53q171 0 171 -196q0 -80 -38 -132q-45 -63 -133 -63zM152 533q0 -95 51 -95t51 95q0 96 -51 96t-51 -96zM692 -17q-78 0 -127 63q-44 57 -44 132q0 90 44.5 143t126.5 53q171 0 171 -196q0 -80 -38 -132
q-45 -63 -133 -63zM641 178q0 -95 51 -95t51 95q0 96 -51 96t-51 -96zM1092 -17q-78 0 -127 63q-44 57 -44 132q0 90 44.5 143t126.5 53q171 0 171 -196q0 -80 -38 -132q-45 -63 -133 -63zM1041 178q0 -95 51 -95t51 95q0 96 -51 96t-51 -96zM339 -17l-130 -8q31 61 103 213
l140 313q62 139 95 222l140 6q-39 -68 -120 -228l-140 -313q-48 -108 -88 -205z" />
    <glyph glyph-name="dotlessi" unicode="&#x131;" horiz-adv-x="278" 
d="M229 0h-180q5 102 5 177v109q0 71 -10 217l190 10q-10 -132 -10 -227v-88q0 -33 5 -198z" />
    <glyph glyph-name="circumflex" unicode="&#x2c6;" horiz-adv-x="445" 
d="M177 577l-137 -6q42 54 57 75q31 42 54 83l157 8q36 -76 96 -160l-129 -6l-47 82z" />
    <glyph glyph-name="tilde" unicode="&#x2dc;" horiz-adv-x="445" 
d="M114 586v0h-75q0 53 18 90q28 55 92 55q35 0 98 -33l30 -18t24 -9q29 0 29 44h75q0 -54 -23 -94q-29 -50 -83 -50q-36 0 -82 27q-56 33 -68 33q-28 0 -35 -45z" />
    <glyph glyph-name="macron" unicode="&#xaf;" horiz-adv-x="445" 
d="M87 586v89h271v-89h-271z" />
    <glyph glyph-name="macron" unicode="&#x2c9;" horiz-adv-x="445" 
d="M87 586v89h271v-89h-271z" />
    <glyph glyph-name="breve" unicode="&#x2d8;" horiz-adv-x="445" 
d="M282 728l84 9q0 -4 1 -12v-12q0 -58 -43.5 -100t-99.5 -42q-59 0 -102.5 42t-43.5 96q0 3 1 10v9l86 9q-2 -16 -2 -24q0 -27 16 -44.5t41 -17.5q27 0 44.5 15.5t17.5 40.5v21z" />
    <glyph glyph-name="dotaccent" unicode="&#x2d9;" horiz-adv-x="445" 
d="M168 586v37q0 45 -4 84l116 8q-5 -50 -5 -92v-30z" />
    <glyph glyph-name="ring" unicode="&#x2da;" horiz-adv-x="445" 
d="M222 571q-48 0 -81.5 34t-33.5 82q0 49 33.5 83.5t81.5 34.5t82 -34.5t34 -83.5q0 -47 -34 -81.5t-82 -34.5zM187 687q0 -15 10.5 -25.5t24.5 -10.5t25 10.5t11 25.5q0 16 -10.5 27t-25.5 11q-14 0 -24.5 -11t-10.5 -27z" />
    <glyph glyph-name="cedilla" unicode="&#xb8;" horiz-adv-x="445" 
d="M140 -67v62q23 5 44 5q56 0 89.5 -28.5t33.5 -75.5q0 -49 -37 -80.5t-92 -31.5q-22 0 -40 3v64q16 -2 23 -2q61 0 61 47q0 17 -15.5 28t-36.5 11q-10 0 -30 -2z" />
    <glyph glyph-name="hungarumlaut" unicode="&#x2dd;" horiz-adv-x="445" 
d="M129 580l-129 -9q69 97 96 157l154 9q-42 -47 -121 -157zM323 580l-129 -9q40 59 51 76q27 42 45 81l154 9q-42 -47 -121 -157z" />
    <glyph glyph-name="ogonek" unicode="&#x2db;" horiz-adv-x="445" 
d="M404 -97l12 -57q-78 -39 -128 -39q-39 0 -65 22t-26 59q0 58 82 143l48 -13q-40 -60 -40 -95q0 -20 14 -33t33 -13q31 0 70 26z" />
    <glyph glyph-name="caron" unicode="&#x2c7;" horiz-adv-x="445" 
d="M293 579l-157 -8q-36 76 -96 160l129 6l47 -82l51 76l137 6q-42 -54 -57 -74q-31 -43 -54 -84z" />
    <glyph glyph-name="Lslash" unicode="&#x141;" 
d="M599 0h-460q5 95 5 218l-64 -47l-62 89l126 93v161q0 121 -10 198h220q-10 -68 -10 -212l102 76l67 -86l-169 -125v-225h77q48 0 185 20z" />
    <glyph glyph-name="lslash" unicode="&#x142;" horiz-adv-x="426" 
d="M308 0h-190q10 203 10 244v31l-70 -45l-50 80l120 78v169q0 111 -20 205l200 11q-10 -144 -10 -216v-59l74 49l50 -80l-124 -81v-142q0 -131 10 -244z" />
    <glyph glyph-name="Eth" unicode="&#xd0;" horiz-adv-x="759" 
d="M302 303v-138q50 -5 63 -5q160 0 160 178q0 103 -47.5 161t-127.5 58q-28 0 -48 -5v-119h94v-130h-94zM191 0h-94q5 115 5 198v105h-80v130h80v81q0 121 -10 198h99q27 0 80.5 5t80.5 5q373 0 373 -396q0 -165 -105 -253q-94 -78 -245 -78q-30 0 -92 2.5t-92 2.5z" />
    <glyph glyph-name="eth" unicode="&#xf0;" horiz-adv-x="611" 
d="M530 680l-83 -29q61 -89 90 -154q50 -114 50 -234q0 -124 -77.5 -202t-199.5 -78q-129 0 -211 89q-76 82 -76 191q0 105 72 175t174 70q47 0 111 -19q-24 56 -78 112l-148 -52l-22 90l104 36q-50 41 -104 73l204 25q19 -15 51 -47l117 42zM203 261q0 -52 25 -94
q29 -49 80 -49q99 0 99 145q0 46 -23 76q-26 34 -76 34q-54 0 -82 -35q-23 -30 -23 -77z" />
    <glyph glyph-name="Scaron" unicode="&#x160;" horiz-adv-x="574" 
d="M491 708v-135q-101 16 -134 16q-133 0 -133 -62q0 -28 31 -48q23 -15 119 -56q77 -32 115 -67q65 -59 65 -149q0 -96 -72.5 -160t-187.5 -64q-88 0 -228 39v157q129 -46 214 -46q84 0 84 70q0 27 -43 50q-26 14 -103 42q-81 29 -125 89t-44 136q0 103 91 161
q77 48 181 48q72 0 170 -21zM358 783l-157 -8q-36 76 -96 160l129 6l47 -82l51 76l137 6q-42 -54 -57 -74q-31 -43 -54 -84z" />
    <glyph glyph-name="scaron" unicode="&#x161;" horiz-adv-x="444" 
d="M253 333l77 -41q39 -21 66 -57q32 -42 32 -88q0 -80 -68 -125q-60 -39 -146 -39q-72 0 -179 25v135q108 -30 163 -30q60 0 60 25q0 19 -46 41l-57 27q-125 59 -125 163q0 69 57.5 112.5t150.5 43.5q55 0 132 -12v-115q-76 17 -110 17q-22 0 -39 -9q-21 -11 -21 -31
q0 -14 53 -42zM293 579l-157 -8q-36 76 -96 160l129 6l47 -82l51 76l137 6q-42 -54 -57 -74q-31 -43 -54 -84z" />
    <glyph glyph-name="Yacute" unicode="&#xdd;" horiz-adv-x="667" 
d="M451 0h-210q5 98 5 172v122l-115 206q-50 90 -136 207l218 10q64 -107 101 -183l45 -93l38 79q28 57 75 187l201 10l-227 -426v-119q0 -39 5 -172zM398 730l-41 -4l-41 -3q43 62 76 135l139 7q-51 -46 -133 -135z" />
    <glyph glyph-name="yacute" unicode="&#xfd;" horiz-adv-x="611" 
d="M327 -216l-206 -12q35 62 69 159l26 74l-69 175q-69 174 -156 323l204 10q83 -196 115 -361h2q8 61 44 186q38 131 45 165l195 10q-34 -78 -112 -276l-80 -215q-48 -129 -77 -238zM347 525l-41 -4l-41 -3q43 62 76 135l139 7q-51 -46 -133 -135z" />
    <glyph glyph-name="Thorn" unicode="&#xde;" 
d="M280 469v-198q57 0 99 24q53 30 53 89q0 91 -105 91q-8 0 -47 -6zM285 0h-210q5 115 5 198v316q0 121 -10 198h215q-5 -32 -5 -108q8 1 45 7q28 4 47 4q115 0 178 -70q57 -63 57 -163q0 -138 -134 -210q-95 -51 -193 -51q0 -49 5 -121z" />
    <glyph glyph-name="thorn" unicode="&#xfe;" horiz-adv-x="648" 
d="M215 242q0 -53 26 -85q31 -39 92 -39q99 0 99 120q0 61 -30 106.5t-76 45.5q-111 0 -111 -148zM235 -216l-200 -12q10 144 10 217v475q0 160 -20 297l200 12q-10 -144 -10 -216v-109q44 41 72 56q40 21 92 21q100 0 168 -87q65 -83 65 -196q0 -110 -63 -183
q-65 -76 -171 -76q-52 0 -100 18q-31 15 -63 30v-42q0 -111 20 -205z" />
    <glyph glyph-name="Zcaron" unicode="&#x17d;" horiz-adv-x="574" 
d="M19 0l-6 120q207 259 323 452h-100q-121 0 -199 -20v160h508l7 -99q-92 -163 -318 -473h103q45 0 112 7q55 7 111 13v-160h-541zM358 783l-157 -8q-36 76 -96 160l129 6l47 -82l51 76l137 6q-42 -54 -57 -74q-31 -43 -54 -84z" />
    <glyph glyph-name="zcaron" unicode="&#x17e;" horiz-adv-x="519" 
d="M29 0v91q52 58 115 144q53 71 106 143h-56q-52 0 -156 -10v140h437v-76l-221 -302h63q29 0 171 10v-140h-459zM330 579l-157 -8q-36 76 -96 160l129 6l47 -82l51 76l137 6q-42 -54 -57 -74q-31 -43 -54 -84z" />
    <glyph glyph-name="onehalf" unicode="&#xbd;" horiz-adv-x="1000" 
d="M347 -17l-130 -8q31 61 103 213l140 313q62 139 95 222l140 6q-39 -68 -120 -228l-140 -313q-48 -108 -88 -205zM287 302h-151q8 83 8 155v140q-13 -10 -74 -37l-48 88q50 19 74 30q42 20 85 51l103 -35q0 -13 -3 -48q-2 -31 -2 -49v-140q0 -33 8 -155zM596 0l-9 78
q47 59 99 108l56 52q38 37 38 52q0 45 -79 45l-87 -12l4 93q116 11 125 11q71 0 120 -26q57 -31 57 -87q0 -65 -61 -128q-54 -47 -109 -94h34q30 0 148 12l-5 -104h-331z" />
    <glyph glyph-name="onequarter" unicode="&#xbc;" horiz-adv-x="1000" 
d="M752 0l5 93l-208 -7l-27 91q67 72 96 109q25 34 78 121l181 26v-255h55l-7 -85h-48l5 -93h-130zM757 178v151h-2q-34 -62 -46 -79t-59 -72h107zM359 -17l-130 -8q31 61 103 213l140 313q62 139 95 222l140 6q-39 -68 -120 -228l-140 -313q-48 -108 -88 -205zM304 302
h-151q8 83 8 155v140q-13 -10 -74 -37l-48 88q50 19 74 30q42 20 85 51l103 -35q0 -13 -3 -48q-2 -31 -2 -49v-140q0 -33 8 -155z" />
    <glyph glyph-name="onesuperior" unicode="&#xb9;" horiz-adv-x="444" 
d="M318 302h-151q8 83 8 155v140q-13 -10 -74 -37l-48 88q50 19 74 30q42 20 85 51l103 -35q0 -13 -3 -48q-2 -31 -2 -49v-140q0 -33 8 -155z" />
    <glyph glyph-name="threequarters" unicode="&#xbe;" horiz-adv-x="1000" 
d="M381 -17l-130 -8q31 61 103 213l140 313q62 139 95 222l140 6q-39 -68 -120 -228l-140 -313q-48 -108 -88 -205zM64 631l4 87q90 11 122 11q66 0 110 -21q59 -27 59 -85q0 -50 -51 -81q33 -18 44 -31q25 -28 25 -77q0 -80 -71 -119q-56 -31 -140 -31q-28 0 -103 11v85
q40 -4 59 -4q115 0 115 62q0 29 -34 39q-20 5 -83 8l3 70q48 0 66 6q30 9 30 38q0 38 -82 38q-27 0 -73 -6zM771 0l5 93l-208 -7l-27 91q67 72 96 109q25 34 78 121l181 26v-255h55l-7 -85h-48l5 -93h-130zM776 178v151h-2q-34 -62 -46 -79t-59 -72h107z" />
    <glyph glyph-name="threesuperior" unicode="&#xb3;" horiz-adv-x="444" 
d="M64 631l4 87q90 11 122 11q66 0 110 -21q59 -27 59 -85q0 -50 -51 -81q33 -18 44 -31q25 -28 25 -77q0 -80 -71 -119q-56 -31 -140 -31q-28 0 -103 11v85q40 -4 59 -4q115 0 115 62q0 29 -34 39q-20 5 -83 8l3 70q48 0 66 6q30 9 30 38q0 38 -82 38q-27 0 -73 -6z" />
    <glyph glyph-name="twosuperior" unicode="&#xb2;" horiz-adv-x="444" 
d="M49 302l-9 78q47 59 99 108l56 52q38 37 38 52q0 45 -79 45l-87 -12l4 93q116 11 125 11q71 0 120 -26q57 -31 57 -87q0 -65 -61 -128q-54 -47 -109 -94h34q30 0 148 12l-5 -104h-331z" />
    <glyph glyph-name="brokenbar" unicode="&#xa6;" horiz-adv-x="352" 
d="M91 340v372h170v-372h-170zM91 -228v372h170v-372h-170z" />
    <glyph glyph-name="minus" unicode="&#x2212;" horiz-adv-x="1000" 
d="M215 194l5 180h334q146 0 230 10l-5 -180h-357q-114 0 -207 -10z" />
    <glyph glyph-name="multiply" unicode="&#xd7;" horiz-adv-x="1000" 
d="M320 -5l-122 102l184 174q-83 83 -179 168l100 119l185 -184q91 95 184 199l117 -108l-195 -197l176 -175l-109 -110q-55 61 -173 182z" />
    <glyph glyph-name="Adieresis" unicode="&#xc4;" horiz-adv-x="722" 
d="M198 0h-192q29 70 94 240l63 178q59 168 75 278l238 33q10 -111 69 -284l68 -201q23 -69 102 -244h-214q-19 56 -55 170h-201q-33 -109 -47 -170zM279 290h136q-17 68 -35 136q-18 77 -28 148h-2q-19 -121 -71 -284zM226 790v37q0 45 -4 84l116 8q-5 -50 -5 -92v-30z
M389 790v37q0 45 -4 84l116 8q-5 -50 -5 -92v-30z" />
    <glyph glyph-name="Aring" unicode="&#xc5;" horiz-adv-x="722" 
d="M198 0h-192q29 70 94 240l63 178q59 168 75 278l238 33q10 -111 69 -284l68 -201q23 -69 102 -244h-214q-19 56 -55 170h-201q-33 -109 -47 -170zM279 290h136q-17 68 -35 136q-18 77 -28 148h-2q-19 -121 -71 -284zM361 775q-48 0 -81.5 34t-33.5 82q0 49 33.5 83.5
t81.5 34.5t82 -34.5t34 -83.5q0 -47 -34 -81.5t-82 -34.5zM326 891q0 -15 10.5 -25.5t24.5 -10.5t25 10.5t11 25.5q0 16 -10.5 27t-25.5 11q-14 0 -24.5 -11t-10.5 -27z" />
    <glyph glyph-name="Ccedilla" unicode="&#xc7;" horiz-adv-x="574" 
d="M232 -212v64q16 -2 23 -2q61 0 61 47q0 17 -15.5 28t-36.5 11q-10 0 -30 -2v62q23 5 44 5q11 0 27 -2l2 2q-127 34 -201 145q-68 102 -68 230q0 181 107 272q95 81 260 81q41 0 123 -10v-170q-92 15 -112 15q-89 0 -136 -55q-42 -50 -42 -133q0 -98 54 -161
q58 -67 154 -67q44 0 89 9v-165q-117 -9 -116 -9q-45 0 -83 9l-2 -2q67 -22 67 -93q0 -49 -37 -80.5t-92 -31.5q-22 0 -40 3z" />
    <glyph glyph-name="Eacute" unicode="&#xc9;" horiz-adv-x="574" 
d="M512 0h-436q5 115 5 198v316q0 121 -10 198h430l11 -145q-21 0 -64 2.5t-65 2.5h-102v-132h73q33 0 73 2q60 3 74 3v-150l-73 3q-49 2 -74 2h-73v-160h53q50 0 190 20zM337 757l-41 -4l-41 -3q43 62 76 135l139 7q-51 -46 -133 -135z" />
    <glyph glyph-name="Ntilde" unicode="&#xd1;" horiz-adv-x="796" 
d="M271 0h-185q5 97 5 283v170q0 68 -20 259h214q69 -117 139 -235q78 -135 131 -241l2 2l-7 215q-5 156 -15 259h185q-5 -89 -5 -259v-170q0 -163 10 -283l-208 -17l-259 470h-2v-170q0 -88 15 -283zM290 790v0h-75q0 53 18 90q28 55 92 55q35 0 98 -33l30 -18t24 -9
q29 0 29 44h75q0 -54 -23 -94q-29 -50 -83 -50q-36 0 -82 27q-56 33 -68 33q-28 0 -35 -45z" />
    <glyph glyph-name="Odieresis" unicode="&#xd6;" horiz-adv-x="741" 
d="M369 -17q-150 0 -247 107t-97 266q0 173 94 273t250 100q145 0 238 -88q106 -100 106 -285q0 -158 -92 -263q-97 -110 -252 -110zM225 356q0 -84 36 -143q40 -65 108 -65q72 0 111 66q33 57 33 142t-33 142q-38 66 -111 66q-144 0 -144 -208zM235 790v37q0 45 -4 84
l116 8q-5 -50 -5 -92v-30zM398 790v37q0 45 -4 84l116 8q-5 -50 -5 -92v-30z" />
    <glyph glyph-name="Udieresis" unicode="&#xdc;" horiz-adv-x="759" 
d="M501 0l-7 90h-2q-23 -38 -64 -66q-58 -41 -128 -41q-222 0 -222 292v194q0 85 -10 243h220q-10 -85 -10 -243v-164q0 -84 16 -117q18 -40 69 -40q37 0 68 35q40 45 40 122v164q0 85 -10 243h220q-10 -85 -10 -243v-194q0 -132 20 -275h-190zM244 790v37q0 45 -4 84l116 8
q-5 -50 -5 -92v-30zM407 790v37q0 45 -4 84l116 8q-5 -50 -5 -92v-30z" />
    <glyph glyph-name="aacute" unicode="&#xe1;" horiz-adv-x="593" 
d="M397 0l-8 100h-2q-64 -117 -187 -117q-71 0 -121 42.5t-50 112.5q0 99 95 154q79 46 180 46q12 0 35.5 -2.5t35.5 -2.5q0 72 -96 72q-76 0 -182 -26v123q123 23 194 23q123 0 184 -45q70 -51 70 -169v-106q0 -109 15 -205h-163zM375 225v23q-24 5 -54 5q-41 0 -74 -20
q-38 -24 -38 -63q0 -22 19 -37t42 -15q44 0 74.5 31.5t30.5 75.5zM333 575l-41 -4l-41 -3q43 62 76 135l139 7q-51 -46 -133 -135z" />
    <glyph glyph-name="agrave" unicode="&#xe0;" horiz-adv-x="593" 
d="M397 0l-8 100h-2q-64 -117 -187 -117q-71 0 -121 42.5t-50 112.5q0 99 95 154q79 46 180 46q12 0 35.5 -2.5t35.5 -2.5q0 72 -96 72q-76 0 -182 -26v123q123 23 194 23q123 0 184 -45q70 -51 70 -169v-106q0 -109 15 -205h-163zM375 225v23q-24 5 -54 5q-41 0 -74 -20
q-38 -24 -38 -63q0 -22 19 -37t42 -15q44 0 74.5 31.5t30.5 75.5zM332 572l-41 3l-41 4q-17 25 -62 66q-55 51 -71 69l139 -7q33 -73 76 -135z" />
    <glyph glyph-name="acircumflex" unicode="&#xe2;" horiz-adv-x="593" 
d="M397 0l-8 100h-2q-64 -117 -187 -117q-71 0 -121 42.5t-50 112.5q0 99 95 154q79 46 180 46q12 0 35.5 -2.5t35.5 -2.5q0 72 -96 72q-76 0 -182 -26v123q123 23 194 23q123 0 184 -45q70 -51 70 -169v-106q0 -109 15 -205h-163zM375 225v23q-24 5 -54 5q-41 0 -74 -20
q-38 -24 -38 -63q0 -22 19 -37t42 -15q44 0 74.5 31.5t30.5 75.5zM250 550l-110 -5q31 39 89 126l126 7q26 -57 76 -128l-103 -5l-37 65z" />
    <glyph glyph-name="adieresis" unicode="&#xe4;" horiz-adv-x="593" 
d="M397 0l-8 100h-2q-64 -117 -187 -117q-75 0 -123 44.5t-48 110.5q0 99 95 154q78 46 180 46q13 0 37 -2.5t34 -2.5q0 72 -96 72q-76 0 -182 -26v123q123 23 194 23q132 0 193 -51.5t61 -162.5v-106q0 -109 15 -205h-163zM375 225v23q-24 5 -54 5q-44 0 -76 -22
q-36 -23 -36 -61q0 -21 18.5 -36.5t42.5 -15.5q49 0 79 37q26 31 26 70zM161 586v37q0 45 -4 84l116 8q-5 -50 -5 -92v-30zM324 586v37q0 45 -4 84l116 8q-5 -50 -5 -92v-30z" />
    <glyph glyph-name="atilde" unicode="&#xe3;" horiz-adv-x="593" 
d="M397 0l-8 100h-2q-64 -117 -187 -117q-71 0 -121 42.5t-50 112.5q0 99 95 154q79 46 180 46q12 0 35.5 -2.5t35.5 -2.5q0 72 -96 72q-76 0 -182 -26v123q123 23 194 23q123 0 184 -45q70 -51 70 -169v-106q0 -109 15 -205h-163zM375 225v23q-24 5 -54 5q-41 0 -74 -20
q-38 -24 -38 -63q0 -22 19 -37t42 -15q44 0 74.5 31.5t30.5 75.5zM195 593l-54 5q26 94 107 87q20 -2 60 -32q12 -9 37 -20q21 -5 31 29l54 6q-11 -40 -37 -66q-30 -30 -68 -27q-23 2 -56 33q-18 17 -40 16t-34 -31z" />
    <glyph glyph-name="aring" unicode="&#xe5;" horiz-adv-x="593" 
d="M397 0l-8 100h-2q-64 -117 -187 -117q-75 0 -123 44.5t-48 110.5q0 99 95 154q78 46 180 46q13 0 37 -2.5t34 -2.5q0 72 -96 72q-76 0 -182 -26v123q123 23 194 23q132 0 193 -51.5t61 -162.5v-106q0 -109 15 -205h-163zM375 225v23q-24 5 -54 5q-44 0 -76 -22
q-36 -23 -36 -61q0 -21 18.5 -36.5t42.5 -15.5q49 0 79 37q26 31 26 70zM296 571q-48 0 -81.5 34t-33.5 82q0 49 33.5 83.5t81.5 34.5t82 -34.5t34 -83.5q0 -47 -34 -81.5t-82 -34.5zM261 687q0 -15 10.5 -25.5t24.5 -10.5t25 10.5t11 25.5q0 16 -10.5 27t-25.5 11
q-14 0 -24.5 -11t-10.5 -27z" />
    <glyph glyph-name="ccedilla" unicode="&#xe7;" horiz-adv-x="463" 
d="M177 -213v64q16 -2 23 -2q61 0 61 47q0 17 -15.5 28t-36.5 11q-10 0 -30 -2v62q23 5 44 5q8 0 11 -1q-92 27 -147 95q-61 74 -61 180q0 131 98 196q80 55 208 55q33 0 103 -8v-135q-58 8 -86 8q-54 0 -96 -29q-47 -34 -47 -87q0 -68 41 -109q45 -47 133 -47q10 0 29.5 2
t25.5 2v-131q-64 -8 -97 -8q-30 0 -49 4l-2 -2q59 -22 59 -89q0 -49 -37 -80.5t-92 -31.5q-22 0 -40 3z" />
    <glyph glyph-name="eacute" unicode="&#xe9;" horiz-adv-x="574" 
d="M509 140v-140q-94 -17 -147 -17q-146 0 -237 79q-95 83 -95 226q0 107 80 174q75 63 184 63q250 0 250 -272v-33h-324q7 -50 60 -78q44 -24 100 -24q24 0 129 22zM210 310h184q0 33 -14 57q-22 38 -76 38q-41 0 -67.5 -27t-26.5 -68zM336 575l-41 -4l-41 -3q43 62 76 135
l139 7q-51 -46 -133 -135z" />
    <glyph glyph-name="egrave" unicode="&#xe8;" horiz-adv-x="574" 
d="M509 140v-140q-94 -17 -147 -17q-146 0 -237 79q-95 83 -95 226q0 107 80 174q75 63 184 63q250 0 250 -272v-33h-324q7 -50 60 -78q44 -24 100 -24q24 0 129 22zM210 310h184q0 33 -14 57q-22 38 -76 38q-41 0 -67.5 -27t-26.5 -68zM335 572l-41 3l-41 4q-17 25 -62 66
q-55 51 -71 69l139 -7q33 -73 76 -135z" />
    <glyph glyph-name="ecircumflex" unicode="&#xea;" horiz-adv-x="574" 
d="M509 140v-140q-94 -17 -147 -17q-146 0 -237 79q-95 83 -95 226q0 107 80 174q75 63 184 63q250 0 250 -272v-33h-324q7 -50 60 -78q44 -24 100 -24q24 0 129 22zM210 310h184q0 33 -14 57q-22 38 -76 38q-41 0 -67.5 -27t-26.5 -68zM253 550l-110 -5q31 39 89 126l126 7
q26 -57 76 -128l-103 -5l-37 65z" />
    <glyph glyph-name="edieresis" unicode="&#xeb;" horiz-adv-x="574" 
d="M509 140v-140q-94 -17 -147 -17q-153 0 -244 86q-88 83 -88 219q0 104 76 170.5t188 66.5q250 0 250 -272v-33h-324q5 -38 41 -66q45 -36 119 -36q24 0 129 22zM210 310h184q0 32 -14 57q-23 38 -76 38q-49 0 -74 -35q-20 -27 -20 -60zM152 586v37q0 45 -4 84l116 8
q-5 -50 -5 -92v-30zM315 586v37q0 45 -4 84l116 8q-5 -50 -5 -92v-30z" />
    <glyph glyph-name="iacute" unicode="&#xed;" horiz-adv-x="278" 
d="M227 0h-180q5 102 5 177v109q0 71 -10 217l190 10q-10 -132 -10 -227v-88q0 -33 5 -198zM177 565l-41 -4l-41 -3q43 62 76 135l139 7q-51 -46 -133 -135z" />
    <glyph glyph-name="igrave" unicode="&#xec;" horiz-adv-x="278" 
d="M227 0h-180q5 102 5 177v109q0 71 -10 217l190 10q-10 -132 -10 -227v-88q0 -33 5 -198zM177 558l-41 3l-41 4q-17 25 -62 66q-55 51 -71 69l139 -7q33 -73 76 -135z" />
    <glyph glyph-name="icircumflex" unicode="&#xee;" horiz-adv-x="278" 
d="M229 0h-180q5 102 5 177v109q0 71 -10 217l190 10q-10 -132 -10 -227v-88q0 -33 5 -198zM94 577l-137 -6q42 54 57 75q31 42 54 83l157 8q36 -76 96 -160l-129 -6l-47 82z" />
    <glyph glyph-name="idieresis" unicode="&#xef;" horiz-adv-x="278" 
d="M229 0h-180q5 102 5 177v109q0 71 -10 217l190 10q-10 -132 -10 -227v-88q0 -33 5 -198zM4 586v37q0 45 -4 84l116 8q-5 -50 -5 -92v-30zM167 586v37q0 45 -4 84l116 8q-5 -50 -5 -92v-30z" />
    <glyph glyph-name="ntilde" unicode="&#xf1;" 
d="M223 0h-180q5 102 5 177v109q0 77 -25 217l160 10q8 -32 14 -88q82 100 199 100q181 0 181 -239v-137q0 -39 5 -149h-170q-5 60 -5 149v97q0 77 -15 107q-20 37 -76 37q-98 0 -98 -144v-69q0 -29 5 -177zM207 586v0h-75q0 53 18 90q28 55 92 55q35 0 98 -33l30 -18t24 -9
q29 0 29 44h75q0 -54 -23 -94q-29 -50 -83 -50q-36 0 -82 27q-56 33 -68 33q-28 0 -35 -45z" />
    <glyph glyph-name="oacute" unicode="&#xf3;" horiz-adv-x="611" 
d="M308 -17q-125 0 -205 77.5t-80 202.5q0 122 83 194q79 68 202 68q121 0 198 -70q81 -73 81 -192q0 -124 -77.5 -202t-201.5 -78zM203 263q0 -145 105 -145q99 0 99 145q0 127 -99 127q-105 0 -105 -127zM350 575l-41 -4l-41 -3q43 62 76 135l139 7q-51 -46 -133 -135z
" />
    <glyph glyph-name="ograve" unicode="&#xf2;" horiz-adv-x="611" 
d="M308 -17q-125 0 -205 77.5t-80 202.5q0 122 83 194q79 68 202 68q121 0 198 -70q81 -73 81 -192q0 -124 -77.5 -202t-201.5 -78zM203 263q0 -145 105 -145q99 0 99 145q0 127 -99 127q-105 0 -105 -127zM349 572l-41 3l-41 4q-17 25 -62 66q-55 51 -71 69l139 -7
q33 -73 76 -135z" />
    <glyph glyph-name="ocircumflex" unicode="&#xf4;" horiz-adv-x="611" 
d="M308 -17q-125 0 -205 77.5t-80 202.5q0 122 83 194q79 68 202 68q121 0 198 -70q81 -73 81 -192q0 -124 -77.5 -202t-201.5 -78zM203 263q0 -145 105 -145q99 0 99 145q0 127 -99 127q-105 0 -105 -127zM267 550l-110 -5q31 39 89 126l126 7q26 -57 76 -128l-103 -5
l-37 65z" />
    <glyph glyph-name="odieresis" unicode="&#xf6;" horiz-adv-x="611" 
d="M308 -17q-131 0 -210 83q-75 78 -75 197q0 122 84 194q79 68 201 68q123 0 201 -73t78 -189q0 -124 -78 -202t-201 -78zM203 263q0 -145 105 -145q99 0 99 145q0 127 -99 127q-105 0 -105 -127zM170 586v37q0 45 -4 84l116 8q-5 -50 -5 -92v-30zM333 586v37q0 45 -4 84
l116 8q-5 -50 -5 -92v-30z" />
    <glyph glyph-name="otilde" unicode="&#xf5;" horiz-adv-x="611" 
d="M308 -17q-125 0 -205 77.5t-80 202.5q0 122 83 194q79 68 202 68q121 0 198 -70q81 -73 81 -192q0 -124 -77.5 -202t-201.5 -78zM203 263q0 -145 105 -145q99 0 99 145q0 127 -99 127q-105 0 -105 -127zM212 593l-54 5q26 94 107 87q20 -2 60 -32q12 -9 37 -20
q21 -5 31 29l54 6q-11 -40 -37 -66q-30 -30 -68 -27q-23 2 -56 33q-18 17 -40 16t-34 -31z" />
    <glyph glyph-name="uacute" unicode="&#xfa;" 
d="M415 0l-4 74q-40 -42 -66 -59q-49 -32 -111 -32q-102 0 -144 67q-35 54 -35 163v122q0 73 -10 168l190 10q-10 -118 -10 -178v-72q0 -74 14 -104q19 -41 77 -41q89 0 89 145v72q0 73 -10 168l190 10q-10 -120 -10 -178v-143q0 -60 10 -192h-170zM357 525l-41 -4l-41 -3
q43 62 76 135l139 7q-51 -46 -133 -135z" />
    <glyph glyph-name="ugrave" unicode="&#xf9;" 
d="M415 0l-4 74q-40 -42 -66 -59q-49 -32 -111 -32q-102 0 -144 67q-35 54 -35 163v122q0 73 -10 168l190 10q-10 -118 -10 -178v-72q0 -74 14 -104q19 -41 77 -41q89 0 89 145v72q0 73 -10 168l190 10q-10 -120 -10 -178v-143q0 -60 10 -192h-170zM357 518l-41 3l-41 4
q-17 25 -62 66q-55 51 -71 69l139 -7q33 -73 76 -135z" />
    <glyph glyph-name="ucircumflex" unicode="&#xfb;" 
d="M415 0l-4 74q-41 -43 -66 -59q-49 -32 -111 -32q-95 0 -137 56t-42 174v122q0 73 -10 168l190 10q-10 -118 -10 -178v-72q0 -75 14 -104q19 -41 77 -41q89 0 89 145v72q0 73 -10 168l190 10q-10 -120 -10 -178v-143q0 -60 10 -192h-170zM270 577l-137 -6q42 54 57 75
q31 42 54 83l157 8q36 -76 96 -160l-129 -6l-47 82z" />
    <glyph glyph-name="udieresis" unicode="&#xfc;" 
d="M415 0l-4 74q-41 -43 -66 -59q-49 -32 -111 -32q-95 0 -137 56t-42 174v122q0 73 -10 168l190 10q-10 -118 -10 -178v-72q0 -75 14 -104q19 -41 77 -41q89 0 89 145v72q0 73 -10 168l190 10q-10 -120 -10 -178v-143q0 -60 10 -192h-170zM180 586v37q0 45 -4 84l116 8
q-5 -50 -5 -92v-30zM343 586v37q0 45 -4 84l116 8q-5 -50 -5 -92v-30z" />
    <glyph glyph-name="degree" unicode="&#xb0;" 
d="M314 352q-77 0 -132 55t-55 133t54.5 133.5t132.5 55.5t133 -55.5t55 -133.5t-55.5 -133t-132.5 -55zM252 540q0 -26 18 -44.5t44 -18.5t44.5 18.5t18.5 44.5t-18 45t-45 19q-25 0 -43.5 -19t-18.5 -45z" />
    <glyph glyph-name="registered" unicode="&#xae;" horiz-adv-x="500" 
d="M250 258q-97 0 -166 69.5t-69 166.5t69 166t166 69t166 -69t69 -166q0 -98 -69 -167t-166 -69zM50 494q0 -82 59 -141t141 -59q83 0 141.5 59t58.5 141t-58.5 140.5t-141.5 58.5t-141.5 -58.5t-58.5 -140.5zM161 376v248h83q101 0 101 -80q0 -42 -43 -61l46 -107h-50
l-38 100h-54v-100h-45zM206 581v-65h54q38 0 38 32q0 33 -42 33h-50z" />
    <glyph glyph-name="copyright" unicode="&#xa9;" horiz-adv-x="500" 
d="M250 258q-97 0 -166 69.5t-69 166.5t69 166t166 69t166 -69t69 -166q0 -98 -69 -167t-166 -69zM50 494q0 -82 59 -141t141 -59q83 0 141.5 59t58.5 141t-58.5 140.5t-141.5 58.5t-141.5 -58.5t-58.5 -140.5zM331 435l26 -32q-43 -39 -95 -39q-55 0 -96 38.5t-41 95.5
q0 56 41 95t96 39q34 0 63 -16q5 -3 32 -23l-26 -33q-34 31 -69 31t-63 -24q-30 -27 -30 -69q0 -43 30 -70q27 -23 59 -23q38 0 73 30z" />
    <glyph glyph-name="trademark" unicode="&#x2122;" horiz-adv-x="611" 
d="M113 422v248h-73v42h190v-42h-73v-248h-44zM263 422v290h80l48 -229h2l49 229h80v-290h-44v261h-2l-57 -261h-53l-58 261h-2v-261h-43z" />
    <glyph glyph-name="plusminus" unicode="&#xb1;" horiz-adv-x="1000" 
d="M586 -17l-182 -13q6 77 6 175v59h-59q-17 0 -135 -10l7 180h187v59q0 21 -6 129l182 13q-6 -96 -6 -142v-59h59q44 0 146 10l-7 -180h-198v-59q0 -40 6 -162zM214 -270l5 180h334q146 0 230 10l-5 -180h-357q-114 0 -207 -10z" />
    <glyph glyph-name="mu" unicode="&#xb5;" 
d="M235 -218l-185 -10q5 123 5 244v328q0 49 -10 159l190 10q-1 -11 -6 -82q-4 -50 -4 -87v-73q0 -79 14 -110q19 -43 77 -43q89 0 89 153v73q0 49 -10 159l190 10q-1 -11 -6 -82q-4 -50 -4 -87v-177q0 -49 10 -167h-170l-4 70q-35 -43 -53 -57q-39 -30 -89 -30
q-27 0 -44 13v-52q0 -27 10 -162z" />
    <glyph glyph-name="mu" unicode="&#x3bc;" 
d="M235 -218l-185 -10q5 123 5 244v328q0 49 -10 159l190 10q-1 -11 -6 -82q-4 -50 -4 -87v-73q0 -79 14 -110q19 -43 77 -43q89 0 89 153v73q0 49 -10 159l190 10q-1 -11 -6 -82q-4 -50 -4 -87v-177q0 -49 10 -167h-170l-4 70q-35 -43 -53 -57q-39 -30 -89 -30
q-27 0 -44 13v-52q0 -27 10 -162z" />
    <glyph glyph-name="logicalnot" unicode="&#xac;" horiz-adv-x="1000" 
d="M783 153l-182 -13q6 77 6 175v59h-257q-17 0 -135 -10l7 180h416q43 0 145 10q-6 -153 -6 -150v-89q0 -40 6 -162z" />
    <glyph glyph-name="Agrave" unicode="&#xc0;" horiz-adv-x="722" 
d="M198 0h-192q27 63 94 240l63 178q59 166 75 278l238 33q10 -109 69 -284l68 -201q24 -72 102 -244h-214q-19 56 -55 170h-201q-33 -109 -47 -170zM279 290h136q-12 45 -35 136q-17 67 -28 148h-2q-19 -121 -71 -284zM392 763l-41 3l-41 4q-17 25 -62 66q-55 51 -71 69
l139 -7q33 -73 76 -135z" />
    <glyph glyph-name="Atilde" unicode="&#xc3;" horiz-adv-x="722" 
d="M198 0h-192q27 63 94 240l63 178q59 166 75 278l238 33q10 -109 69 -284l68 -201q24 -72 102 -244h-214q-19 56 -55 170h-201q-33 -109 -47 -170zM279 290h136q-12 45 -35 136q-17 67 -28 148h-2q-19 -121 -71 -284zM254 778l-54 5q26 94 107 87q20 -2 60 -32
q12 -9 37 -20q21 -5 31 29l54 6q-11 -40 -37 -66q-30 -30 -68 -27q-23 2 -56 33q-18 17 -40 16t-34 -31z" />
    <glyph glyph-name="Otilde" unicode="&#xd5;" horiz-adv-x="741" 
d="M369 -17q-154 0 -251 111q-93 106 -93 262q0 166 88 267q93 106 256 106t256 -106q88 -101 88 -267q0 -159 -92 -263q-96 -110 -252 -110zM225 356q0 -79 32 -137q40 -71 112 -71q75 0 113 70q31 56 31 138t-31 138q-38 70 -113 70q-144 0 -144 -208zM273 789l-54 5
q26 94 107 87q20 -2 60 -32q12 -9 37 -20q21 -5 31 29l54 6q-11 -40 -37 -66q-30 -30 -68 -27q-23 2 -56 33q-18 17 -40 16t-34 -31z" />
    <glyph glyph-name="divide" unicode="&#xf7;" horiz-adv-x="1000" 
d="M598 -30v0l-195 -12q7 79 7 139v32l180 11v-36q0 -56 8 -134zM215 194v0l5 180h334q146 0 230 10l-5 -180h-357q-114 0 -207 -10zM402 608v0l195 12q-7 -79 -7 -139v-32l-180 -11v36q0 56 -8 134z" />
    <glyph glyph-name="ydieresis" unicode="&#xff;" horiz-adv-x="611" 
d="M327 -216l-206 -12q36 64 69 159l26 74l-69 175q-68 173 -156 323l204 10q83 -196 115 -361h2q8 63 44 186q39 136 45 165l195 10q-41 -98 -112 -276l-80 -215q-48 -129 -77 -238zM170 586v37q0 45 -4 84l116 8q-5 -50 -5 -92v-30zM333 586v37q0 45 -4 84l116 8
q-5 -50 -5 -92v-30z" />
    <glyph glyph-name="Ydieresis" unicode="&#x178;" horiz-adv-x="667" 
d="M451 0h-210q5 98 5 172v122l-115 206q-48 87 -136 207l218 10q63 -105 101 -183l45 -93l38 79q26 53 75 187l201 10l-227 -426v-119q0 -39 5 -172zM198 790v37q0 45 -4 84l116 8q-5 -50 -5 -92v-30zM361 790v37q0 45 -4 84l116 8q-5 -50 -5 -92v-30z" />
    <glyph glyph-name="Acircumflex" unicode="&#xc2;" horiz-adv-x="722" 
d="M198 0h-192q27 63 94 240l63 178q59 166 75 278l238 33q10 -109 69 -284l68 -201q24 -72 102 -244h-214q-19 56 -55 170h-201q-33 -109 -47 -170zM279 290h136q-12 45 -35 136q-17 67 -28 148h-2q-19 -121 -71 -284zM309 745l-110 -5q31 39 89 126l126 7q26 -57 76 -128
l-103 -5l-37 65z" />
    <glyph glyph-name="Ecircumflex" unicode="&#xca;" horiz-adv-x="574" 
d="M512 0h-436q5 115 5 198v316q0 121 -10 198h430l11 -145q-21 0 -64 2.5t-65 2.5h-102v-132h73q33 0 73 2q60 3 74 3v-150l-73 3q-49 2 -74 2h-73v-160h53q50 0 190 20zM255 745l-110 -5q31 39 89 126l126 7q26 -57 76 -128l-103 -5l-37 65z" />
    <glyph glyph-name="Aacute" unicode="&#xc1;" horiz-adv-x="722" 
d="M198 0h-192q27 63 94 240l63 178q59 166 75 278l238 33q10 -109 69 -284l68 -201q24 -72 102 -244h-214q-19 56 -55 170h-201q-33 -109 -47 -170zM279 290h136q-12 45 -35 136q-17 67 -28 148h-2q-19 -121 -71 -284zM391 770l-41 -4l-41 -3q43 62 76 135l139 7
q-51 -46 -133 -135z" />
    <glyph glyph-name="Edieresis" unicode="&#xcb;" horiz-adv-x="574" 
d="M512 0h-436q5 115 5 198v316q0 121 -10 198h430l11 -145q-17 0 -64 3q-42 2 -65 2h-102v-132h73q27 0 73 2q54 3 74 3v-150l-73 3q-49 2 -74 2h-73v-160h53q50 0 190 20zM152 790v37q0 45 -4 84l116 8q-5 -50 -5 -92v-30zM315 790v37q0 45 -4 84l116 8q-5 -50 -5 -92v-30
z" />
    <glyph glyph-name="Egrave" unicode="&#xc8;" horiz-adv-x="574" 
d="M512 0h-436q5 115 5 198v316q0 121 -10 198h430l11 -145q-21 0 -64 2.5t-65 2.5h-102v-132h73q33 0 73 2q60 3 74 3v-150l-73 3q-49 2 -74 2h-73v-160h53q50 0 190 20zM337 750l-41 3l-41 4q-17 25 -62 66q-55 51 -71 69l139 -7q33 -73 76 -135z" />
    <glyph glyph-name="Iacute" unicode="&#xcd;" horiz-adv-x="370" 
d="M300 0h-225q5 115 5 198v316q0 121 -10 198h220q-10 -63 -10 -198v-266q0 -47 8 -123q11 -104 12 -125zM218 760l-41 -4l-41 -3q43 62 76 135l139 7q-51 -46 -133 -135z" />
    <glyph glyph-name="Icircumflex" unicode="&#xce;" horiz-adv-x="370" 
d="M300 0h-225q5 115 5 198v316q0 121 -10 198h220q-10 -63 -10 -198v-266q0 -48 8 -123q11 -106 12 -125zM140 781l-137 -6q42 54 57 75q31 42 54 83l157 8q36 -76 96 -160l-129 -6l-47 82z" />
    <glyph glyph-name="Idieresis" unicode="&#xcf;" horiz-adv-x="370" 
d="M300 0h-225q5 115 5 198v316q0 121 -10 198h220q-10 -63 -10 -198v-266q0 -48 8 -123q11 -106 12 -125zM50 790v37q0 45 -4 84l116 8q-5 -50 -5 -92v-30zM213 790v37q0 45 -4 84l116 8q-5 -50 -5 -92v-30z" />
    <glyph glyph-name="Igrave" unicode="&#xcc;" horiz-adv-x="370" 
d="M300 0h-225q5 115 5 198v316q0 121 -10 198h220q-10 -63 -10 -198v-266q0 -47 8 -123q11 -104 12 -125zM217 753l-41 3l-41 4q-17 25 -62 66q-55 51 -71 69l139 -7q33 -73 76 -135z" />
    <glyph glyph-name="Oacute" unicode="&#xd3;" horiz-adv-x="741" 
d="M369 -17q-154 0 -251 111q-93 106 -93 262q0 166 88 267q93 106 256 106t256 -106q88 -101 88 -267q0 -159 -92 -263q-96 -110 -252 -110zM225 356q0 -79 32 -137q40 -71 112 -71q75 0 113 70q31 56 31 138t-31 138q-38 70 -113 70q-144 0 -144 -208zM410 773l-41 -4
l-41 -3q43 62 76 135l139 7q-51 -46 -133 -135z" />
    <glyph glyph-name="Ocircumflex" unicode="&#xd4;" horiz-adv-x="741" 
d="M369 -17q-154 0 -251 111q-93 106 -93 262q0 166 88 267q93 106 256 106t256 -106q88 -101 88 -267q0 -159 -92 -263q-96 -110 -252 -110zM225 356q0 -79 32 -137q40 -71 112 -71q75 0 113 70q31 56 31 138t-31 138q-38 70 -113 70q-144 0 -144 -208zM328 755l-110 -5
q31 39 89 126l126 7q26 -57 76 -128l-103 -5l-37 65z" />
    <glyph glyph-name="Ograve" unicode="&#xd2;" horiz-adv-x="741" 
d="M369 -17q-154 0 -251 111q-93 106 -93 262q0 166 88 267q93 106 256 106t256 -106q88 -101 88 -267q0 -159 -92 -263q-96 -110 -252 -110zM225 356q0 -79 32 -137q40 -71 112 -71q75 0 113 70q31 56 31 138t-31 138q-38 70 -113 70q-144 0 -144 -208zM410 766l-41 3
l-41 4q-17 25 -62 66q-55 51 -71 69l139 -7q33 -73 76 -135z" />
    <glyph glyph-name="Uacute" unicode="&#xda;" horiz-adv-x="759" 
d="M501 0l-7 90h-2q-22 -37 -64 -66q-59 -41 -128 -41q-222 0 -222 292v194q0 85 -10 243h220q-10 -85 -10 -243v-164q0 -72 10 -102q19 -55 75 -55q52 0 82 55q26 46 26 102v164q0 85 -10 243h220q-10 -85 -10 -243v-194q0 -132 20 -275h-190zM418 730l-41 -4l-41 -3
q43 62 76 135l139 7q-51 -46 -133 -135z" />
    <glyph glyph-name="Ucircumflex" unicode="&#xdb;" horiz-adv-x="759" 
d="M501 0l-7 90h-2q-23 -38 -64 -66q-58 -41 -128 -41q-222 0 -222 292v194q0 85 -10 243h220q-10 -85 -10 -243v-164q0 -84 16 -117q18 -40 69 -40q37 0 68 35q40 45 40 122v164q0 85 -10 243h220q-10 -85 -10 -243v-194q0 -132 20 -275h-190zM334 781l-137 -6q42 54 57 75
q31 42 54 83l157 8q36 -76 96 -160l-129 -6l-47 82z" />
    <glyph glyph-name="Ugrave" unicode="&#xd9;" horiz-adv-x="759" 
d="M501 0l-7 90h-2q-22 -37 -64 -66q-59 -41 -128 -41q-222 0 -222 292v194q0 85 -10 243h220q-10 -85 -10 -243v-164q0 -72 10 -102q19 -55 75 -55q52 0 82 55q26 46 26 102v164q0 85 -10 243h220q-10 -85 -10 -243v-194q0 -132 20 -275h-190zM418 723l-41 3l-41 4
q-17 25 -62 66q-55 51 -71 69l139 -7q33 -73 76 -135z" />
    <glyph glyph-name="glyph231" horiz-adv-x="278" 
 />
    <glyph glyph-name="glyph232" horiz-adv-x="278" 
 />
    <glyph glyph-name="sfthyphen" unicode="&#xad;" horiz-adv-x="338" 
d="M8 174l33 122h246l-33 -122h-246z" />
    <glyph glyph-name="Cacute" unicode="&#x106;" horiz-adv-x="711" 
d="M535 157v-165q-117 -9 -116 -9q-178 0 -285 125q-96 112 -96 268q0 181 107 272q95 81 260 81q41 0 123 -10v-170q-92 15 -112 15q-89 0 -136 -55q-42 -50 -42 -133q0 -98 54 -161q58 -67 154 -67q44 0 89 9zM399 835l-128 -9q69 97 96 157l154 9q-47 -53 -122 -157z" />
    <glyph glyph-name="cacute" unicode="&#x107;" horiz-adv-x="441" 
d="M435 122v-131q-64 -8 -97 -8q-127 0 -215 74q-97 81 -97 217q0 131 98 196q80 55 208 55q33 0 103 -8v-135q-58 8 -86 8q-54 0 -96 -29q-47 -34 -47 -87q0 -68 41 -109q45 -47 133 -47q10 0 29.5 2t25.5 2zM200 580l-128 -9q69 97 96 157l154 9q-47 -53 -122 -157z" />
    <glyph glyph-name="Ccaron" unicode="&#x10c;" horiz-adv-x="711" 
d="M535 157v-165q-117 -9 -116 -9q-178 0 -285 125q-96 112 -96 268q0 181 107 272q95 81 260 81q41 0 123 -10v-170q-92 15 -112 15q-89 0 -136 -55q-42 -50 -42 -133q0 -98 54 -161q58 -67 154 -67q44 0 89 9zM470 834l-157 -8q-36 76 -96 160l129 6l47 -82l51 76l137 6
q-42 -54 -57 -74q-31 -43 -54 -84z" />
    <glyph glyph-name="ccaron" unicode="&#x10d;" horiz-adv-x="441" 
d="M435 122v-131q-64 -8 -97 -8q-127 0 -215 74q-97 81 -97 217q0 131 98 196q80 55 208 55q33 0 103 -8v-135q-58 8 -86 8q-54 0 -96 -29q-47 -34 -47 -87q0 -68 41 -109q45 -47 133 -47q10 0 29.5 2t25.5 2zM271 579l-157 -8q-36 76 -96 160l129 6l47 -82l51 76l137 6
q-42 -54 -57 -74q-31 -43 -54 -84z" />
    <glyph glyph-name="Dslash" unicode="&#x110;" horiz-adv-x="759" 
d="M302 303v-138q50 -5 63 -5q160 0 160 178q0 93 -40 151q-47 68 -135 68q-28 0 -48 -5v-119h94v-130h-94zM191 0h-94q5 115 5 198v105h-80v130h80v81q0 121 -10 198h99q27 0 80.5 5t80.5 5q373 0 373 -396q0 -159 -97 -246q-93 -85 -253 -85q-31 0 -92 2.5t-92 2.5z" />
    <glyph glyph-name="dcroat" unicode="&#x111;" horiz-adv-x="648" 
d="M216 262q0 -59 26 -98q31 -46 87 -46q52 0 82 43q26 37 26 92q0 57 -28 95q-31 42 -86 42q-53 0 -81 -39q-26 -34 -26 -89zM437 576l-149 1l-4 48l151 2q-5 78 -18 134l200 12l-9 -145q12 1 42 1l-3 -54h-40v-344q0 -99 10 -231h-170l-6 58q-33 -34 -56 -48
q-45 -27 -104 -27q-110 0 -180 84q-65 79 -65 192q0 114 66 188q68 78 181 78q79 0 154 -52v103z" />
    <glyph glyph-name="Gbreve" unicode="&#x11e;" horiz-adv-x="767" 
d="M612 326v-330q-106 -13 -149 -13q-193 0 -305 94q-122 102 -122 293q0 159 99 256q106 103 299 103q55 0 132 -14v-165q-72 14 -123 14q-87 0 -144 -47q-63 -52 -63 -143q0 -94 57 -161q54 -65 126 -65h18v178h175zM478 983l84 9q0 -4 1 -12v-12q0 -58 -43.5 -100
t-99.5 -42q-59 0 -102.5 42t-43.5 96q0 3 1 10v9l86 9q-2 -16 -2 -24q0 -27 16 -44.5t41 -17.5q27 0 44.5 15.5t17.5 40.5v21z" />
    <glyph glyph-name="gbreve" unicode="&#x11f;" horiz-adv-x="492" 
d="M601 270v-216q0 -171 -85 -237q-72 -56 -244 -56q-95 0 -203 22v140q149 -27 200 -27q108 0 143 38q27 29 27 114v26h-2q-26 -34 -51 -48q-45 -26 -121 -26q-109 0 -174 76t-65 194q0 117 72 188q67 67 168 67q66 0 120 -29q23 -12 62 -46l11 53l162 10
q-20 -155 -20 -243zM206 270q0 -57 32.5 -96t82.5 -39q49 0 79.5 34t30.5 86q0 61 -29.5 98t-82.5 37q-54 0 -85 -37q-28 -33 -28 -83zM278 728l84 9q0 -4 1 -12v-12q0 -58 -43.5 -100t-99.5 -42q-59 0 -102.5 42t-43.5 96q0 3 1 10v9l86 9q-2 -16 -2 -24q0 -27 16 -44.5
t41 -17.5q27 0 44.5 15.5t17.5 40.5v21z" />
    <glyph glyph-name="Idotaccent" unicode="&#x130;" horiz-adv-x="429" 
d="M300 0h-225q5 115 5 198v316q0 121 -10 198h220q-10 -63 -10 -198v-266q0 -48 8 -123q11 -106 12 -125zM195 841v37q0 45 -4 84l116 8q-5 -50 -5 -92v-30z" />
    <glyph glyph-name="Scedilla" unicode="&#x15e;" horiz-adv-x="656" 
d="M491 708v-135q-101 16 -134 16q-133 0 -133 -62q0 -28 31 -48q23 -15 119 -56q77 -32 115 -67q65 -59 65 -149q0 -96 -72.5 -160t-187.5 -64q-88 0 -228 39v157q129 -46 214 -46q84 0 84 70q0 27 -43 50q-26 14 -103 42q-81 29 -125 89t-44 136q0 103 91 161
q77 48 181 48q72 0 170 -21zM179 -67v62q23 5 44 5q56 0 89.5 -28.5t33.5 -75.5q0 -49 -37 -80.5t-92 -31.5q-22 0 -40 3v64q16 -2 23 -2q61 0 61 47q0 17 -15.5 28t-36.5 11q-10 0 -30 -2z" />
    <glyph glyph-name="scedilla" unicode="&#x15f;" horiz-adv-x="383" 
d="M253 333l77 -41q39 -21 66 -57q32 -42 32 -88q0 -80 -68 -125q-60 -39 -146 -39q-72 0 -179 25v135q108 -30 163 -30q60 0 60 25q0 19 -46 41l-57 27q-125 59 -125 163q0 69 57.5 112.5t150.5 43.5q55 0 132 -12v-115q-76 17 -110 17q-22 0 -39 -9q-21 -11 -21 -31
q0 -14 53 -42zM82 -67v62q23 5 44 5q56 0 89.5 -28.5t33.5 -75.5q0 -49 -37 -80.5t-92 -31.5q-22 0 -40 3v64q16 -2 23 -2q61 0 61 47q0 17 -15.5 28t-36.5 11q-10 0 -30 -2z" />
    <glyph glyph-name="franc" unicode="&#x20a3;" horiz-adv-x="1035" 
d="M286 0h-210q5 115 5 198v316q0 121 -10 198h430l11 -145q-17 0 -64 3q-42 2 -65 2h-102v-147h73q27 0 74 2q53 3 73 3v-150q-120 5 -147 5h-73v-87q0 -25 5 -198zM883 0h-180q5 102 5 177v109q0 77 -25 217l160 10q13 -54 13 -88h2q34 50 71.5 73t98.5 27v-157
q-24 7 -42 7q-108 0 -108 -114v-84q0 -29 5 -177z" />
    <glyph glyph-name="u20AB" unicode="&#x20ab;" horiz-adv-x="393" 
d="M197 501q-48 0 -84 -88q-20 -49 -20 -90q0 -51 39 -51q41 0 74 71q28 60 28 107q0 51 -37 51zM200 267q-53 -62 -106 -62q-45 0 -68 28t-23 74q0 80 55 153q59 78 136 78q34 0 61 -24l20 75h-100l10 36h100l2 16q0 31 -48 32l7 33q67 2 128 14l15 3q6 0 6 -9l-3 -12
l-19 -77h65l-10 -36h-65l-69 -280q-5 -20 -5 -27q0 -15 12 -15q6 0 49 42l20 -18q-70 -86 -117 -86q-43 0 -53 62zM9 160h221v-56h-221v56z" />
    <glyph glyph-name="SF370000" unicode="&#x255f;" horiz-adv-x="718" 
d="M198 0h-192q29 70 94 240l63 178q59 168 75 278l238 33q10 -111 69 -284l68 -201q23 -69 102 -244h-214q-19 56 -55 170h-201q-33 -109 -47 -170zM279 290h136q-17 68 -35 136q-18 77 -28 148h-2q-19 -121 -71 -284z" />
    <glyph glyph-name="SF420000" unicode="&#x2560;" horiz-adv-x="681" 
d="M512 0h-436q5 115 5 198v316q0 121 -10 198h430l11 -145q-17 0 -64 3q-42 2 -65 2h-102v-132h73q27 0 73 2q54 3 74 3v-150l-73 3q-49 2 -74 2h-73v-160h53q50 0 190 20z" />
    <glyph glyph-name="SF190000" unicode="&#x2561;" horiz-adv-x="429" 
d="M300 0h-225q5 115 5 198v316q0 121 -10 198h220q-10 -63 -10 -198v-266q0 -48 8 -123q11 -106 12 -125z" />
    <glyph glyph-name="SF200000" unicode="&#x2562;" horiz-adv-x="773" 
d="M369 -17q-150 0 -247 107t-97 266q0 173 94 273t250 100q145 0 238 -88q106 -100 106 -285q0 -158 -92 -263q-97 -110 -252 -110zM225 356q0 -84 36 -143q40 -65 108 -65q72 0 111 66q33 57 33 142t-33 142q-38 66 -111 66q-144 0 -144 -208z" />
    <glyph glyph-name="SF230000" unicode="&#x2563;" horiz-adv-x="811" 
d="M501 0l-7 90h-2q-23 -38 -64 -66q-58 -41 -128 -41q-222 0 -222 292v194q0 85 -10 243h220q-10 -85 -10 -243v-164q0 -84 16 -117q18 -40 69 -40q37 0 68 35q40 45 40 122v164q0 85 -10 243h220q-10 -85 -10 -243v-194q0 -132 20 -275h-190z" />
    <glyph glyph-name="SF470000" unicode="&#x2564;" horiz-adv-x="699" 
d="M451 0h-210q5 98 5 172v122l-115 206q-48 87 -136 207l218 10q63 -105 101 -183l45 -93l38 79q26 53 75 187l201 10l-227 -426v-119q0 -39 5 -172z" />
    <glyph glyph-name="SF480000" unicode="&#x2565;" horiz-adv-x="541" 
d="M397 0l-8 100h-2q-64 -117 -187 -117q-75 0 -123 44.5t-48 110.5q0 99 95 154q78 46 180 46q13 0 37 -2.5t34 -2.5q0 72 -96 72q-76 0 -182 -26v123q123 23 194 23q132 0 193 -51.5t61 -162.5v-106q0 -109 15 -205h-163zM375 225v23q-24 5 -54 5q-44 0 -76 -22
q-36 -23 -36 -61q0 -21 18.5 -36.5t42.5 -15.5q49 0 79 37q26 31 26 70z" />
    <glyph glyph-name="SF410000" unicode="&#x2566;" horiz-adv-x="431" 
d="M509 140v-140q-94 -17 -147 -17q-153 0 -244 86q-88 83 -88 219q0 104 76 170.5t188 66.5q250 0 250 -272v-33h-324q5 -38 41 -66q45 -36 119 -36q24 0 129 22zM210 310h184q0 32 -14 57q-23 38 -76 38q-49 0 -74 -35q-20 -27 -20 -60z" />
    <glyph glyph-name="SF450000" unicode="&#x2567;" horiz-adv-x="314" 
d="M227 0h-180q5 102 5 177v109q0 71 -10 217l190 10q-10 -132 -10 -227v-88q0 -33 5 -198zM53 598v77q0 44 -10 99l193 14q-3 -61 -3 -113v-68z" />
    <glyph glyph-name="SF460000" unicode="&#x2568;" horiz-adv-x="314" 
d="M229 0h-180q5 102 5 177v109q0 71 -10 217l190 10q-10 -132 -10 -227v-88q0 -33 5 -198z" />
    <glyph glyph-name="SF400000" unicode="&#x2569;" horiz-adv-x="498" 
d="M308 -17q-131 0 -210 83q-75 78 -75 197q0 122 84 194q79 68 201 68q123 0 201 -73t78 -189q0 -124 -78 -202t-201 -78zM203 263q0 -145 105 -145q99 0 99 145q0 127 -99 127q-105 0 -105 -127z" />
    <glyph glyph-name="SF540000" unicode="&#x256a;" horiz-adv-x="557" 
d="M415 0l-4 74q-41 -43 -66 -59q-49 -32 -111 -32q-95 0 -137 56t-42 174v122q0 73 -10 168l190 10q-10 -118 -10 -178v-72q0 -75 14 -104q19 -41 77 -41q89 0 89 145v72q0 73 -10 168l190 10q-10 -120 -10 -178v-143q0 -60 10 -192h-170z" />
    <glyph glyph-name="SF530000" unicode="&#x256b;" horiz-adv-x="497" 
d="M327 -216l-206 -12q36 64 69 159l26 74l-69 175q-68 173 -156 323l204 10q83 -196 115 -361h2q8 63 44 186q39 136 45 165l195 10q-41 -98 -112 -276l-80 -215q-48 -129 -77 -238z" />
    <glyph glyph-name="circle" unicode="&#x25cb;" horiz-adv-x="718" 
d="M405 809l-137 -6q42 54 57 75q31 42 54 83l157 8q36 -76 96 -160l-129 -6l-47 82zM424 1000l-128 -9q69 97 96 157l154 9q-47 -53 -122 -157z" />
    <glyph glyph-name="H18533" unicode="&#x25cf;" horiz-adv-x="718" 
d="M405 809l-137 -6q42 54 57 75q31 42 54 83l157 8q36 -76 96 -160l-129 -6l-47 82zM657 1003l-124 -11q-26 43 -62 84l-64 70l143 12q29 -47 107 -155z" />
    <glyph glyph-name="invbullet" unicode="&#x25d8;" horiz-adv-x="718" 
d="M405 809l-137 -6q42 54 57 75q31 42 54 83l157 8q36 -76 96 -160l-129 -6l-47 82zM614 903q9 29 11 64q1 11 8 13q3 0 8 1q67 11 67 54q0 35 -28 35q-5 0 -14 -1t-14 -1q-21 0 -21 18q0 28 32 28q46 0 76 -25.5t26 -70.5q-6 -59 -87 -81q-25 -7 -31 -34h-33z" />
    <glyph glyph-name="invcircle" unicode="&#x25d9;" horiz-adv-x="718" 
d="M405 809l-137 -6q42 54 57 75q31 42 54 83l157 8q36 -76 96 -160l-129 -6l-47 82zM389 1006v0h-75q0 53 18 90q28 55 92 55q35 0 98 -33l30 -18t24 -9q29 0 29 44h75q0 -54 -23 -94q-29 -50 -83 -50q-36 0 -82 27q-56 33 -68 33q-28 0 -35 -45z" />
    <glyph glyph-name="glyph275" horiz-adv-x="249" 
 />
    <glyph glyph-name="glyph276" horiz-adv-x="249" 
 />
    <glyph glyph-name="ch270" unicode="&#xb7;" horiz-adv-x="249" 
d="M38 348q0 34 23 57t57 23t57.5 -23t23.5 -57t-23.5 -57.5t-57.5 -23.5t-57 23.5t-23 57.5z" />
    <glyph glyph-name="ch270" unicode="&#x2219;" horiz-adv-x="249" 
d="M38 348q0 34 23 57t57 23t57.5 -23t23.5 -57t-23.5 -57.5t-57.5 -23.5t-57 23.5t-23 57.5z" />
    <glyph glyph-name="euro" horiz-adv-x="498" 
d="M522 633l-23 -156l-48 6q0 157 -94 157q-103 0 -161 -211h172l-21 -48h-164q-6 -24 -16 -73h147l-21 -47h-134q-6 -41 -6 -74q0 -56 21 -91q26 -43 78 -43q58 0 101 68q24 38 51 119l55 -10l-54 -188q-77 -53 -159 -53q-111 0 -166 84q-47 71 -47 188h-74l21 47h56
q3 25 12 73h-66l21 48h59q41 112 108 183q83 88 187 88q94 0 165 -67z" />
    <glyph glyph-name="glyph261" horiz-adv-x="500" 
d="M253 522q9 29 11 64q1 11 8 13q3 0 8 1q67 11 67 54q0 35 -28 35q-5 0 -14 -1t-14 -1q-21 0 -21 18q0 28 32 28q46 0 76 -25.5t26 -70.5q-6 -59 -87 -81q-25 -7 -31 -34h-33z" />
    <glyph glyph-name="glyph262" horiz-adv-x="541" 
d="M202 577l-137 -6q42 54 57 75q31 42 54 83l157 8q36 -76 96 -160l-129 -6l-47 82zM220 769l-128 -9q69 97 96 157l154 9q-47 -53 -122 -157z" />
    <glyph glyph-name="glyph263" horiz-adv-x="541" 
d="M202 577l-137 -6q42 54 57 75q31 42 54 83l157 8q36 -76 96 -160l-129 -6l-47 82zM454 771l-124 -11q-26 43 -62 84l-64 70l143 12q29 -47 107 -155z" />
    <glyph glyph-name="glyph264" horiz-adv-x="541" 
d="M202 577l-137 -6q42 54 57 75q31 42 54 83l157 8q36 -76 96 -160l-129 -6l-47 82zM411 671q9 29 11 64q1 11 8 13q3 0 8 1q67 11 67 54q0 35 -28 35q-5 0 -14 -1t-14 -1q-21 0 -21 18q0 28 32 28q46 0 76 -25.5t26 -70.5q-6 -59 -87 -81q-25 -7 -31 -34h-33z" />
    <glyph glyph-name="glyph265" horiz-adv-x="541" 
d="M202 577l-137 -6q42 54 57 75q31 42 54 83l157 8q36 -76 96 -160l-129 -6l-47 82zM186 774v0h-75q0 53 18 90q28 55 92 55q35 0 98 -33l30 -18t24 -9q29 0 29 44h75q0 -54 -23 -94q-29 -50 -83 -50q-36 0 -82 27q-56 33 -68 33q-28 0 -35 -45z" />
    <glyph glyph-name="glyph266" horiz-adv-x="541" 
d="M312 727l84 9q0 -4 1 -12v-12q0 -58 -43.5 -100t-99.5 -42q-59 0 -102.5 42t-43.5 96q0 3 1 10v9l86 9q-2 -16 -2 -24q0 -27 16 -44.5t41 -17.5q27 0 44.5 15.5t17.5 40.5v21zM299 769l-128 -9q69 97 96 157l154 9q-47 -53 -122 -157z" />
    <glyph glyph-name="glyph267" horiz-adv-x="541" 
d="M312 727l84 9q0 -4 1 -12v-12q0 -58 -43.5 -100t-99.5 -42q-59 0 -102.5 42t-43.5 96q0 3 1 10v9l86 9q-2 -16 -2 -24q0 -27 16 -44.5t41 -17.5q27 0 44.5 15.5t17.5 40.5v21zM401 771l-124 -11q-26 43 -62 84l-64 70l143 12q29 -47 107 -155z" />
    <glyph glyph-name="glyph268" horiz-adv-x="541" 
d="M312 727l84 9q0 -4 1 -12v-12q0 -58 -43.5 -100t-99.5 -42q-59 0 -102.5 42t-43.5 96q0 3 1 10v9l86 9q-2 -16 -2 -24q0 -27 16 -44.5t41 -17.5q27 0 44.5 15.5t17.5 40.5v21zM306 671q9 29 11 64q1 11 8 13q3 0 8 1q67 11 67 54q0 35 -28 35q-5 0 -14 -1t-14 -1
q-21 0 -21 18q0 28 32 28q46 0 76 -25.5t26 -70.5q-6 -59 -87 -81q-25 -7 -31 -34h-33z" />
    <glyph glyph-name="glyph269" horiz-adv-x="541" 
d="M312 727l84 9q0 -4 1 -12v-12q0 -58 -43.5 -100t-99.5 -42q-59 0 -102.5 42t-43.5 96q0 3 1 10v9l86 9q-2 -16 -2 -24q0 -27 16 -44.5t41 -17.5q27 0 44.5 15.5t17.5 40.5v21zM186 774v0h-75q0 53 18 90q28 55 92 55q35 0 98 -33l30 -18t24 -9q29 0 29 44h75
q0 -54 -23 -94q-29 -50 -83 -50q-36 0 -82 27q-56 33 -68 33q-28 0 -35 -45z" />
    <glyph glyph-name="glyph270" horiz-adv-x="249" 
 />
    <glyph glyph-name="glyph271" unicode="&#x102;" horiz-adv-x="722" 
d="M198 0h-192q27 63 94 240l63 178q59 166 75 278l238 33q10 -109 69 -284l68 -201q24 -72 102 -244h-214q-19 56 -55 170h-201q-33 -109 -47 -170zM279 290h136q-12 45 -35 136q-17 67 -28 148h-2q-19 -121 -71 -284zM407 865l68 7v-19q-5 -48 -40 -80t-84 -33
q-55 -1 -91 27.5t-36 82.5q0 3 1 8v7l68 7v-9q-1 -6 -1 -10q0 -21 17 -35t38 -14t40.5 12t19.5 32v17z" />
    <glyph glyph-name="glyph272" unicode="&#x103;" horiz-adv-x="593" 
d="M397 0l-8 100h-2q-64 -117 -187 -117q-71 0 -121 42.5t-50 112.5q0 99 95 154q79 46 180 46q12 0 35.5 -2.5t35.5 -2.5q0 72 -96 72q-76 0 -182 -26v123q123 23 194 23q123 0 184 -45q70 -51 70 -169v-106q0 -109 15 -205h-163zM375 225v23q-24 5 -54 5q-41 0 -74 -20
q-38 -24 -38 -63q0 -22 19 -37t42 -15q44 0 74.5 31.5t30.5 75.5zM347 670l68 7v-19q-5 -48 -40 -80t-84 -33q-55 -1 -91 27.5t-36 82.5q0 3 1 8v7l68 7v-9q-1 -6 -1 -10q0 -21 17 -35t38 -14t40.5 12t19.5 32v17z" />
    <glyph glyph-name="glyph273" unicode="&#x128;" horiz-adv-x="370" 
d="M300 0h-225q5 115 5 198v316q0 121 -10 198h220q-10 -63 -10 -198v-266q0 -47 8 -123q11 -104 12 -125zM80 770l-54 5q26 94 107 87q20 -2 60 -32q12 -9 37 -20q21 -5 31 29l54 6q-11 -40 -37 -66q-30 -30 -68 -27q-23 2 -56 33q-18 17 -40 16t-34 -31z" />
    <glyph glyph-name="glyph274" unicode="&#x129;" horiz-adv-x="278" 
d="M227 0h-180q5 102 5 177v109q0 71 -10 217l190 10q-10 -132 -10 -227v-88q0 -33 5 -198zM55 578l-52 5q28 89 102 82q16 -2 33 -12q25 -21 59 -37q20 -5 30 27l51 6q-28 -94 -100 -88q-19 2 -45.5 24.5t-45.5 21.5q-22 -1 -32 -29z" />
    <glyph glyph-name="ch903" unicode="&#x168;" horiz-adv-x="759" 
d="M501 0l-7 90h-2q-22 -37 -64 -66q-59 -41 -128 -41q-222 0 -222 292v194q0 85 -10 243h220q-10 -85 -10 -243v-164q0 -72 10 -102q19 -55 75 -55q52 0 82 55q26 46 26 102v164q0 85 -10 243h220q-10 -85 -10 -243v-194q0 -132 20 -275h-190zM280 749l-54 5q26 94 107 87
q20 -2 60 -32q12 -9 37 -20q21 -5 31 29l54 6q-11 -40 -37 -66q-30 -30 -68 -27q-23 2 -56 33q-18 17 -40 16t-34 -31z" />
    <glyph glyph-name="ch904" unicode="&#x169;" 
d="M415 0l-4 74q-40 -42 -66 -59q-49 -32 -111 -32q-102 0 -144 67q-35 54 -35 163v122q0 73 -10 168l190 10q-10 -118 -10 -178v-72q0 -74 14 -104q19 -41 77 -41q89 0 89 145v72q0 73 -10 168l190 10q-10 -120 -10 -178v-143q0 -60 10 -192h-170zM220 553l-54 5
q26 94 107 87q20 -2 60 -32q12 -9 37 -20q21 -5 31 29l54 6q-11 -40 -37 -66q-30 -30 -68 -27q-23 2 -56 33q-18 17 -40 16t-34 -31z" />
    <glyph glyph-name="glyph277" unicode="&#x1a0;" horiz-adv-x="741" 
d="M225 356q0 -79 32 -137q40 -71 112 -71q75 0 113 70q31 56 31 138t-31 138q-38 70 -113 70q-144 0 -144 -208zM562 676q62 0 57 32q-2 15 -21 18q-29 5 -29 28q0 29 26 34q10 2 19 2q52 0 59 -54q2 -16 -8.5 -35t-26 -27t-46.5 -20q121 -101 121 -298q0 -159 -92 -263
q-96 -110 -252 -110q-154 0 -251 111q-93 106 -93 262q0 166 88 267q93 106 256 106q109 0 193 -53z" />
    <glyph glyph-name="glyph278" unicode="&#x1a1;" horiz-adv-x="611" 
d="M203 263q0 -145 105 -145q99 0 99 145q0 127 -99 127q-105 0 -105 -127zM452 492q54 0 50 29q-2 11 -19 16q-20 5 -24 15q-2 5 -2 10q0 33 41 33q46 0 53 -49q2 -15 -8 -31.5t-23 -23.5q-16 -9 -39 -17q106 -72 106 -211q0 -124 -77.5 -202t-201.5 -78q-125 0 -205 77.5
t-80 202.5q0 122 83 194q79 68 202 68q80 0 144 -33z" />
    <glyph glyph-name="glyph279" unicode="&#x1af;" horiz-adv-x="759" 
d="M676 654q-5 -62 -5 -185v-194q0 -132 20 -275h-190l-7 90h-2q-22 -37 -64 -66q-59 -41 -128 -41q-222 0 -222 292v194q0 85 -10 243h220q-10 -85 -10 -243v-164q0 -72 10 -102q19 -55 75 -55q52 0 82 55q26 46 26 102v164q0 85 -10 243q90 -4 120 0q17 2 45.5 -17
t38.5 -19q7 0 13 3q29 14 27 29t-21 18q-29 5 -29 28q0 29 26 34q10 2 19 2q52 0 59 -54q2 -17 -9 -35.5t-26 -26.5q-24 -13 -48 -20z" />
    <glyph glyph-name="glyph280" unicode="&#x1b0;" 
d="M582 475q-7 -89 -7 -140v-143q0 -60 10 -192h-170l-4 74q-40 -42 -66 -59q-49 -32 -111 -32q-102 0 -144 67q-35 54 -35 163v122q0 73 -10 168l190 10q-10 -118 -10 -178v-72q0 -74 14 -104q19 -41 77 -41q89 0 89 145v72q0 73 -10 168l100 10q16 2 39 -9.5t32 -11.5
q8 0 18 6q18 11 16 23t-20.5 16.5t-22.5 14.5q-2 5 -2 10q0 33 41 33q46 0 53 -49q2 -14 -8.5 -31.5t-23.5 -23.5q-22 -11 -35 -16z" />
    <glyph glyph-name="glyph281" unicode="&#x1ea0;" horiz-adv-x="722" 
d="M198 0h-192q27 63 94 240l63 178q59 166 75 278l238 33q10 -109 69 -284l68 -201q24 -72 102 -244h-214q-19 56 -55 170h-201q-33 -109 -47 -170zM279 290h136q-12 45 -35 136q-17 67 -28 148h-2q-19 -121 -71 -284zM423 -119h-144q2 42 2 32q0 13 -5 78l74 4l73 5
q-4 -48 -4 -71q0 -15 4 -48z" />
    <glyph glyph-name="glyph282" unicode="&#x1ea1;" horiz-adv-x="593" 
d="M397 0l-8 100h-2q-64 -117 -187 -117q-71 0 -121 42.5t-50 112.5q0 99 95 154q79 46 180 46q12 0 35.5 -2.5t35.5 -2.5q0 72 -96 72q-76 0 -182 -26v123q123 23 194 23q123 0 184 -45q70 -51 70 -169v-106q0 -109 15 -205h-163zM375 225v23q-24 5 -54 5q-41 0 -74 -20
q-38 -24 -38 -63q0 -22 19 -37t42 -15q44 0 74.5 31.5t30.5 75.5zM365 -166h-144q2 42 2 32q0 13 -5 78l74 4l73 5q-4 -48 -4 -71q0 -15 4 -48z" />
    <glyph glyph-name="glyph283" unicode="&#x1ea2;" horiz-adv-x="722" 
d="M198 0h-192q27 63 94 240l63 178q59 166 75 278l238 33q10 -109 69 -284l68 -201q24 -72 102 -244h-214q-19 56 -55 170h-201q-33 -109 -47 -170zM279 290h136q-12 45 -35 136q-17 67 -28 148h-2q-19 -121 -71 -284zM388 760l-75 -4q0 3 -1 8t-1 8q0 25 29 53t29 33
q0 18 -24 18q-19 0 -55 -8l1 51q49 7 62 7q88 0 88 -62q0 -24 -27 -52t-27 -40q0 -9 1 -12z" />
    <glyph glyph-name="glyph284" unicode="&#x1ea3;" horiz-adv-x="593" 
d="M397 0l-8 100h-2q-64 -117 -187 -117q-71 0 -121 42.5t-50 112.5q0 99 95 154q79 46 180 46q12 0 35.5 -2.5t35.5 -2.5q0 72 -96 72q-76 0 -182 -26v123q123 23 194 23q123 0 184 -45q70 -51 70 -169v-106q0 -109 15 -205h-163zM375 225v23q-24 5 -54 5q-41 0 -74 -20
q-38 -24 -38 -63q0 -22 19 -37t42 -15q44 0 74.5 31.5t30.5 75.5zM329 567l-75 -4q0 3 -1 8t-1 8q0 25 29 53t29 33q0 18 -24 18q-19 0 -55 -8l1 51q49 7 62 7q88 0 88 -62q0 -24 -27 -52t-27 -40q0 -9 1 -12z" />
    <glyph glyph-name="glyph285" unicode="&#x1ea4;" horiz-adv-x="722" 
d="M198 0h-192q27 63 94 240l63 178q59 166 75 278l238 33q10 -109 69 -284l68 -201q24 -72 102 -244h-214q-19 56 -55 170h-201q-33 -109 -47 -170zM279 290h136q-12 45 -35 136q-17 67 -28 148h-2q-19 -121 -71 -284zM309 745l-110 -5q31 39 89 126l126 7q26 -57 76 -128
l-103 -5l-37 65zM555 809l-41 -4l-41 -3q43 62 76 135l139 7q-51 -46 -133 -135z" />
    <glyph glyph-name="glyph286" unicode="&#x1ea5;" horiz-adv-x="593" 
d="M397 0l-8 100h-2q-64 -117 -187 -117q-71 0 -121 42.5t-50 112.5q0 99 95 154q79 46 180 46q12 0 35.5 -2.5t35.5 -2.5q0 72 -96 72q-76 0 -182 -26v123q123 23 194 23q123 0 184 -45q70 -51 70 -169v-106q0 -109 15 -205h-163zM375 225v23q-24 5 -54 5q-41 0 -74 -20
q-38 -24 -38 -63q0 -22 19 -37t42 -15q44 0 74.5 31.5t30.5 75.5zM250 550l-110 -5q31 39 89 126l126 7q26 -57 76 -128l-103 -5l-37 65zM496 614l-41 -4l-41 -3q43 62 76 135l139 7q-51 -46 -133 -135z" />
    <glyph glyph-name="glyph287" unicode="&#x1ea6;" horiz-adv-x="722" 
d="M198 0h-192q27 63 94 240l63 178q59 166 75 278l238 33q10 -109 69 -284l68 -201q24 -72 102 -244h-214q-19 56 -55 170h-201q-33 -109 -47 -170zM279 290h136q-12 45 -35 136q-17 67 -28 148h-2q-19 -121 -71 -284zM309 745l-110 -5q31 39 89 126l126 7q26 -57 76 -128
l-103 -5l-37 65zM226 802l-41 3l-41 4q-17 25 -62 66q-55 51 -71 69l139 -7q33 -73 76 -135z" />
    <glyph glyph-name="glyph288" unicode="&#x1ea7;" horiz-adv-x="593" 
d="M397 0l-8 100h-2q-64 -117 -187 -117q-71 0 -121 42.5t-50 112.5q0 99 95 154q79 46 180 46q12 0 35.5 -2.5t35.5 -2.5q0 72 -96 72q-76 0 -182 -26v123q123 23 194 23q123 0 184 -45q70 -51 70 -169v-106q0 -109 15 -205h-163zM375 225v23q-24 5 -54 5q-41 0 -74 -20
q-38 -24 -38 -63q0 -22 19 -37t42 -15q44 0 74.5 31.5t30.5 75.5zM250 550l-110 -5q31 39 89 126l126 7q26 -57 76 -128l-103 -5l-37 65zM182 630l-39 3l-39 4q-16 21 -59 62q-48 45 -67 66l132 -7q32 -71 72 -128z" />
    <glyph glyph-name="glyph289" unicode="&#x1ea8;" horiz-adv-x="722" 
d="M198 0h-192q27 63 94 240l63 178q59 166 75 278l238 33q10 -109 69 -284l68 -201q24 -72 102 -244h-214q-19 56 -55 170h-201q-33 -109 -47 -170zM279 290h136q-12 45 -35 136q-17 67 -28 148h-2q-19 -121 -71 -284zM309 745l-110 -5q31 39 89 126l126 7q26 -57 76 -128
l-103 -5l-37 65zM548 807l-75 -4q0 3 -1 8t-1 8q0 25 29 53t29 33q0 18 -24 18q-19 0 -55 -8l1 51q49 7 62 7q88 0 88 -62q0 -24 -27 -52t-27 -40q0 -9 1 -12z" />
    <glyph glyph-name="glyph290" unicode="&#x1ea9;" horiz-adv-x="593" 
d="M397 0l-8 100h-2q-64 -117 -187 -117q-71 0 -121 42.5t-50 112.5q0 99 95 154q79 46 180 46q12 0 35.5 -2.5t35.5 -2.5q0 72 -96 72q-76 0 -182 -26v123q123 23 194 23q123 0 184 -45q70 -51 70 -169v-106q0 -109 15 -205h-163zM375 225v23q-24 5 -54 5q-41 0 -74 -20
q-38 -24 -38 -63q0 -22 19 -37t42 -15q44 0 74.5 31.5t30.5 75.5zM250 550l-110 -5q31 39 89 126l126 7q26 -57 76 -128l-103 -5l-37 65zM489 612l-75 -4q0 3 -1 8t-1 8q0 25 29 53t29 33q0 18 -24 18q-19 0 -55 -8l1 51q49 7 62 7q88 0 88 -62q0 -24 -27 -52t-27 -40
q0 -9 1 -12z" />
    <glyph glyph-name="glyph291" unicode="&#x1eaa;" horiz-adv-x="722" 
d="M198 0h-192q27 63 94 240l63 178q59 166 75 278l238 33q10 -109 69 -284l68 -201q24 -72 102 -244h-214q-19 56 -55 170h-201q-33 -109 -47 -170zM279 290h136q-12 45 -35 136q-17 67 -28 148h-2q-19 -121 -71 -284zM309 745l-110 -5q31 39 89 126l126 7q26 -57 76 -128
l-103 -5l-37 65zM254 911l-54 5q26 94 107 87q20 -2 60 -32q12 -9 37 -20q21 -5 31 29l54 6q-11 -40 -37 -66q-30 -30 -68 -27q-23 2 -56 33q-18 17 -40 16t-34 -31z" />
    <glyph glyph-name="glyph292" unicode="&#x1eab;" horiz-adv-x="593" 
d="M397 0l-8 100h-2q-64 -117 -187 -117q-71 0 -121 42.5t-50 112.5q0 99 95 154q79 46 180 46q12 0 35.5 -2.5t35.5 -2.5q0 72 -96 72q-76 0 -182 -26v123q123 23 194 23q123 0 184 -45q70 -51 70 -169v-106q0 -109 15 -205h-163zM375 225v23q-24 5 -54 5q-41 0 -74 -20
q-38 -24 -38 -63q0 -22 19 -37t42 -15q44 0 74.5 31.5t30.5 75.5zM250 550l-110 -5q31 39 89 126l126 7q26 -57 76 -128l-103 -5l-37 65zM195 716l-54 5q26 94 107 87q20 -2 60 -32q12 -9 37 -20q21 -5 31 29l54 6q-11 -40 -37 -66q-30 -30 -68 -27q-23 2 -56 33
q-18 17 -40 16t-34 -31z" />
    <glyph glyph-name="glyph293" unicode="&#x1eac;" horiz-adv-x="722" 
d="M198 0h-192q27 63 94 240l63 178q59 166 75 278l238 33q10 -109 69 -284l68 -201q24 -72 102 -244h-214q-19 56 -55 170h-201q-33 -109 -47 -170zM279 290h136q-12 45 -35 136q-17 67 -28 148h-2q-19 -121 -71 -284zM309 745l-110 -5q31 39 89 126l126 7q26 -57 76 -128
l-103 -5l-37 65zM423 -119h-144q2 42 2 32q0 13 -5 78l74 4l73 5q-4 -48 -4 -71q0 -15 4 -48z" />
    <glyph glyph-name="glyph294" unicode="&#x1ead;" horiz-adv-x="593" 
d="M397 0l-8 100h-2q-64 -117 -187 -117q-71 0 -121 42.5t-50 112.5q0 99 95 154q79 46 180 46q12 0 35.5 -2.5t35.5 -2.5q0 72 -96 72q-76 0 -182 -26v123q123 23 194 23q123 0 184 -45q70 -51 70 -169v-106q0 -109 15 -205h-163zM375 225v23q-24 5 -54 5q-41 0 -74 -20
q-38 -24 -38 -63q0 -22 19 -37t42 -15q44 0 74.5 31.5t30.5 75.5zM365 -166h-144q2 42 2 32q0 13 -5 78l74 4l73 5q-4 -48 -4 -71q0 -15 4 -48zM250 550l-110 -5q31 39 89 126l126 7q26 -57 76 -128l-103 -5l-37 65z" />
    <glyph glyph-name="glyph295" unicode="&#x1eae;" horiz-adv-x="722" 
d="M198 0h-192q27 63 94 240l63 178q59 166 75 278l238 33q10 -109 69 -284l68 -201q24 -72 102 -244h-214q-19 56 -55 170h-201q-33 -109 -47 -170zM279 290h136q-12 45 -35 136q-17 67 -28 148h-2q-19 -121 -71 -284zM407 865l68 7v-19q-5 -48 -40 -80t-84 -33
q-55 -1 -91 27.5t-36 82.5q0 3 1 8v7l68 7v-9q-1 -6 -1 -10q0 -21 17 -35t38 -14t40.5 12t19.5 32v17zM388 878l-41 -4l-41 -3q43 62 76 135l139 7q-51 -46 -133 -135z" />
    <glyph glyph-name="glyph296" unicode="&#x1eaf;" horiz-adv-x="593" 
d="M397 0l-8 100h-2q-64 -117 -187 -117q-71 0 -121 42.5t-50 112.5q0 99 95 154q79 46 180 46q12 0 35.5 -2.5t35.5 -2.5q0 72 -96 72q-76 0 -182 -26v123q123 23 194 23q123 0 184 -45q70 -51 70 -169v-106q0 -109 15 -205h-163zM375 225v23q-24 5 -54 5q-41 0 -74 -20
q-38 -24 -38 -63q0 -22 19 -37t42 -15q44 0 74.5 31.5t30.5 75.5zM347 670l68 7v-19q-5 -48 -40 -80t-84 -33q-55 -1 -91 27.5t-36 82.5q0 3 1 8v7l68 7v-9q-1 -6 -1 -10q0 -21 17 -35t38 -14t40.5 12t19.5 32v17zM328 683l-41 -4l-41 -3q43 62 76 135l139 7
q-51 -46 -133 -135z" />
    <glyph glyph-name="glyph297" unicode="&#x1eb0;" horiz-adv-x="722" 
d="M198 0h-192q27 63 94 240l63 178q59 166 75 278l238 33q10 -109 69 -284l68 -201q24 -72 102 -244h-214q-19 56 -55 170h-201q-33 -109 -47 -170zM279 290h136q-12 45 -35 136q-17 67 -28 148h-2q-19 -121 -71 -284zM407 865l68 7v-19q-5 -48 -40 -80t-84 -33
q-55 -1 -91 27.5t-36 82.5q0 3 1 8v7l68 7v-9q-1 -6 -1 -10q0 -21 17 -35t38 -14t40.5 12t19.5 32v17zM388 871l-41 3l-41 4q-17 25 -62 66q-55 51 -71 69l139 -7q33 -73 76 -135z" />
    <glyph glyph-name="glyph298" unicode="&#x1eb1;" horiz-adv-x="593" 
d="M397 0l-8 100h-2q-64 -117 -187 -117q-71 0 -121 42.5t-50 112.5q0 99 95 154q79 46 180 46q12 0 35.5 -2.5t35.5 -2.5q0 72 -96 72q-76 0 -182 -26v123q123 23 194 23q123 0 184 -45q70 -51 70 -169v-106q0 -109 15 -205h-163zM375 225v23q-24 5 -54 5q-41 0 -74 -20
q-38 -24 -38 -63q0 -22 19 -37t42 -15q44 0 74.5 31.5t30.5 75.5zM347 670l68 7v-19q-5 -48 -40 -80t-84 -33q-55 -1 -91 27.5t-36 82.5q0 3 1 8v7l68 7v-9q-1 -6 -1 -10q0 -21 17 -35t38 -14t40.5 12t19.5 32v17zM328 676l-41 3l-41 4q-17 25 -62 66q-55 51 -71 69l139 -7
q33 -73 76 -135z" />
    <glyph glyph-name="glyph299" unicode="&#x1eb2;" horiz-adv-x="722" 
d="M198 0h-192q27 63 94 240l63 178q59 166 75 278l238 33q10 -109 69 -284l68 -201q24 -72 102 -244h-214q-19 56 -55 170h-201q-33 -109 -47 -170zM279 290h136q-12 45 -35 136q-17 67 -28 148h-2q-19 -121 -71 -284zM407 865l68 7v-19q-5 -48 -40 -80t-84 -33
q-55 -1 -91 27.5t-36 82.5q0 3 1 8v7l68 7v-9q-1 -6 -1 -10q0 -21 17 -35t38 -14t40.5 12t19.5 32v17zM385 866l-75 -4q0 3 -1 8t-1 8q0 25 29 53t29 33q0 18 -24 18q-19 0 -55 -8l1 51q49 7 62 7q88 0 88 -62q0 -24 -27 -52t-27 -40q0 -9 1 -12z" />
    <glyph glyph-name="glyph300" unicode="&#x1eb3;" horiz-adv-x="593" 
d="M397 0l-8 100h-2q-64 -117 -187 -117q-71 0 -121 42.5t-50 112.5q0 99 95 154q79 46 180 46q12 0 35.5 -2.5t35.5 -2.5q0 72 -96 72q-76 0 -182 -26v123q123 23 194 23q123 0 184 -45q70 -51 70 -169v-106q0 -109 15 -205h-163zM375 225v23q-24 5 -54 5q-41 0 -74 -20
q-38 -24 -38 -63q0 -22 19 -37t42 -15q44 0 74.5 31.5t30.5 75.5zM347 670l68 7v-19q-5 -48 -40 -80t-84 -33q-55 -1 -91 27.5t-36 82.5q0 3 1 8v7l68 7v-9q-1 -6 -1 -10q0 -21 17 -35t38 -14t40.5 12t19.5 32v17zM325 671l-75 -4q0 3 -1 8t-1 8q0 25 29 53t29 33
q0 18 -24 18q-19 0 -55 -8l1 51q49 7 62 7q88 0 88 -62q0 -24 -27 -52t-27 -40q0 -9 1 -12z" />
    <glyph glyph-name="glyph301" unicode="&#x1eb4;" horiz-adv-x="722" 
d="M198 0h-192q27 63 94 240l63 178q59 166 75 278l238 33q10 -109 69 -284l68 -201q24 -72 102 -244h-214q-19 56 -55 170h-201q-33 -109 -47 -170zM279 290h136q-12 45 -35 136q-17 67 -28 148h-2q-19 -121 -71 -284zM407 865l68 7v-19q-5 -48 -40 -80t-84 -33
q-55 -1 -91 27.5t-36 82.5q0 3 1 8v7l68 7v-9q-1 -6 -1 -10q0 -21 17 -35t38 -14t40.5 12t19.5 32v17zM379 901l-54 5q26 94 107 87q20 -2 60 -32q12 -9 37 -20q21 -5 31 29l54 6q-11 -40 -37 -66q-30 -30 -68 -27q-23 2 -56 33q-18 17 -40 16t-34 -31z" />
    <glyph glyph-name="glyph302" unicode="&#x1eb5;" horiz-adv-x="593" 
d="M397 0l-8 100h-2q-64 -117 -187 -117q-71 0 -121 42.5t-50 112.5q0 99 95 154q79 46 180 46q12 0 35.5 -2.5t35.5 -2.5q0 72 -96 72q-76 0 -182 -26v123q123 23 194 23q123 0 184 -45q70 -51 70 -169v-106q0 -109 15 -205h-163zM375 225v23q-24 5 -54 5q-41 0 -74 -20
q-38 -24 -38 -63q0 -22 19 -37t42 -15q44 0 74.5 31.5t30.5 75.5zM347 670l68 7v-19q-5 -48 -40 -80t-84 -33q-55 -1 -91 27.5t-36 82.5q0 3 1 8v7l68 7v-9q-1 -6 -1 -10q0 -21 17 -35t38 -14t40.5 12t19.5 32v17zM319 706l-54 5q26 94 107 87q20 -2 60 -32q12 -9 37 -20
q21 -5 31 29l54 6q-11 -40 -37 -66q-30 -30 -68 -27q-23 2 -56 33q-18 17 -40 16t-34 -31z" />
    <glyph glyph-name="glyph303" unicode="&#x1eb6;" horiz-adv-x="722" 
d="M198 0h-192q27 63 94 240l63 178q59 166 75 278l238 33q10 -109 69 -284l68 -201q24 -72 102 -244h-214q-19 56 -55 170h-201q-33 -109 -47 -170zM279 290h136q-12 45 -35 136q-17 67 -28 148h-2q-19 -121 -71 -284zM407 865l68 7v-19q-5 -48 -40 -80t-84 -33
q-55 -1 -91 27.5t-36 82.5q0 3 1 8v7l68 7v-9q-1 -6 -1 -10q0 -21 17 -35t38 -14t40.5 12t19.5 32v17zM423 -119h-144q2 42 2 32q0 13 -5 78l74 4l73 5q-4 -48 -4 -71q0 -15 4 -48z" />
    <glyph glyph-name="glyph304" unicode="&#x1eb7;" horiz-adv-x="593" 
d="M397 0l-8 100h-2q-64 -117 -187 -117q-71 0 -121 42.5t-50 112.5q0 99 95 154q79 46 180 46q12 0 35.5 -2.5t35.5 -2.5q0 72 -96 72q-76 0 -182 -26v123q123 23 194 23q123 0 184 -45q70 -51 70 -169v-106q0 -109 15 -205h-163zM375 225v23q-24 5 -54 5q-41 0 -74 -20
q-38 -24 -38 -63q0 -22 19 -37t42 -15q44 0 74.5 31.5t30.5 75.5zM347 670l68 7v-19q-5 -48 -40 -80t-84 -33q-55 -1 -91 27.5t-36 82.5q0 3 1 8v7l68 7v-9q-1 -6 -1 -10q0 -21 17 -35t38 -14t40.5 12t19.5 32v17zM365 -166h-144q2 42 2 32q0 13 -5 78l74 4l73 5
q-4 -48 -4 -71q0 -15 4 -48z" />
    <glyph glyph-name="glyph305" unicode="&#x1eb8;" horiz-adv-x="574" 
d="M512 0h-436q5 115 5 198v316q0 121 -10 198h430l11 -145q-21 0 -64 2.5t-65 2.5h-102v-132h73q33 0 73 2q60 3 74 3v-150l-73 3q-49 2 -74 2h-73v-160h53q50 0 190 20zM370 -159h-144q2 42 2 32q0 13 -5 78l74 4l73 5q-4 -48 -4 -71q0 -15 4 -48z" />
    <glyph glyph-name="glyph306" unicode="&#x1eb9;" horiz-adv-x="574" 
d="M509 140v-140q-94 -17 -147 -17q-146 0 -237 79q-95 83 -95 226q0 107 80 174q75 63 184 63q250 0 250 -272v-33h-324q7 -50 60 -78q44 -24 100 -24q24 0 129 22zM210 310h184q0 33 -14 57q-22 38 -76 38q-41 0 -67.5 -27t-26.5 -68zM368 -176h-144q2 42 2 32q0 13 -5 78
l74 4l73 5q-4 -48 -4 -71q0 -15 4 -48z" />
    <glyph glyph-name="glyph307" unicode="&#x1eba;" horiz-adv-x="574" 
d="M512 0h-436q5 115 5 198v316q0 121 -10 198h430l11 -145q-21 0 -64 2.5t-65 2.5h-102v-132h73q33 0 73 2q60 3 74 3v-150l-73 3q-49 2 -74 2h-73v-160h53q50 0 190 20zM334 746l-75 -4q0 3 -1 8t-1 8q0 25 29 53t29 33q0 18 -24 18q-19 0 -55 -8l1 51q49 7 62 7
q88 0 88 -62q0 -24 -27 -52t-27 -40q0 -9 1 -12z" />
    <glyph glyph-name="glyph308" unicode="&#x1ebb;" horiz-adv-x="574" 
d="M509 140v-140q-94 -17 -147 -17q-146 0 -237 79q-95 83 -95 226q0 107 80 174q75 63 184 63q250 0 250 -272v-33h-324q7 -50 60 -78q44 -24 100 -24q24 0 129 22zM210 310h184q0 33 -14 57q-22 38 -76 38q-41 0 -67.5 -27t-26.5 -68zM332 567l-75 -4q0 3 -1 8t-1 8
q0 25 29 53t29 33q0 18 -24 18q-19 0 -55 -8l1 51q49 7 62 7q88 0 88 -62q0 -24 -27 -52t-27 -40q0 -9 1 -12z" />
    <glyph glyph-name="glyph309" unicode="&#x1ebc;" horiz-adv-x="574" 
d="M512 0h-436q5 115 5 198v316q0 121 -10 198h430l11 -145q-21 0 -64 2.5t-65 2.5h-102v-132h73q33 0 73 2q60 3 74 3v-150l-73 3q-49 2 -74 2h-73v-160h53q50 0 190 20zM200 771l-54 5q26 94 107 87q20 -2 60 -32q12 -9 37 -20q21 -5 31 29l54 6q-11 -40 -37 -66
q-30 -30 -68 -27q-23 2 -56 33q-18 17 -40 16t-34 -31z" />
    <glyph glyph-name="glyph310" unicode="&#x1ebd;" horiz-adv-x="574" 
d="M509 140v-140q-94 -17 -147 -17q-146 0 -237 79q-95 83 -95 226q0 107 80 174q75 63 184 63q250 0 250 -272v-33h-324q7 -50 60 -78q44 -24 100 -24q24 0 129 22zM210 310h184q0 33 -14 57q-22 38 -76 38q-41 0 -67.5 -27t-26.5 -68zM198 594l-54 5q26 94 107 87
q20 -2 60 -32q12 -9 37 -20q21 -5 31 29l54 6q-11 -40 -37 -66q-30 -30 -68 -27q-23 2 -56 33q-18 17 -40 16t-34 -31z" />
    <glyph glyph-name="glyph311" unicode="&#x1ebe;" horiz-adv-x="574" 
d="M512 0h-436q5 115 5 198v316q0 121 -10 198h430l11 -145q-21 0 -64 2.5t-65 2.5h-102v-132h73q33 0 73 2q60 3 74 3v-150l-73 3q-49 2 -74 2h-73v-160h53q50 0 190 20zM255 745l-110 -5q31 39 89 126l126 7q26 -57 76 -128l-103 -5l-37 65zM501 809l-41 -4l-41 -3
q43 62 76 135l139 7q-51 -46 -133 -135z" />
    <glyph glyph-name="glyph312" unicode="&#x1ebf;" horiz-adv-x="574" 
d="M509 140v-140q-94 -17 -147 -17q-146 0 -237 79q-95 83 -95 226q0 107 80 174q75 63 184 63q250 0 250 -272v-33h-324q7 -50 60 -78q44 -24 100 -24q24 0 129 22zM210 310h184q0 33 -14 57q-22 38 -76 38q-41 0 -67.5 -27t-26.5 -68zM253 550l-110 -5q31 39 89 126l126 7
q26 -57 76 -128l-103 -5l-37 65zM499 614l-41 -4l-41 -3q43 62 76 135l139 7q-51 -46 -133 -135z" />
    <glyph glyph-name="glyph313" unicode="&#x1ec0;" horiz-adv-x="574" 
d="M512 0h-436q5 115 5 198v316q0 121 -10 198h430l11 -145q-21 0 -64 2.5t-65 2.5h-102v-132h73q33 0 73 2q60 3 74 3v-150l-73 3q-49 2 -74 2h-73v-160h53q50 0 190 20zM255 745l-110 -5q31 39 89 126l126 7q26 -57 76 -128l-103 -5l-37 65zM172 802l-41 3l-41 4
q-17 25 -62 66q-55 51 -71 69l139 -7q33 -73 76 -135z" />
    <glyph glyph-name="glyph314" unicode="&#x1ec1;" horiz-adv-x="574" 
d="M509 140v-140q-94 -17 -147 -17q-146 0 -237 79q-95 83 -95 226q0 107 80 174q75 63 184 63q250 0 250 -272v-33h-324q7 -50 60 -78q44 -24 100 -24q24 0 129 22zM210 310h184q0 33 -14 57q-22 38 -76 38q-41 0 -67.5 -27t-26.5 -68zM253 550l-110 -5q31 39 89 126l126 7
q26 -57 76 -128l-103 -5l-37 65zM179 620l-39 3l-39 4q-16 21 -59 62q-48 45 -67 66l132 -7q32 -71 72 -128z" />
    <glyph glyph-name="glyph315" unicode="&#x1ec2;" horiz-adv-x="574" 
d="M512 0h-436q5 115 5 198v316q0 121 -10 198h430l11 -145q-21 0 -64 2.5t-65 2.5h-102v-132h73q33 0 73 2q60 3 74 3v-150l-73 3q-49 2 -74 2h-73v-160h53q50 0 190 20zM255 745l-110 -5q31 39 89 126l126 7q26 -57 76 -128l-103 -5l-37 65zM494 807l-75 -4q0 3 -1 8t-1 8
q0 25 29 53t29 33q0 18 -24 18q-19 0 -55 -8l1 51q49 7 62 7q88 0 88 -62q0 -24 -27 -52t-27 -40q0 -9 1 -12z" />
    <glyph glyph-name="glyph316" unicode="&#x1ec3;" horiz-adv-x="574" 
d="M509 140v-140q-94 -17 -147 -17q-146 0 -237 79q-95 83 -95 226q0 107 80 174q75 63 184 63q250 0 250 -272v-33h-324q7 -50 60 -78q44 -24 100 -24q24 0 129 22zM210 310h184q0 33 -14 57q-22 38 -76 38q-41 0 -67.5 -27t-26.5 -68zM253 550l-110 -5q31 39 89 126l126 7
q26 -57 76 -128l-103 -5l-37 65zM492 612l-75 -4q0 3 -1 8t-1 8q0 25 29 53t29 33q0 18 -24 18q-19 0 -55 -8l1 51q49 7 62 7q88 0 88 -62q0 -24 -27 -52t-27 -40q0 -9 1 -12z" />
    <glyph glyph-name="glyph317" unicode="&#x1ec4;" horiz-adv-x="574" 
d="M512 0h-436q5 115 5 198v316q0 121 -10 198h430l11 -145q-21 0 -64 2.5t-65 2.5h-102v-132h73q33 0 73 2q60 3 74 3v-150l-73 3q-49 2 -74 2h-73v-160h53q50 0 190 20zM255 745l-110 -5q31 39 89 126l126 7q26 -57 76 -128l-103 -5l-37 65zM200 911l-54 5q26 94 107 87
q20 -2 60 -32q12 -9 37 -20q21 -5 31 29l54 6q-11 -40 -37 -66q-30 -30 -68 -27q-23 2 -56 33q-18 17 -40 16t-34 -31z" />
    <glyph glyph-name="glyph318" unicode="&#x1ec5;" horiz-adv-x="574" 
d="M509 140v-140q-94 -17 -147 -17q-146 0 -237 79q-95 83 -95 226q0 107 80 174q75 63 184 63q250 0 250 -272v-33h-324q7 -50 60 -78q44 -24 100 -24q24 0 129 22zM210 310h184q0 33 -14 57q-22 38 -76 38q-41 0 -67.5 -27t-26.5 -68zM253 550l-110 -5q31 39 89 126l126 7
q26 -57 76 -128l-103 -5l-37 65zM198 716l-54 5q26 94 107 87q20 -2 60 -32q12 -9 37 -20q21 -5 31 29l54 6q-11 -40 -37 -66q-30 -30 -68 -27q-23 2 -56 33q-18 17 -40 16t-34 -31z" />
    <glyph glyph-name="glyph319" unicode="&#x1ec6;" horiz-adv-x="574" 
d="M512 0h-436q5 115 5 198v316q0 121 -10 198h430l11 -145q-21 0 -64 2.5t-65 2.5h-102v-132h73q33 0 73 2q60 3 74 3v-150l-73 3q-49 2 -74 2h-73v-160h53q50 0 190 20zM255 745l-110 -5q31 39 89 126l126 7q26 -57 76 -128l-103 -5l-37 65zM370 -159h-144q2 42 2 32
q0 13 -5 78l74 4l73 5q-4 -48 -4 -71q0 -15 4 -48z" />
    <glyph glyph-name="glyph320" unicode="&#x1ec7;" horiz-adv-x="574" 
d="M509 140v-140q-94 -17 -147 -17q-146 0 -237 79q-95 83 -95 226q0 107 80 174q75 63 184 63q250 0 250 -272v-33h-324q7 -50 60 -78q44 -24 100 -24q24 0 129 22zM210 310h184q0 33 -14 57q-22 38 -76 38q-41 0 -67.5 -27t-26.5 -68zM253 550l-110 -5q31 39 89 126l126 7
q26 -57 76 -128l-103 -5l-37 65zM368 -176h-144q2 42 2 32q0 13 -5 78l74 4l73 5q-4 -48 -4 -71q0 -15 4 -48z" />
    <glyph glyph-name="glyph321" unicode="&#x1ec8;" horiz-adv-x="370" 
d="M300 0h-225q5 115 5 198v316q0 121 -10 198h220q-10 -63 -10 -198v-266q0 -47 8 -123q11 -104 12 -125zM215 746l-75 -4q0 3 -1 8t-1 8q0 25 29 53t29 33q0 18 -24 18q-19 0 -55 -8l1 51q49 7 62 7q88 0 88 -62q0 -24 -27 -52t-27 -40q0 -9 1 -12z" />
    <glyph glyph-name="glyph322" unicode="&#x1ec9;" horiz-adv-x="278" 
d="M227 0h-180q5 102 5 177v109q0 71 -10 217l190 10q-10 -132 -10 -227v-88q0 -33 5 -198zM174 557l-75 -4q0 3 -1 8t-1 8q0 25 29 53t29 33q0 18 -24 18q-19 0 -55 -8l1 51q49 7 62 7q88 0 88 -62q0 -24 -27 -52t-27 -40q0 -9 1 -12z" />
    <glyph glyph-name="glyph323" unicode="&#x1eca;" horiz-adv-x="370" 
d="M300 0h-225q5 115 5 198v316q0 121 -10 198h220q-10 -63 -10 -198v-266q0 -47 8 -123q11 -104 12 -125zM250 -159h-144q2 42 2 32q0 13 -5 78l74 4l73 5q-4 -48 -4 -71q0 -15 4 -48z" />
    <glyph glyph-name="glyph324" unicode="&#x1ecb;" horiz-adv-x="278" 
d="M227 0h-180q5 102 5 177v109q0 71 -10 217l190 10q-10 -132 -10 -227v-88q0 -33 5 -198zM212 563h-144q2 42 2 32q0 13 -5 78l74 4l73 5q-4 -48 -4 -71q0 -15 4 -48zM209 -159h-144q2 42 2 32q0 13 -5 78l74 4l73 5q-4 -48 -4 -71q0 -15 4 -48z" />
    <glyph glyph-name="glyph325" unicode="&#x1ecc;" horiz-adv-x="741" 
d="M369 -17q-154 0 -251 111q-93 106 -93 262q0 166 88 267q93 106 256 106t256 -106q88 -101 88 -267q0 -159 -92 -263q-96 -110 -252 -110zM225 356q0 -79 32 -137q40 -71 112 -71q75 0 113 70q31 56 31 138t-31 138q-38 70 -113 70q-144 0 -144 -208zM442 -171h-144
q2 42 2 32q0 13 -5 78l74 4l73 5q-4 -48 -4 -71q0 -15 4 -48z" />
    <glyph glyph-name="glyph326" unicode="&#x1ecd;" horiz-adv-x="611" 
d="M308 -17q-125 0 -205 77.5t-80 202.5q0 122 83 194q79 68 202 68q121 0 198 -70q81 -73 81 -192q0 -124 -77.5 -202t-201.5 -78zM203 263q0 -145 105 -145q99 0 99 145q0 127 -99 127q-105 0 -105 -127zM381 -171h-144q2 42 2 32q0 13 -5 78l74 4l73 5q-4 -48 -4 -71
q0 -15 4 -48z" />
    <glyph glyph-name="glyph327" unicode="&#x1ece;" horiz-adv-x="741" 
d="M369 -17q-154 0 -251 111q-93 106 -93 262q0 166 88 267q93 106 256 106t256 -106q88 -101 88 -267q0 -159 -92 -263q-96 -110 -252 -110zM225 356q0 -79 32 -137q40 -71 112 -71q75 0 113 70q31 56 31 138t-31 138q-38 70 -113 70q-144 0 -144 -208zM407 761l-75 -4
q0 3 -1 8t-1 8q0 25 29 53t29 33q0 18 -24 18q-19 0 -55 -8l1 51q49 7 62 7q88 0 88 -62q0 -24 -27 -52t-27 -40q0 -9 1 -12z" />
    <glyph glyph-name="glyph328" unicode="&#x1ecf;" horiz-adv-x="611" 
d="M308 -17q-125 0 -205 77.5t-80 202.5q0 122 83 194q79 68 202 68q121 0 198 -70q81 -73 81 -192q0 -124 -77.5 -202t-201.5 -78zM203 263q0 -145 105 -145q99 0 99 145q0 127 -99 127q-105 0 -105 -127zM346 567l-75 -4q0 3 -1 8t-1 8q0 25 29 53t29 33q0 18 -24 18
q-19 0 -55 -8l1 51q49 7 62 7q88 0 88 -62q0 -24 -27 -52t-27 -40q0 -9 1 -12z" />
    <glyph glyph-name="glyph329" unicode="&#x1ed0;" horiz-adv-x="741" 
d="M369 -17q-154 0 -251 111q-93 106 -93 262q0 166 88 267q93 106 256 106t256 -106q88 -101 88 -267q0 -159 -92 -263q-96 -110 -252 -110zM225 356q0 -79 32 -137q40 -71 112 -71q75 0 113 70q31 56 31 138t-31 138q-38 70 -113 70q-144 0 -144 -208zM328 755l-110 -5
q31 39 89 126l126 7q26 -57 76 -128l-103 -5l-37 65zM574 819l-41 -4l-41 -3q43 62 76 135l139 7q-51 -46 -133 -135z" />
    <glyph glyph-name="glyph330" unicode="&#x1ed1;" horiz-adv-x="611" 
d="M308 -17q-125 0 -205 77.5t-80 202.5q0 122 83 194q79 68 202 68q121 0 198 -70q81 -73 81 -192q0 -124 -77.5 -202t-201.5 -78zM203 263q0 -145 105 -145q99 0 99 145q0 127 -99 127q-105 0 -105 -127zM267 550l-110 -5q31 39 89 126l126 7q26 -57 76 -128l-103 -5
l-37 65zM513 614l-41 -4l-41 -3q43 62 76 135l139 7q-51 -46 -133 -135z" />
    <glyph glyph-name="glyph331" unicode="&#x1ed2;" horiz-adv-x="741" 
d="M369 -17q-154 0 -251 111q-93 106 -93 262q0 166 88 267q93 106 256 106t256 -106q88 -101 88 -267q0 -159 -92 -263q-96 -110 -252 -110zM225 356q0 -79 32 -137q40 -71 112 -71q75 0 113 70q31 56 31 138t-31 138q-38 70 -113 70q-144 0 -144 -208zM328 755l-110 -5
q31 39 89 126l126 7q26 -57 76 -128l-103 -5l-37 65zM245 812l-41 3l-41 4q-17 25 -62 66q-55 51 -71 69l139 -7q33 -73 76 -135z" />
    <glyph glyph-name="glyph332" unicode="&#x1ed3;" horiz-adv-x="611" 
d="M308 -17q-125 0 -205 77.5t-80 202.5q0 122 83 194q79 68 202 68q121 0 198 -70q81 -73 81 -192q0 -124 -77.5 -202t-201.5 -78zM203 263q0 -145 105 -145q99 0 99 145q0 127 -99 127q-105 0 -105 -127zM267 550l-110 -5q31 39 89 126l126 7q26 -57 76 -128l-103 -5
l-37 65zM192 620l-39 3l-39 4q-16 21 -59 62q-48 45 -67 66l132 -7q32 -71 72 -128z" />
    <glyph glyph-name="glyph333" unicode="&#x1ed4;" horiz-adv-x="741" 
d="M369 -17q-154 0 -251 111q-93 106 -93 262q0 166 88 267q93 106 256 106t256 -106q88 -101 88 -267q0 -159 -92 -263q-96 -110 -252 -110zM225 356q0 -79 32 -137q40 -71 112 -71q75 0 113 70q31 56 31 138t-31 138q-38 70 -113 70q-144 0 -144 -208zM328 755l-110 -5
q31 39 89 126l126 7q26 -57 76 -128l-103 -5l-37 65zM567 817l-75 -4q0 3 -1 8t-1 8q0 25 29 53t29 33q0 18 -24 18q-19 0 -55 -8l1 51q49 7 62 7q88 0 88 -62q0 -24 -27 -52t-27 -40q0 -9 1 -12z" />
    <glyph glyph-name="glyph334" unicode="&#x1ed5;" horiz-adv-x="611" 
d="M308 -17q-125 0 -205 77.5t-80 202.5q0 122 83 194q79 68 202 68q121 0 198 -70q81 -73 81 -192q0 -124 -77.5 -202t-201.5 -78zM203 263q0 -145 105 -145q99 0 99 145q0 127 -99 127q-105 0 -105 -127zM267 550l-110 -5q31 39 89 126l126 7q26 -57 76 -128l-103 -5
l-37 65zM506 612l-75 -4q0 3 -1 8t-1 8q0 25 29 53t29 33q0 18 -24 18q-19 0 -55 -8l1 51q49 7 62 7q88 0 88 -62q0 -24 -27 -52t-27 -40q0 -9 1 -12z" />
    <glyph glyph-name="glyph335" unicode="&#x1ed6;" horiz-adv-x="741" 
d="M369 -17q-154 0 -251 111q-93 106 -93 262q0 166 88 267q93 106 256 106t256 -106q88 -101 88 -267q0 -159 -92 -263q-96 -110 -252 -110zM225 356q0 -79 32 -137q40 -71 112 -71q75 0 113 70q31 56 31 138t-31 138q-38 70 -113 70q-144 0 -144 -208zM328 755l-110 -5
q31 39 89 126l126 7q26 -57 76 -128l-103 -5l-37 65zM273 921l-54 5q26 94 107 87q20 -2 60 -32q12 -9 37 -20q21 -5 31 29l54 6q-11 -40 -37 -66q-30 -30 -68 -27q-23 2 -56 33q-18 17 -40 16t-34 -31z" />
    <glyph glyph-name="glyph336" unicode="&#x1ed7;" horiz-adv-x="611" 
d="M308 -17q-125 0 -205 77.5t-80 202.5q0 122 83 194q79 68 202 68q121 0 198 -70q81 -73 81 -192q0 -124 -77.5 -202t-201.5 -78zM203 263q0 -145 105 -145q99 0 99 145q0 127 -99 127q-105 0 -105 -127zM267 550l-110 -5q31 39 89 126l126 7q26 -57 76 -128l-103 -5
l-37 65zM212 716l-54 5q26 94 107 87q20 -2 60 -32q12 -9 37 -20q21 -5 31 29l54 6q-11 -40 -37 -66q-30 -30 -68 -27q-23 2 -56 33q-18 17 -40 16t-34 -31z" />
    <glyph glyph-name="glyph337" unicode="&#x1ed8;" horiz-adv-x="741" 
d="M369 -17q-154 0 -251 111q-93 106 -93 262q0 166 88 267q93 106 256 106t256 -106q88 -101 88 -267q0 -159 -92 -263q-96 -110 -252 -110zM225 356q0 -79 32 -137q40 -71 112 -71q75 0 113 70q31 56 31 138t-31 138q-38 70 -113 70q-144 0 -144 -208zM328 755l-110 -5
q31 39 89 126l126 7q26 -57 76 -128l-103 -5l-37 65zM442 -171h-144q2 42 2 32q0 13 -5 78l74 4l73 5q-4 -48 -4 -71q0 -15 4 -48z" />
    <glyph glyph-name="glyph338" unicode="&#x1ed9;" horiz-adv-x="611" 
d="M308 -17q-125 0 -205 77.5t-80 202.5q0 122 83 194q79 68 202 68q121 0 198 -70q81 -73 81 -192q0 -124 -77.5 -202t-201.5 -78zM203 263q0 -145 105 -145q99 0 99 145q0 127 -99 127q-105 0 -105 -127zM267 550l-110 -5q31 39 89 126l126 7q26 -57 76 -128l-103 -5
l-37 65zM381 -171h-144q2 42 2 32q0 13 -5 78l74 4l73 5q-4 -48 -4 -71q0 -15 4 -48z" />
    <glyph glyph-name="glyph339" unicode="&#x1eda;" horiz-adv-x="741" 
d="M225 356q0 -79 32 -137q40 -71 112 -71q75 0 113 70q31 56 31 138t-31 138q-38 70 -113 70q-144 0 -144 -208zM562 676q62 0 57 32q-2 15 -21 18q-29 5 -29 28q0 29 26 34q10 2 19 2q52 0 59 -54q2 -16 -8.5 -35t-26 -27t-46.5 -20q121 -101 121 -298q0 -159 -92 -263
q-96 -110 -252 -110q-154 0 -251 111q-93 106 -93 262q0 166 88 267q93 106 256 106q109 0 193 -53zM410 773l-41 -4l-41 -3q43 62 76 135l139 7q-51 -46 -133 -135z" />
    <glyph glyph-name="glyph340" unicode="&#x1edb;" horiz-adv-x="611" 
d="M203 263q0 -145 105 -145q99 0 99 145q0 127 -99 127q-105 0 -105 -127zM452 492q54 0 50 29q-2 11 -19 16q-20 5 -24 15q-2 5 -2 10q0 33 41 33q46 0 53 -49q2 -15 -8 -31.5t-23 -23.5q-16 -9 -39 -17q106 -72 106 -211q0 -124 -77.5 -202t-201.5 -78q-125 0 -205 77.5
t-80 202.5q0 122 83 194q79 68 202 68q80 0 144 -33zM350 575l-41 -4l-41 -3q43 62 76 135l139 7q-51 -46 -133 -135z" />
    <glyph glyph-name="glyph341" unicode="&#x1edc;" horiz-adv-x="741" 
d="M225 356q0 -79 32 -137q40 -71 112 -71q75 0 113 70q31 56 31 138t-31 138q-38 70 -113 70q-144 0 -144 -208zM562 676q62 0 57 32q-2 15 -21 18q-29 5 -29 28q0 29 26 34q10 2 19 2q52 0 59 -54q2 -16 -8.5 -35t-26 -27t-46.5 -20q121 -101 121 -298q0 -159 -92 -263
q-96 -110 -252 -110q-154 0 -251 111q-93 106 -93 262q0 166 88 267q93 106 256 106q109 0 193 -53zM410 766l-41 3l-41 4q-17 25 -62 66q-55 51 -71 69l139 -7q33 -73 76 -135z" />
    <glyph glyph-name="glyph342" unicode="&#x1edd;" horiz-adv-x="611" 
d="M203 263q0 -145 105 -145q99 0 99 145q0 127 -99 127q-105 0 -105 -127zM452 492q54 0 50 29q-2 11 -19 16q-20 5 -24 15q-2 5 -2 10q0 33 41 33q46 0 53 -49q2 -15 -8 -31.5t-23 -23.5q-16 -9 -39 -17q106 -72 106 -211q0 -124 -77.5 -202t-201.5 -78q-125 0 -205 77.5
t-80 202.5q0 122 83 194q79 68 202 68q80 0 144 -33zM349 572l-41 3l-41 4q-17 25 -62 66q-55 51 -71 69l139 -7q33 -73 76 -135z" />
    <glyph glyph-name="glyph343" unicode="&#x1ede;" horiz-adv-x="741" 
d="M225 356q0 -79 32 -137q40 -71 112 -71q75 0 113 70q31 56 31 138t-31 138q-38 70 -113 70q-144 0 -144 -208zM562 676q62 0 57 32q-2 15 -21 18q-29 5 -29 28q0 29 26 34q10 2 19 2q52 0 59 -54q2 -16 -8.5 -35t-26 -27t-46.5 -20q121 -101 121 -298q0 -159 -92 -263
q-96 -110 -252 -110q-154 0 -251 111q-93 106 -93 262q0 166 88 267q93 106 256 106q109 0 193 -53zM407 761l-75 -4q0 3 -1 8t-1 8q0 25 29 53t29 33q0 18 -24 18q-19 0 -55 -8l1 51q49 7 62 7q88 0 88 -62q0 -24 -27 -52t-27 -40q0 -9 1 -12z" />
    <glyph glyph-name="glyph344" unicode="&#x1edf;" horiz-adv-x="611" 
d="M203 263q0 -145 105 -145q99 0 99 145q0 127 -99 127q-105 0 -105 -127zM452 492q54 0 50 29q-2 11 -19 16q-20 5 -24 15q-2 5 -2 10q0 33 41 33q46 0 53 -49q2 -15 -8 -31.5t-23 -23.5q-16 -9 -39 -17q106 -72 106 -211q0 -124 -77.5 -202t-201.5 -78q-125 0 -205 77.5
t-80 202.5q0 122 83 194q79 68 202 68q80 0 144 -33zM346 567l-75 -4q0 3 -1 8t-1 8q0 25 29 53t29 33q0 18 -24 18q-19 0 -55 -8l1 51q49 7 62 7q88 0 88 -62q0 -24 -27 -52t-27 -40q0 -9 1 -12z" />
    <glyph glyph-name="glyph345" unicode="&#x1ee0;" horiz-adv-x="741" 
d="M225 356q0 -79 32 -137q40 -71 112 -71q75 0 113 70q31 56 31 138t-31 138q-38 70 -113 70q-144 0 -144 -208zM562 676q62 0 57 32q-2 15 -21 18q-29 5 -29 28q0 29 26 34q10 2 19 2q52 0 59 -54q2 -16 -8.5 -35t-26 -27t-46.5 -20q121 -101 121 -298q0 -159 -92 -263
q-96 -110 -252 -110q-154 0 -251 111q-93 106 -93 262q0 166 88 267q93 106 256 106q109 0 193 -53zM273 789l-54 5q26 94 107 87q20 -2 60 -32q12 -9 37 -20q21 -5 31 29l54 6q-11 -40 -37 -66q-30 -30 -68 -27q-23 2 -56 33q-18 17 -40 16t-34 -31z" />
    <glyph glyph-name="glyph346" unicode="&#x1ee1;" horiz-adv-x="611" 
d="M203 263q0 -145 105 -145q99 0 99 145q0 127 -99 127q-105 0 -105 -127zM452 492q54 0 50 29q-2 11 -19 16q-20 5 -24 15q-2 5 -2 10q0 33 41 33q46 0 53 -49q2 -15 -8 -31.5t-23 -23.5q-16 -9 -39 -17q106 -72 106 -211q0 -124 -77.5 -202t-201.5 -78q-125 0 -205 77.5
t-80 202.5q0 122 83 194q79 68 202 68q80 0 144 -33zM212 593l-54 5q26 94 107 87q20 -2 60 -32q12 -9 37 -20q21 -5 31 29l54 6q-11 -40 -37 -66q-30 -30 -68 -27q-23 2 -56 33q-18 17 -40 16t-34 -31z" />
    <glyph glyph-name="glyph347" unicode="&#x1ee2;" horiz-adv-x="741" 
d="M225 356q0 -79 32 -137q40 -71 112 -71q75 0 113 70q31 56 31 138t-31 138q-38 70 -113 70q-144 0 -144 -208zM562 676q62 0 57 32q-2 15 -21 18q-29 5 -29 28q0 29 26 34q10 2 19 2q52 0 59 -54q2 -16 -8.5 -35t-26 -27t-46.5 -20q121 -101 121 -298q0 -159 -92 -263
q-96 -110 -252 -110q-154 0 -251 111q-93 106 -93 262q0 166 88 267q93 106 256 106q109 0 193 -53zM442 -171h-144q2 42 2 32q0 13 -5 78l74 4l73 5q-4 -48 -4 -71q0 -15 4 -48z" />
    <glyph glyph-name="glyph348" unicode="&#x1ee3;" horiz-adv-x="611" 
d="M203 263q0 -145 105 -145q99 0 99 145q0 127 -99 127q-105 0 -105 -127zM452 492q54 0 50 29q-2 11 -19 16q-20 5 -24 15q-2 5 -2 10q0 33 41 33q46 0 53 -49q2 -15 -8 -31.5t-23 -23.5q-16 -9 -39 -17q106 -72 106 -211q0 -124 -77.5 -202t-201.5 -78q-125 0 -205 77.5
t-80 202.5q0 122 83 194q79 68 202 68q80 0 144 -33zM381 -171h-144q2 42 2 32q0 13 -5 78l74 4l73 5q-4 -48 -4 -71q0 -15 4 -48z" />
    <glyph glyph-name="glyph349" unicode="&#x1ee4;" horiz-adv-x="759" 
d="M501 0l-7 90h-2q-22 -37 -64 -66q-59 -41 -128 -41q-222 0 -222 292v194q0 85 -10 243h220q-10 -85 -10 -243v-164q0 -72 10 -102q19 -55 75 -55q52 0 82 55q26 46 26 102v164q0 85 -10 243h220q-10 -85 -10 -243v-194q0 -132 20 -275h-190zM450 -167h-144q2 42 2 32
q0 13 -5 78l74 4l73 5q-4 -48 -4 -71q0 -15 4 -48z" />
    <glyph glyph-name="glyph350" unicode="&#x1ee5;" 
d="M415 0l-4 74q-40 -42 -66 -59q-49 -32 -111 -32q-102 0 -144 67q-35 54 -35 163v122q0 73 -10 168l190 10q-10 -118 -10 -178v-72q0 -74 14 -104q19 -41 77 -41q89 0 89 145v72q0 73 -10 168l190 10q-10 -120 -10 -178v-143q0 -60 10 -192h-170zM389 -167h-144q2 42 2 32
q0 13 -5 78l74 4l73 5q-4 -48 -4 -71q0 -15 4 -48z" />
    <glyph glyph-name="glyph351" unicode="&#x1ee6;" horiz-adv-x="759" 
d="M501 0l-7 90h-2q-22 -37 -64 -66q-59 -41 -128 -41q-222 0 -222 292v194q0 85 -10 243h220q-10 -85 -10 -243v-164q0 -72 10 -102q19 -55 75 -55q52 0 82 55q26 46 26 102v164q0 85 -10 243h220q-10 -85 -10 -243v-194q0 -132 20 -275h-190zM415 712l-75 -4q0 3 -1 8
t-1 8q0 25 29 53t29 33q0 18 -24 18q-19 0 -55 -8l1 51q49 7 62 7q88 0 88 -62q0 -24 -27 -52t-27 -40q0 -9 1 -12z" />
    <glyph glyph-name="glyph352" unicode="&#x1ee7;" 
d="M415 0l-4 74q-40 -42 -66 -59q-49 -32 -111 -32q-102 0 -144 67q-35 54 -35 163v122q0 73 -10 168l190 10q-10 -118 -10 -178v-72q0 -74 14 -104q19 -41 77 -41q89 0 89 145v72q0 73 -10 168l190 10q-10 -120 -10 -178v-143q0 -60 10 -192h-170zM354 517l-75 -4q0 3 -1 8
t-1 8q0 25 29 53t29 33q0 18 -24 18q-19 0 -55 -8l1 51q49 7 62 7q88 0 88 -62q0 -24 -27 -52t-27 -40q0 -9 1 -12z" />
    <glyph glyph-name="glyph353" unicode="&#x1ee8;" horiz-adv-x="759" 
d="M676 654q-5 -62 -5 -185v-194q0 -132 20 -275h-190l-7 90h-2q-22 -37 -64 -66q-59 -41 -128 -41q-222 0 -222 292v194q0 85 -10 243h220q-10 -85 -10 -243v-164q0 -72 10 -102q19 -55 75 -55q52 0 82 55q26 46 26 102v164q0 85 -10 243q90 -4 120 0q17 2 45.5 -17
t38.5 -19q7 0 13 3q29 14 27 29t-21 18q-29 5 -29 28q0 29 26 34q10 2 19 2q52 0 59 -54q2 -17 -9 -35.5t-26 -26.5q-24 -13 -48 -20zM418 730l-41 -4l-41 -3q43 62 76 135l139 7q-51 -46 -133 -135z" />
    <glyph glyph-name="glyph354" unicode="&#x1ee9;" 
d="M582 475q-7 -89 -7 -140v-143q0 -60 10 -192h-170l-4 74q-40 -42 -66 -59q-49 -32 -111 -32q-102 0 -144 67q-35 54 -35 163v122q0 73 -10 168l190 10q-10 -118 -10 -178v-72q0 -74 14 -104q19 -41 77 -41q89 0 89 145v72q0 73 -10 168l100 10q16 2 39 -9.5t32 -11.5
q8 0 18 6q18 11 16 23t-20.5 16.5t-22.5 14.5q-2 5 -2 10q0 33 41 33q46 0 53 -49q2 -14 -8.5 -31.5t-23.5 -23.5q-22 -11 -35 -16zM357 525l-41 -4l-41 -3q43 62 76 135l139 7q-51 -46 -133 -135z" />
    <glyph glyph-name="glyph355" unicode="&#x1eea;" horiz-adv-x="759" 
d="M676 654q-5 -62 -5 -185v-194q0 -132 20 -275h-190l-7 90h-2q-22 -37 -64 -66q-59 -41 -128 -41q-222 0 -222 292v194q0 85 -10 243h220q-10 -85 -10 -243v-164q0 -72 10 -102q19 -55 75 -55q52 0 82 55q26 46 26 102v164q0 85 -10 243q90 -4 120 0q17 2 45.5 -17
t38.5 -19q7 0 13 3q29 14 27 29t-21 18q-29 5 -29 28q0 29 26 34q10 2 19 2q52 0 59 -54q2 -17 -9 -35.5t-26 -26.5q-24 -13 -48 -20zM418 723l-41 3l-41 4q-17 25 -62 66q-55 51 -71 69l139 -7q33 -73 76 -135z" />
    <glyph glyph-name="glyph356" unicode="&#x1eeb;" 
d="M582 475q-7 -89 -7 -140v-143q0 -60 10 -192h-170l-4 74q-40 -42 -66 -59q-49 -32 -111 -32q-102 0 -144 67q-35 54 -35 163v122q0 73 -10 168l190 10q-10 -118 -10 -178v-72q0 -74 14 -104q19 -41 77 -41q89 0 89 145v72q0 73 -10 168l100 10q16 2 39 -9.5t32 -11.5
q8 0 18 6q18 11 16 23t-20.5 16.5t-22.5 14.5q-2 5 -2 10q0 33 41 33q46 0 53 -49q2 -14 -8.5 -31.5t-23.5 -23.5q-22 -11 -35 -16zM357 518l-41 3l-41 4q-17 25 -62 66q-55 51 -71 69l139 -7q33 -73 76 -135z" />
    <glyph glyph-name="glyph357" unicode="&#x1eec;" horiz-adv-x="759" 
d="M676 654q-5 -62 -5 -185v-194q0 -132 20 -275h-190l-7 90h-2q-22 -37 -64 -66q-59 -41 -128 -41q-222 0 -222 292v194q0 85 -10 243h220q-10 -85 -10 -243v-164q0 -72 10 -102q19 -55 75 -55q52 0 82 55q26 46 26 102v164q0 85 -10 243q90 -4 120 0q17 2 45.5 -17
t38.5 -19q7 0 13 3q29 14 27 29t-21 18q-29 5 -29 28q0 29 26 34q10 2 19 2q52 0 59 -54q2 -17 -9 -35.5t-26 -26.5q-24 -13 -48 -20zM415 712l-75 -4q0 3 -1 8t-1 8q0 25 29 53t29 33q0 18 -24 18q-19 0 -55 -8l1 51q49 7 62 7q88 0 88 -62q0 -24 -27 -52t-27 -40
q0 -9 1 -12z" />
    <glyph glyph-name="glyph358" unicode="&#x1eed;" 
d="M582 475q-7 -89 -7 -140v-143q0 -60 10 -192h-170l-4 74q-40 -42 -66 -59q-49 -32 -111 -32q-102 0 -144 67q-35 54 -35 163v122q0 73 -10 168l190 10q-10 -118 -10 -178v-72q0 -74 14 -104q19 -41 77 -41q89 0 89 145v72q0 73 -10 168l100 10q16 2 39 -9.5t32 -11.5
q8 0 18 6q18 11 16 23t-20.5 16.5t-22.5 14.5q-2 5 -2 10q0 33 41 33q46 0 53 -49q2 -14 -8.5 -31.5t-23.5 -23.5q-22 -11 -35 -16zM354 517l-75 -4q0 3 -1 8t-1 8q0 25 29 53t29 33q0 18 -24 18q-19 0 -55 -8l1 51q49 7 62 7q88 0 88 -62q0 -24 -27 -52t-27 -40q0 -9 1 -12
z" />
    <glyph glyph-name="glyph359" unicode="&#x1eee;" horiz-adv-x="759" 
d="M676 654q-5 -62 -5 -185v-194q0 -132 20 -275h-190l-7 90h-2q-22 -37 -64 -66q-59 -41 -128 -41q-222 0 -222 292v194q0 85 -10 243h220q-10 -85 -10 -243v-164q0 -72 10 -102q19 -55 75 -55q52 0 82 55q26 46 26 102v164q0 85 -10 243q90 -4 120 0q17 2 45.5 -17
t38.5 -19q7 0 13 3q29 14 27 29t-21 18q-29 5 -29 28q0 29 26 34q10 2 19 2q52 0 59 -54q2 -17 -9 -35.5t-26 -26.5q-24 -13 -48 -20zM280 749l-54 5q26 94 107 87q20 -2 60 -32q12 -9 37 -20q21 -5 31 29l54 6q-11 -40 -37 -66q-30 -30 -68 -27q-23 2 -56 33q-18 17 -40 16
t-34 -31z" />
    <glyph glyph-name="glyph360" unicode="&#x1eef;" 
d="M582 475q-7 -89 -7 -140v-143q0 -60 10 -192h-170l-4 74q-40 -42 -66 -59q-49 -32 -111 -32q-102 0 -144 67q-35 54 -35 163v122q0 73 -10 168l190 10q-10 -118 -10 -178v-72q0 -74 14 -104q19 -41 77 -41q89 0 89 145v72q0 73 -10 168l100 10q16 2 39 -9.5t32 -11.5
q8 0 18 6q18 11 16 23t-20.5 16.5t-22.5 14.5q-2 5 -2 10q0 33 41 33q46 0 53 -49q2 -14 -8.5 -31.5t-23.5 -23.5q-22 -11 -35 -16zM220 553l-54 5q26 94 107 87q20 -2 60 -32q12 -9 37 -20q21 -5 31 29l54 6q-11 -40 -37 -66q-30 -30 -68 -27q-23 2 -56 33q-18 17 -40 16
t-34 -31z" />
    <glyph glyph-name="glyph361" unicode="&#x1ef0;" horiz-adv-x="759" 
d="M676 654q-5 -62 -5 -185v-194q0 -132 20 -275h-190l-7 90h-2q-22 -37 -64 -66q-59 -41 -128 -41q-222 0 -222 292v194q0 85 -10 243h220q-10 -85 -10 -243v-164q0 -72 10 -102q19 -55 75 -55q52 0 82 55q26 46 26 102v164q0 85 -10 243q90 -4 120 0q17 2 45.5 -17
t38.5 -19q7 0 13 3q29 14 27 29t-21 18q-29 5 -29 28q0 29 26 34q10 2 19 2q52 0 59 -54q2 -17 -9 -35.5t-26 -26.5q-24 -13 -48 -20zM450 -167h-144q2 42 2 32q0 13 -5 78l74 4l73 5q-4 -48 -4 -71q0 -15 4 -48z" />
    <glyph glyph-name="glyph362" unicode="&#x1ef1;" 
d="M582 475q-7 -89 -7 -140v-143q0 -60 10 -192h-170l-4 74q-40 -42 -66 -59q-49 -32 -111 -32q-102 0 -144 67q-35 54 -35 163v122q0 73 -10 168l190 10q-10 -118 -10 -178v-72q0 -74 14 -104q19 -41 77 -41q89 0 89 145v72q0 73 -10 168l100 10q16 2 39 -9.5t32 -11.5
q8 0 18 6q18 11 16 23t-20.5 16.5t-22.5 14.5q-2 5 -2 10q0 33 41 33q46 0 53 -49q2 -14 -8.5 -31.5t-23.5 -23.5q-22 -11 -35 -16zM389 -167h-144q2 42 2 32q0 13 -5 78l74 4l73 5q-4 -48 -4 -71q0 -15 4 -48z" />
    <glyph glyph-name="glyph363" unicode="&#x1ef2;" horiz-adv-x="667" 
d="M451 0h-210q5 98 5 172v122l-115 206q-50 90 -136 207l218 10q64 -107 101 -183l45 -93l38 79q28 57 75 187l201 10l-227 -426v-119q0 -39 5 -172zM398 723l-41 3l-41 4q-17 25 -62 66q-55 51 -71 69l139 -7q33 -73 76 -135z" />
    <glyph glyph-name="glyph364" unicode="&#x1ef3;" horiz-adv-x="611" 
d="M327 -216l-206 -12q35 62 69 159l26 74l-69 175q-69 174 -156 323l204 10q83 -196 115 -361h2q8 61 44 186q38 131 45 165l195 10q-34 -78 -112 -276l-80 -215q-48 -129 -77 -238zM347 518l-41 3l-41 4q-17 25 -62 66q-55 51 -71 69l139 -7q33 -73 76 -135z" />
    <glyph glyph-name="glyph365" unicode="&#x1ef4;" horiz-adv-x="667" 
d="M451 0h-210q5 98 5 172v122l-115 206q-50 90 -136 207l218 10q64 -107 101 -183l45 -93l38 79q28 57 75 187l201 10l-227 -426v-119q0 -39 5 -172zM420 -159h-144q2 42 2 32q0 13 -5 78l74 4l73 5q-4 -48 -4 -71q0 -15 4 -48z" />
    <glyph glyph-name="glyph366" unicode="&#x1ef5;" horiz-adv-x="611" 
d="M327 -216l-206 -12q35 62 69 159l26 74l-69 175q-69 174 -156 323l204 10q83 -196 115 -361h2q8 61 44 186q38 131 45 165l195 10q-34 -78 -112 -276l-80 -215q-48 -129 -77 -238zM563 -157h-144q2 42 2 32q0 13 -5 78l74 4l73 5q-4 -48 -4 -71q0 -15 4 -48z" />
    <glyph glyph-name="glyph367" unicode="&#x1ef6;" horiz-adv-x="667" 
d="M451 0h-210q5 98 5 172v122l-115 206q-50 90 -136 207l218 10q64 -107 101 -183l45 -93l38 79q28 57 75 187l201 10l-227 -426v-119q0 -39 5 -172zM395 712l-75 -4q0 3 -1 8t-1 8q0 25 29 53t29 33q0 18 -24 18q-19 0 -55 -8l1 51q49 7 62 7q88 0 88 -62q0 -24 -27 -52
t-27 -40q0 -9 1 -12z" />
    <glyph glyph-name="glyph368" unicode="&#x1ef7;" horiz-adv-x="611" 
d="M327 -216l-206 -12q35 62 69 159l26 74l-69 175q-69 174 -156 323l204 10q83 -196 115 -361h2q8 61 44 186q38 131 45 165l195 10q-34 -78 -112 -276l-80 -215q-48 -129 -77 -238zM344 517l-75 -4q0 3 -1 8t-1 8q0 25 29 53t29 33q0 18 -24 18q-19 0 -55 -8l1 51
q49 7 62 7q88 0 88 -62q0 -24 -27 -52t-27 -40q0 -9 1 -12z" />
    <glyph glyph-name="glyph369" unicode="&#x1ef8;" horiz-adv-x="667" 
d="M451 0h-210q5 98 5 172v122l-115 206q-50 90 -136 207l218 10q64 -107 101 -183l45 -93l38 79q28 57 75 187l201 10l-227 -426v-119q0 -39 5 -172zM260 739l-54 5q26 94 107 87q20 -2 60 -32q12 -9 37 -20q21 -5 31 29l54 6q-11 -40 -37 -66q-30 -30 -68 -27
q-23 2 -56 33q-18 17 -40 16t-34 -31z" />
    <glyph glyph-name="glyph370" unicode="&#x1ef9;" horiz-adv-x="611" 
d="M327 -216l-206 -12q35 62 69 159l26 74l-69 175q-69 174 -156 323l204 10q83 -196 115 -361h2q8 61 44 186q38 131 45 165l195 10q-34 -78 -112 -276l-80 -215q-48 -129 -77 -238zM220 543l-54 5q26 94 107 87q20 -2 60 -32q12 -9 37 -20q21 -5 31 29l54 6
q-11 -40 -37 -66q-30 -30 -68 -27q-23 2 -56 33q-18 17 -40 16t-34 -31z" />
  </font>
</defs>
</svg>
