<?xml version="1.0" standalone="no"?>
<!DOCTYPE svg PUBLIC "-//W3C//DTD SVG 1.1//EN" "http://www.w3.org/Graphics/SVG/1.1/DTD/svg11.dtd" >
<svg xmlns="http://www.w3.org/2000/svg" xmlns:xlink="http://www.w3.org/1999/xlink" version="1.1">
<metadata>
Created by FontForge 20170910 at Tue Sep 20 19:13:52 2005
 By Jimmy Wärting
(c) Copyright 2005 by Tong Duc Thinh. All Rights Reserved
</metadata>
<defs>
<font id="SFUShannonBold" horiz-adv-x="556" >
  <font-face 
    font-family="SFU Shannon"
    font-weight="700"
    font-stretch="normal"
    units-per-em="1000"
    panose-1="0 0 7 0 0 0 0 0 0 0"
    ascent="800"
    descent="-200"
    x-height="508"
    cap-height="712"
    bbox="-92 -239 1262 1157"
    underline-thickness="50"
    underline-position="-115"
    unicode-range="U+0020-F002"
  />
<missing-glyph horiz-adv-x="500" 
d="M63 0v770h375v-770h-375zM125 63h250v645h-250v-645z" />
    <glyph glyph-name=".notdef" horiz-adv-x="500" 
d="M63 0v770h375v-770h-375zM125 63h250v645h-250v-645z" />
    <glyph glyph-name=".null" horiz-adv-x="0" 
 />
    <glyph glyph-name="nonmarkingreturn" horiz-adv-x="352" 
 />
    <glyph glyph-name="space" unicode=" " horiz-adv-x="352" 
 />
    <glyph glyph-name="exclam" unicode="!" horiz-adv-x="352" 
d="M258 231v0l-163 -10q3 86 3 164v107q0 84 -14 220l179 10q-9 -153 -9 -230v-107q0 -85 4 -154zM256 0v0h-160q2 26 2 75q0 27 -6 79l172 11q-10 -60 -10 -90q0 -49 2 -75z" />
    <glyph glyph-name="quotedbl" unicode="&#x22;" horiz-adv-x="574" 
d="M133 419l-26 293h150l-24 -293h-100zM343 419l-26 293h150l-24 -293h-100z" />
    <glyph glyph-name="numbersign" unicode="#" horiz-adv-x="611" 
d="M139 -17h-120q15 40 48 139l27 89q-21 -1 -94 -8l30 98h92l38 124q-61 -2 -97 -8l31 98h93l27 89q9 29 28 125h120q-30 -77 -44 -125l-26 -89h121l26 89q8 26 28 125h116q-13 -41 -39 -125l-26 -89q29 2 87 8l-30 -98h-84l-38 -124q40 1 88 8l-29 -98h-85l-27 -89
q-29 -94 -39 -139h-117q29 68 51 139l27 89h-123l-27 -89q-16 -54 -33 -139zM265 425l-38 -124h121l38 124h-121z" />
    <glyph glyph-name="dollar" unicode="$" horiz-adv-x="611" 
d="M352 -120l-110 -4q5 50 5 89v30q-86 11 -163 30l3 121q123 -41 190 -41q59 0 94.5 22t35.5 63q0 38 -38 67q-24 18 -90 47q-101 44 -142 78q-69 59 -69 144q0 77 61 129q50 42 126 57v24q0 12 -2 33q-3 25 -3 32h110q-5 -55 -5 -65v-24q35 -4 120 -21v-110
q-101 21 -144 21q-56 0 -92 -19.5t-36 -56.5q0 -32 38 -58q23 -17 87 -45q100 -44 143 -81q71 -61 71 -147t-66 -142q-52 -44 -129 -58v-31q0 -14 2.5 -42t2.5 -42z" />
    <glyph glyph-name="percent" unicode="%" horiz-adv-x="926" 
d="M209 287q-89 0 -132 71q-35 58 -35 150q0 89 35 148q44 73 132 73q81 0 126 -67q40 -60 40 -154q0 -88 -40 -150q-46 -71 -126 -71zM137 508q0 -53 16 -92q20 -49 56 -49q33 0 53 48q18 41 18 93q0 141 -71 141q-72 0 -72 -141zM717 -17q-89 0 -132 71q-35 58 -35 150
q0 89 35 148q44 73 132 73q81 0 126 -67q40 -60 40 -154q0 -88 -40 -150q-46 -71 -126 -71zM645 204q0 -53 16 -92q20 -49 56 -49q33 0 53 48q18 41 18 93q0 141 -71 141q-72 0 -72 -141zM337 -17l-102 -7q33 63 100 200l139 302q40 86 100 242l105 9q-80 -154 -125 -251
l-139 -302q-32 -70 -78 -193z" />
    <glyph glyph-name="ampersand" unicode="&#x26;" horiz-adv-x="759" 
d="M767 488l-4 -117q-89 -15 -182 -15q53 -76 53 -144q0 -97 -79.5 -163t-204.5 -66q-135 0 -221 74.5t-86 188.5q0 139 132 188q-83 63 -83 137q0 72 65 115t171 43q51 0 133 -13l3 -107q-76 20 -128 20q-114 0 -114 -79q0 -74 113 -100v-77q-59 0 -99 -23q-53 -32 -53 -99
q0 -69 47.5 -113.5t125.5 -44.5q63 0 105.5 38t42.5 103q0 109 -104 132v75h54q151 0 313 47z" />
    <glyph glyph-name="quotesingle" unicode="'" horiz-adv-x="352" 
d="M128 419l-26 293h150l-24 -293h-100z" />
    <glyph glyph-name="parenleft" unicode="(" horiz-adv-x="352" 
d="M349 -228l-151 -11q-131 212 -131 465q0 143 53 294q26 74 86 192l145 8q-68 -128 -94 -196q-55 -148 -55 -296q0 -157 49 -282q31 -79 98 -174z" />
    <glyph glyph-name="parenright" unicode=")" horiz-adv-x="352" 
d="M156 -228l-146 -8q67 123 94 196q55 148 55 296q0 157 -49 282q-31 80 -98 174l151 11q131 -208 131 -465q0 -143 -53 -294q-24 -69 -85 -192z" />
    <glyph glyph-name="asterisk" unicode="*" horiz-adv-x="611" 
d="M239 322v0l-93 76q73 62 106 99q-80 18 -147 24l49 112q64 -42 120 -75q-6 53 -32 154h120q-20 -104 -20 -154q68 35 129 75l37 -113q-79 -9 -147 -23q49 -57 110 -109l-99 -65q-32 79 -65 135q-40 -69 -68 -136z" />
    <glyph glyph-name="plus" unicode="+" horiz-adv-x="926" 
d="M534 -17l-144 -12q7 110 7 222v36h-58q-48 0 -164 -10l4 135h218v39q0 39 -7 175l144 11q-7 -87 -7 -186v-39h57q47 0 163 10l-4 -135h-216v-36q0 -108 7 -210z" />
    <glyph glyph-name="comma" unicode="," horiz-adv-x="352" 
d="M196 -71l-150 -4q28 90 36 121q13 51 20 116l163 8q-39 -101 -69 -241z" />
    <glyph glyph-name="hyphen" unicode="-" horiz-adv-x="352" 
d="M40 177l11 142h130q86 0 136 8l-11 -143h-138q-69 0 -128 -7z" />
    <glyph glyph-name="hyphen" unicode="&#x2010;" horiz-adv-x="352" 
d="M40 177l11 142h130q86 0 136 8l-11 -143h-138q-69 0 -128 -7z" />
    <glyph glyph-name="period" unicode="." horiz-adv-x="352" 
d="M263 0v0h-170q3 51 3 52q0 39 -7 107l179 11q-7 -63 -7 -102q0 -24 2 -68z" />
    <glyph glyph-name="slash" unicode="/" horiz-adv-x="352" 
d="M187 -6l-163 -11q31 120 54 238l60 308q19 98 33 230l161 14q-31 -125 -54 -244l-60 -308q-16 -82 -31 -227z" />
    <glyph glyph-name="zero" unicode="0" horiz-adv-x="611" 
d="M308 -17q-121 0 -197 109t-76 277q0 162 73 261t200 99q128 0 199 -99q68 -96 68 -261q0 -168 -70 -274q-74 -112 -197 -112zM170 369q0 -121 36 -196q38 -80 102 -80q62 0 98 81q34 76 34 195q0 250 -132 250q-69 0 -105 -71q-33 -65 -33 -179z" />
    <glyph glyph-name="one" unicode="1" horiz-adv-x="611" 
d="M398 0h-155q5 70 5 230v345q-44 -33 -109 -67l-60 96q127 57 219 125l90 -53q-5 -68 -5 -165v-281q0 -98 15 -230z" />
    <glyph glyph-name="two" unicode="2" horiz-adv-x="611" 
d="M50 0l-9 93q82 119 192 234q74 78 98 108q42 53 42 85q0 45 -36 72t-99 27q-42 0 -149 -24l5 112q88 22 173 22q109 0 175 -53t66 -137q0 -82 -130 -237q-61 -65 -174 -192h107q143 0 210 15l-6 -125h-465z" />
    <glyph glyph-name="three" unicode="3" horiz-adv-x="611" 
d="M88 602l3 111q117 16 153 16q107 0 173 -45.5t66 -122.5q0 -102 -111 -142v-2q143 -31 143 -183q0 -111 -83.5 -181t-211.5 -70q-61 0 -137 16v110q87 -16 114 -16q82 0 132.5 39t50.5 103q0 51 -43 83t-116 32h-45l6 95h23q53 0 93 20q50 25 50 74q0 80 -136 80
q-37 0 -124 -17z" />
    <glyph glyph-name="four" unicode="4" horiz-adv-x="611" 
d="M499 0h-145q5 95 5 114v75h-74q-120 0 -224 -10l-31 105q96 107 155 194q52 77 122 215l187 36q-5 -115 -5 -183v-257q35 1 90 5l-9 -105h-76v-75q0 -47 5 -114zM364 289v295h-2q-69 -156 -201 -295h203z" />
    <glyph glyph-name="five" unicode="5" horiz-adv-x="611" 
d="M203 602v-121q43 10 102 10q98 0 163.5 -69t65.5 -171q0 -117 -76 -190q-82 -78 -228 -78q-50 0 -133 17v110q97 -17 122 -17q86 0 133 42t47 113q0 60 -42 95q-46 38 -136 38q-44 0 -128 -20q5 100 5 119v106q0 79 -5 126h371l4 -115q-83 5 -189 5h-76z" />
    <glyph glyph-name="six" unicode="6" horiz-adv-x="611" 
d="M476 719v-110q-62 10 -91 10q-110 0 -156 -72q-25 -40 -36 -126l2 -2q57 59 144 59q94 0 155 -66q62 -69 62 -178t-66.5 -180t-166.5 -71q-138 0 -209 124q-56 100 -56 245q0 377 321 377q44 0 97 -10zM193 245q0 -62 37.5 -107t92.5 -45q50 0 81.5 40t31.5 101
q0 58 -35 96t-83 38q-53 0 -89 -35t-36 -88z" />
    <glyph glyph-name="seven" unicode="7" horiz-adv-x="611" 
d="M297 0h-179q77 244 278 602h-147q-75 0 -174 -15l4 125h423l32 -90q-98 -194 -142 -303q-64 -159 -95 -319z" />
    <glyph glyph-name="eight" unicode="8" horiz-adv-x="611" 
d="M304 -17q-110 0 -182.5 69.5t-72.5 173.5q0 77 42 130q22 28 73 61q-86 47 -86 137q0 69 58 119q64 56 168 56q110 0 173 -53q56 -49 56 -122q0 -100 -90 -136q125 -60 125 -192q0 -100 -74 -170q-76 -73 -190 -73zM184 226q0 -60 32.5 -96.5t87.5 -36.5q53 0 91 38
t38 95t-35 91t-94 34q-51 0 -85.5 -39t-34.5 -86zM198 548q0 -97 106 -97q45 0 77 28t32 69q0 33 -30 57t-79 24t-77.5 -24t-28.5 -57z" />
    <glyph glyph-name="nine" unicode="9" horiz-adv-x="611" 
d="M105 -1v110q90 -16 124 -16q110 0 156 72q26 41 36 128q-80 -59 -146 -59q-94 0 -155.5 67.5t-61.5 176.5t66.5 180t166.5 71q138 0 209 -124q56 -100 56 -245q0 -377 -321 -377q-38 0 -130 16zM178 478q0 -58 35 -96t83 -38q53 0 89 35t36 88q0 63 -37.5 107.5
t-92.5 44.5q-50 0 -81.5 -40t-31.5 -101z" />
    <glyph glyph-name="colon" unicode=":" horiz-adv-x="352" 
d="M263 0v0h-170q3 51 3 52q0 39 -7 107l179 11q-7 -63 -7 -102q0 -24 2 -68zM263 338v0h-170q3 51 3 52q0 39 -7 107l179 11q-7 -63 -7 -102q0 -24 2 -68z" />
    <glyph glyph-name="semicolon" unicode=";" horiz-adv-x="352" 
d="M189 -71l-150 -4q29 90 36 121q13 51 21 116l163 8q-40 -101 -70 -241zM263 338v0h-170q3 51 3 52q0 39 -7 107l179 11q-7 -63 -7 -102q0 -24 2 -68z" />
    <glyph glyph-name="less" unicode="&#x3c;" horiz-adv-x="926" 
d="M754 -29l-582 267v107l582 237v-116l-428 -178l428 -199v-118z" />
    <glyph glyph-name="equal" unicode="=" horiz-adv-x="926" 
d="M175 94l4 135h363q152 0 207 10l-4 -135h-351q-99 0 -219 -10zM175 344l4 135h363q152 0 207 10l-4 -135h-351q-99 0 -219 -10z" />
    <glyph glyph-name="greater" unicode="&#x3e;" horiz-adv-x="926" 
d="M173 -29v118l427 199l-427 178v116l581 -237v-107z" />
    <glyph glyph-name="question" unicode="?" horiz-adv-x="500" 
d="M280 229l-155 -11q-5 16 -5 40q0 74 48 135q16 21 88 88q48 44 48 75q0 63 -100 63q-65 0 -139 -26l4 116q90 20 166 20q97 0 158 -41.5t61 -112.5q0 -48 -28 -92q-18 -28 -61 -70q-47 -46 -62 -66q-28 -39 -28 -79q0 -19 5 -39zM288 0v0h-160q2 42 2 61q0 26 -8 94
l171 10q-7 -40 -7 -115q0 -18 2 -50z" />
    <glyph glyph-name="at" unicode="@" horiz-adv-x="1000" 
d="M801 14l26 -23q-32 -36 -107 -73q-105 -51 -216 -51q-179 0 -295.5 92.5t-116.5 238.5q0 178 134 312t314 134q153 0 257 -91t104 -233q0 -132 -86.5 -226t-194.5 -94q-72 0 -72 71q-61 -65 -130 -65q-57 0 -95 37.5t-38 105.5q0 112 82 219.5t177 107.5q81 0 116 -74
l22 54h87l-83 -207q-61 -152 -61 -170q0 -27 29 -27q65 0 128 70q73 81 73 198q0 125 -93 201q-88 72 -218 72q-145 0 -264.5 -123t-119.5 -271q0 -125 95 -206t253 -81q115 0 209 47q27 13 84 55zM365 114q0 -67 69 -67q41 0 73 33q14 14 37 52q37 61 63 144q21 68 21 97
q0 25 -16.5 44.5t-45.5 19.5q-67 0 -136 -126q-65 -116 -65 -197z" />
    <glyph glyph-name="A" unicode="A" horiz-adv-x="704" 
d="M192 0h-165q31 76 94 240l48 134q37 103 52 154q28 93 35 165l192 36q19 -107 97 -329l47 -134q49 -140 113 -266h-175q-5 13 -67 200h-219q-32 -105 -52 -200zM271 295h167q-29 98 -39 135q-26 97 -39 164h-2q-18 -79 -87 -299z" />
    <glyph glyph-name="B" unicode="B" horiz-adv-x="648" 
d="M245 340v-235q24 -10 60 -10q75 0 116.5 33t41.5 95q0 57 -45 88.5t-119 31.5zM189 0h-99q5 97 5 184v326q0 111 -20 202h114q27 0 81 5t81 5q93 0 157 -48.5t64 -128.5q0 -106 -123 -151v-2q65 -13 112 -59q52 -52 52 -122q0 -109 -86 -166q-76 -50 -198 -50
q-23 0 -70 2.5t-70 2.5zM245 618v-188q26 -2 38 -2q65 0 102 25.5t37 71.5t-34 73q-32 24 -77 24q-22 0 -66 -4z" />
    <glyph glyph-name="C" unicode="C" horiz-adv-x="537" 
d="M523 116v-125q-39 -8 -102 -8q-182 0 -288 119q-101 113 -101 289q0 154 96 246t266 92q62 0 118 -13v-125q-80 13 -113 13q-101 0 -159 -60t-58 -167q0 -119 66 -192q69 -77 189 -77q49 0 86 8z" />
    <glyph glyph-name="D" unicode="D" horiz-adv-x="704" 
d="M155 0h-70q5 97 5 184v326q0 111 -20 202h65q25 0 75 5t75 5q156 0 262 -88q128 -107 128 -310q0 -168 -107 -255q-92 -74 -240 -74q-29 0 -86.5 2.5t-86.5 2.5zM240 594v-466q30 -8 65 -8q109 0 163 46q57 50 57 159q0 133 -69 206q-63 66 -163 66q-2 0 -53 -3z" />
    <glyph glyph-name="E" unicode="E" 
d="M496 0h-405q5 97 5 184v326q0 111 -20 202h409l7 -115q-85 5 -193 5h-53v-173h53q122 0 186 5l-5 -120q-70 5 -181 5h-53v-209h53q107 0 206 15z" />
    <glyph glyph-name="F" unicode="F" horiz-adv-x="519" 
d="M248 0h-160q5 97 5 184v326q0 111 -20 202h409l7 -115q-85 5 -193 5h-53v-173h53q122 0 186 5l-5 -120q-70 5 -181 5h-53v-135q0 -54 5 -184z" />
    <glyph glyph-name="G" unicode="G" horiz-adv-x="648" 
d="M600 358v-177q0 -28 5 -181q-70 -17 -163 -17q-182 0 -295.5 111.5t-113.5 282.5q0 162 102 257t277 95q55 0 148 -17v-122q-107 14 -137 14q-113 0 -176.5 -59.5t-63.5 -166.5q0 -127 79 -202q71 -68 174 -68q22 0 42 5v130h-122v115q70 -5 126 -5q78 0 118 5z" />
    <glyph glyph-name="H" unicode="H" horiz-adv-x="759" 
d="M252 0h-160q5 97 5 184v326q0 111 -20 202h175q-5 -127 -5 -202v-74h268v74q0 111 -20 202h175q-5 -127 -5 -202v-326q0 -54 5 -184h-160q5 97 5 184v142h-268v-142q0 -54 5 -184z" />
    <glyph glyph-name="I" unicode="I" horiz-adv-x="333" 
d="M263 0h-175q5 97 5 184v278q0 144 -20 250h175q0 -22 -2.5 -90t-2.5 -112v-260q0 -99 20 -250z" />
    <glyph glyph-name="J" unicode="J" horiz-adv-x="370" 
d="M285 510v-448q0 -104 -29 -152q-51 -84 -202 -84q-48 0 -93 6v125q31 -6 63 -6q76 0 97 55q14 36 14 151v305q0 144 -20 250h175q0 -27 -3 -105q-2 -68 -2 -97z" />
    <glyph glyph-name="K" unicode="K" horiz-adv-x="685" 
d="M681 0h-190q-101 132 -143 203l-96 163l119 195q56 91 81 151h168l-219 -334l62 -98q76 -121 218 -280zM252 0h-160q5 87 5 184v326q0 111 -20 202h175q-5 -127 -5 -202v-326q0 -54 5 -184z" />
    <glyph glyph-name="L" unicode="L" horiz-adv-x="519" 
d="M509 0h-422q5 97 5 184v326q0 111 -20 202h175q-5 -127 -5 -202v-400h67q93 0 208 15z" />
    <glyph glyph-name="M" unicode="M" horiz-adv-x="981" 
d="M208 0h-140q5 61 13 210l7 258q2 74 2 82q0 15 -8 162h224q47 -148 95 -297q74 -234 84 -288h2q86 300 187 585h220v-229l7 -273q2 -90 16 -210h-160q7 71 4 210l-8 352h-2q-125 -331 -184 -562l-169 -17q-17 82 -82 273q-52 153 -105 306h-2l-8 -352q-2 -99 7 -210z" />
    <glyph glyph-name="N" unicode="N" horiz-adv-x="778" 
d="M235 0h-150q10 110 10 216v246q0 90 -18 250h170q227 -352 315 -542l2 2l-11 322q-5 146 -10 218h150q-10 -80 -10 -218v-317q0 -70 7 -177l-162 -17q-117 209 -306 549l-2 -2l5 -314q1 -93 10 -216z" />
    <glyph glyph-name="O" unicode="O" horiz-adv-x="722" 
d="M363 -17q-144 0 -237 111t-93 274q0 161 90 261t240 100q148 0 239 -103q88 -100 88 -258q0 -162 -90 -272q-92 -113 -237 -113zM183 368q0 -110 51 -185t129 -75t129 77q48 74 48 183q0 107 -47.5 171.5t-129.5 64.5q-86 0 -134 -67q-46 -63 -46 -169z" />
    <glyph glyph-name="P" unicode="P" horiz-adv-x="593" 
d="M252 0h-160q5 97 5 184v326q0 111 -20 202h81q30 0 87.5 5t85.5 5q118 0 183.5 -55.5t65.5 -158.5q0 -143 -141 -209q-90 -42 -192 -42v-73q0 -54 5 -184zM247 607v-240q57 0 106 22q77 36 77 115q0 52 -31 80t-81 28q-31 0 -71 -5z" />
    <glyph glyph-name="Q" unicode="Q" horiz-adv-x="722" 
d="M221 -127l-100 42q36 73 92 112q-83 48 -132 144q-48 92 -48 197q0 161 90 261t240 100q148 0 239 -103q88 -100 88 -258q0 -120 -52 -215.5t-142 -139.5q33 -38 33 -39q20 -32 20 -81q0 -41 -16 -78l-103 20q9 40 9 55q0 41 -24 67t-59 26q-51 0 -90 -41
q-19 -21 -45 -69zM183 368q0 -110 51 -185t129 -75t129 77q48 74 48 183q0 107 -47.5 171.5t-129.5 64.5q-86 0 -134 -67q-46 -63 -46 -169z" />
    <glyph glyph-name="R" unicode="R" horiz-adv-x="667" 
d="M252 0h-160q5 97 5 184v326q0 111 -20 202h61q34 0 102.5 5t102.5 5q118 0 183.5 -54t65.5 -154q0 -79 -61 -134q-42 -38 -100 -56q66 -118 111 -180t123 -144h-189q-49 53 -101 142q-45 82 -90 163l-38 -3v-118q0 -54 5 -184zM247 606v-204q22 -2 33 -2q70 0 116 32.5
t46 81.5q0 47 -31 72.5t-81 25.5q-29 0 -83 -6z" />
    <glyph glyph-name="S" unicode="S" horiz-adv-x="519" 
d="M439 710v-128q-80 22 -139 22q-49 0 -79 -14q-34 -16 -34 -44q0 -30 31 -57q22 -20 76 -49q102 -55 141 -91q70 -66 70 -156q0 -92 -69 -151t-183 -59q-89 0 -202 36v129q120 -40 191 -40q113 0 113 67q0 45 -82 96q-136 83 -154 99q-82 70 -82 162q0 90 68.5 143.5
t184.5 53.5q54 0 149 -19z" />
    <glyph glyph-name="T" unicode="T" horiz-adv-x="574" 
d="M366 0h-160q5 82 5 216v386h-48q-84 0 -154 -10l7 120h395q92 0 152 10l-7 -120h-195v-386q0 -96 5 -216z" />
    <glyph glyph-name="U" unicode="U" horiz-adv-x="741" 
d="M660 0h-135q-2 24 -4 92h-2q-77 -109 -212 -109q-141 0 -188 121q-27 68 -27 218v174q0 99 -10 216h170q-10 -81 -10 -216v-117q0 -144 14 -193q22 -78 96 -78q148 0 148 271v117q0 99 -10 216h170q-10 -81 -10 -216v-217q0 -144 10 -279z" />
    <glyph glyph-name="V" unicode="V" horiz-adv-x="648" 
d="M416 7l-170 -24q-31 129 -71 258l-40 129q-56 181 -125 336l170 12q123 -396 147 -555h2l81 281q39 135 57 262l165 12q-34 -101 -98 -305l-45 -152q-29 -90 -73 -254z" />
    <glyph glyph-name="W" unicode="W" horiz-adv-x="944" 
d="M371 0l-195 -17q-16 137 -50 276l-31 127q-53 216 -94 320l155 12q31 -106 69 -298q32 -162 48 -277h2l45 217q44 210 61 346l170 12q3 -88 52 -362l38 -213h2l59 228q59 229 74 335l155 12q-33 -99 -94 -302l-45 -170q-40 -151 -59 -246l-195 -17q-8 69 -38 252
q-33 202 -39 247h-2q-27 -132 -53 -264q-33 -162 -35 -218z" />
    <glyph glyph-name="X" unicode="X" horiz-adv-x="648" 
d="M-13 0l259 367l-65 103q-55 88 -72 111q-46 67 -100 125l170 12l147 -235l48 74q11 17 80 149l170 12q-78 -118 -156 -228l-79 -111l109 -169q91 -142 153 -210h-170l-169 260l-42 -62q-63 -93 -113 -198h-170z" />
    <glyph glyph-name="Y" unicode="Y" horiz-adv-x="611" 
d="M405 0h-170q10 70 10 178v118l-89 168q-62 117 -154 242l165 12q66 -111 113 -210l48 -100l54 117q38 82 73 181l155 12l-215 -416v-124q0 -91 10 -178z" />
    <glyph glyph-name="Z" unicode="Z" 
d="M22 0l-7 106q265 362 341 496h-70q-18 0 -243 -15l4 125h475l9 -89q-114 -191 -348 -513h119q73 0 230 15v-125h-510z" />
    <glyph glyph-name="bracketleft" unicode="[" horiz-adv-x="352" 
d="M338 -228h-269q10 66 10 228v472q0 125 -10 240h274l6 -90l-135 5v-770l129 5z" />
    <glyph glyph-name="backslash" unicode="\" horiz-adv-x="352" 
d="M326 -17l-163 11q-7 70 -31 227l-60 308q-23 119 -54 244l161 -14q14 -132 33 -230l60 -308q23 -118 54 -238z" />
    <glyph glyph-name="bracketright" unicode="]" horiz-adv-x="352" 
d="M17 -228l-6 90l135 -5v770l-129 -5l5 90h269q-10 -66 -10 -228v-472q0 -125 10 -240h-274z" />
    <glyph glyph-name="asciicircum" unicode="^" horiz-adv-x="611" 
d="M28 247l210 465h108l237 -465h-116l-172 340l-151 -340h-116z" />
    <glyph glyph-name="underscore" unicode="_" horiz-adv-x="500" 
d="M0 -116v51h500v-51h-500z" />
    <glyph glyph-name="grave" unicode="`" horiz-adv-x="410" 
d="M311 580l-106 -7q-61 88 -123 155l126 8q43 -75 103 -156z" />
    <glyph glyph-name="a" unicode="a" 
d="M508 0h-125q-7 63 -7 86h-2q-73 -103 -179 -103q-72 0 -119 44t-47 116q0 94 80 150q77 53 204 53q18 0 54 -2q-7 86 -134 86q-43 0 -138 -19v95q79 19 163 19q152 0 202 -77q32 -49 32 -171v-102q0 -63 16 -175zM367 237v17q-44 7 -54 7q-68 0 -108.5 -29.5t-40.5 -74.5
q0 -28 22.5 -46t56.5 -18q58 0 93 48q31 41 31 96z" />
    <glyph glyph-name="b" unicode="b" horiz-adv-x="611" 
d="M174 0h-130q20 147 20 243v245q0 163 -20 275l160 10q-5 -87 -5 -190v-117q33 28 52 37q43 22 101 22q102 0 166.5 -79.5t64.5 -202.5q0 -116 -61.5 -188t-163.5 -72q-69 0 -116 28q-26 16 -62 57q0 -10 -6 -68zM189 243q0 -66 35 -108t97 -42q58 0 92.5 39t34.5 111
q0 70 -33 119q-37 53 -100 53q-126 0 -126 -172z" />
    <glyph glyph-name="c" unicode="c" horiz-adv-x="444" 
d="M418 98v-104q-46 -11 -87 -11q-124 0 -206 70q-92 79 -92 222q0 135 95 200q73 50 190 50q48 0 102 -9v-110q-70 9 -95 9q-157 0 -157 -140q0 -81 47 -130q50 -52 139 -52q12 0 64 5z" />
    <glyph glyph-name="d" unicode="d" horiz-adv-x="611" 
d="M564 0h-130q-2 20 -7 57q-37 -37 -57 -49q-42 -25 -102 -25q-105 0 -170.5 79t-65.5 202q0 114 64 187.5t166 73.5q53 0 94 -17q19 -7 61 -33v60q0 135 -20 228l160 10q-5 -110 -5 -238v-360q0 -91 12 -175zM167 265q0 -76 37.5 -124t96.5 -48q62 0 95 48q31 45 31 124
q0 150 -132 150q-62 0 -95 -40.5t-33 -109.5z" />
    <glyph glyph-name="e" unicode="e" 
d="M474 109v-110q-64 -16 -130 -16q-143 0 -229 87q-82 83 -82 216q0 105 70 172t178 67q128 0 191 -86q50 -69 50 -175v-16q-1 -11 -1 -16h-353q3 -50 40 -87q51 -52 153 -52q28 0 113 16zM168 317h219q0 35 -26 64q-30 34 -76 34q-55 0 -88 -35q-25 -27 -29 -63z" />
    <glyph glyph-name="f" unicode="f" horiz-adv-x="389" 
d="M256 0h-145q5 133 5 200v213h-30q-13 0 -73 -5l6 100h97v38q0 107 34 159q44 68 158 68q33 0 57 -5l6 -108q-39 3 -37 3q-53 0 -71 -28q-17 -24 -17 -91v-36h47q41 0 71 5l-6 -100h-107v-213q0 -77 5 -200z" />
    <glyph glyph-name="g" unicode="g" horiz-adv-x="630" 
d="M463 508l124 7q-20 -162 -20 -249q0 -17 2.5 -100.5t2.5 -125.5q0 -149 -76 -214t-245 -65q-60 0 -159 15l-4 112q115 -17 162 -17q120 0 161 45q31 35 31 124v38h-2q-51 -95 -169 -95q-107 0 -171.5 78.5t-64.5 204.5q0 116 65.5 187.5t177.5 71.5q67 0 116 -31
q21 -14 58 -52zM170 265q0 -74 37.5 -123t97.5 -49q63 0 98 48q34 45 34 125q0 149 -131 149q-65 0 -100.5 -40.5t-35.5 -109.5z" />
    <glyph glyph-name="h" unicode="h" horiz-adv-x="593" 
d="M203 0h-145q5 120 5 171v317q0 163 -20 275l160 10q-5 -100 -5 -225v-92q69 69 157 69q91 0 137 -68q38 -55 38 -140v-146q0 -43 10 -171h-140q-5 53 -5 171v85q0 67 -12 100q-22 59 -84 59t-85 -51q-16 -35 -16 -108v-85q0 -68 5 -171z" />
    <glyph glyph-name="i" unicode="i" horiz-adv-x="259" 
d="M205 0h-145q5 140 5 171v121q0 91 -15 211l155 10q-5 -96 -5 -159v-183q0 -31 5 -171zM50 614v68q0 30 -5 80l154 11q-4 -45 -4 -91v-60z" />
    <glyph glyph-name="j" unicode="j" horiz-adv-x="296" 
d="M229 354v-269q0 -161 -27 -222q-44 -102 -187 -102q-24 0 -64 6v122q24 -3 49 -3q63 0 82 42q12 28 12 108v256q0 91 -15 211l155 10q-5 -70 -5 -159zM79 614v68q0 30 -5 80l154 11q-4 -45 -4 -91v-60z" />
    <glyph glyph-name="k" unicode="k" horiz-adv-x="537" 
d="M204 0h-145q0 27 3 102q2 64 2 108v278q0 162 -20 275l160 10q0 -43 -2.5 -104.5t-2.5 -85.5v-373q0 -139 5 -210zM393 0l-190 268l154 235l161 10q-43 -54 -124 -162l-50 -72l74 -99q71 -94 145 -180h-170z" />
    <glyph glyph-name="l" unicode="l" horiz-adv-x="259" 
d="M204 0h-145q0 14 3 97q2 67 2 113v278q0 163 -20 275l160 10q-5 -87 -5 -190v-373q0 -139 5 -210z" />
    <glyph glyph-name="m" unicode="m" horiz-adv-x="889" 
d="M203 0h-145q5 140 5 171v121q0 76 -30 211l127 10q6 -23 18 -74q38 42 59 57q43 29 101 29q59 0 99 -34q22 -19 48 -62q68 96 167 96t142 -84q30 -58 30 -149v-121q0 -79 10 -171h-140q-5 143 -5 171v64q0 93 -14 130q-19 50 -73 50q-59 0 -80 -65q-11 -37 -11 -115v-64
q0 -79 10 -171h-140q-5 143 -5 171v98q0 146 -90 146q-50 0 -70 -45q-18 -40 -18 -135v-64q0 -31 5 -171z" />
    <glyph glyph-name="n" unicode="n" horiz-adv-x="593" 
d="M204 0h-145q5 140 5 171v121q0 76 -30 211l127 10q6 -23 18 -74q43 43 66 57q48 29 114 29q168 0 168 -236v-118q0 -79 10 -171h-140q-5 143 -5 171v98q0 146 -85 146q-62 0 -86 -45q-22 -40 -22 -135v-64q0 -31 5 -171z" />
    <glyph glyph-name="o" unicode="o" horiz-adv-x="593" 
d="M297 -17q-117 0 -192 77t-75 197q0 121 73.5 194.5t193.5 73.5q118 0 191.5 -74.5t73.5 -193.5q0 -116 -74 -195t-191 -79zM165 257q0 -72 35 -118t97 -46q64 0 98 47q32 44 32 117q0 158 -130 158q-65 0 -98.5 -42.5t-33.5 -115.5z" />
    <glyph glyph-name="p" unicode="p" horiz-adv-x="611" 
d="M209 -218l-165 -10q20 192 20 261v210q0 95 -30 260l127 10q6 -23 18 -74q35 41 60 57q45 29 109 29q105 0 170.5 -79t65.5 -202q0 -114 -64 -187.5t-166 -73.5q-53 0 -94 17q-19 7 -61 33v-60q0 -114 10 -191zM189 243q0 -150 132 -150q62 0 95 40.5t33 109.5
q0 76 -37.5 124t-96.5 48q-62 0 -94 -46.5t-32 -125.5z" />
    <glyph glyph-name="q" unicode="q" horiz-adv-x="611" 
d="M168 253q0 -74 33 -117t95 -43q132 0 132 150q0 172 -136 172q-55 0 -89.5 -45.5t-34.5 -116.5zM563 -216l-165 -12l12 94q8 75 8 122v45q-42 -26 -61 -33q-41 -17 -94 -17q-102 0 -166 76t-64 195t65.5 195t170.5 76q64 0 109 -29q25 -16 60 -57q5 22 18 64l127 10
q-30 -171 -30 -270v-210q0 -148 10 -249z" />
    <glyph glyph-name="r" unicode="r" horiz-adv-x="370" 
d="M208 0h-145q5 140 5 171v121q0 76 -30 211l134 10q7 -25 14 -77h2q17 36 58.5 62.5t84.5 26.5q14 0 21 -1l6 -114q-37 5 -42 5q-76 0 -99 -51q-14 -32 -14 -129v-64q0 -31 5 -171z" />
    <glyph glyph-name="s" unicode="s" horiz-adv-x="426" 
d="M352 516v-103q-72 12 -89 12q-90 0 -90 -40q0 -20 32 -43q14 -11 73 -44t84 -57q43 -44 43 -103q0 -73 -57.5 -114t-154.5 -41q-46 0 -146 23v110q102 -33 151 -33q29 0 50.5 13.5t21.5 37.5q0 21 -29 42q-14 10 -76 44q-127 70 -127 165q0 66 58 104q54 36 144 36
q45 0 112 -9z" />
    <glyph glyph-name="t" unicode="t" horiz-adv-x="389" 
d="M344 96l-8 -108q-50 -5 -60 -5q-68 0 -112 32q-62 45 -62 147v251q-3 0 -96 -5l7 100h89v100l144 50q-9 -101 -9 -133v-17q63 0 108 5l-7 -100h-101v-202q0 -65 9 -86q15 -32 65 -32q17 0 33 3z" />
    <glyph glyph-name="u" unicode="u" horiz-adv-x="593" 
d="M543 0h-130q-1 24 -5 70q-44 -44 -64 -57q-47 -30 -111 -30q-169 0 -169 224v137q0 49 -10 159l155 10q-1 -11 -6 -82q-4 -50 -4 -87v-73q0 -90 16 -128q20 -50 75 -50q65 0 90 51q18 38 18 127v73q0 49 -10 159l155 10q-1 -11 -6 -82q-4 -50 -4 -87v-137q0 -59 10 -207z
" />
    <glyph glyph-name="v" unicode="v" horiz-adv-x="519" 
d="M339 0l-151 -17q-29 114 -62 208l-37 105q-27 66 -85 207l145 10q51 -152 59 -180q37 -121 52 -210h2q47 154 108 380l145 10q-22 -57 -68 -185l-43 -122q-46 -132 -65 -206z" />
    <glyph glyph-name="w" unicode="w" horiz-adv-x="815" 
d="M325 0l-155 -17q-19 81 -39 150l-41 142q-11 37 -89 228l145 10q25 -80 72 -261l28 -129h2q67 239 88 380l145 10q33 -130 95 -390h2l33 128q24 91 60 252l145 10q-26 -68 -79 -225l-40 -131q-32 -104 -44 -157l-157 -17l-86 375h-2z" />
    <glyph glyph-name="x" unicode="x" 
d="M10 0l199 266l-57 78q-45 62 -138 159l165 10l104 -161l32 43q29 39 62 108l160 10l-186 -246l54 -76q83 -117 144 -191h-160l-109 179l-37 -51q-45 -62 -78 -128h-155z" />
    <glyph glyph-name="y" unicode="y" 
d="M291 -218l-160 -10q25 59 69 173l22 64l-53 140q-45 118 -166 354l150 10q62 -131 105 -267l32 -100h2l63 197q15 53 45 160l150 10l-172 -440q-53 -134 -87 -291z" />
    <glyph glyph-name="z" unicode="z" horiz-adv-x="463" 
d="M26 0v79l246 329h-79q-59 0 -149 -10l8 110h379l5 -75l-244 -333h92q80 0 153 10l-6 -110h-405z" />
    <glyph glyph-name="braceleft" unicode="{" horiz-adv-x="611" 
d="M461 -200v-28q-74 6 -132 43q-78 49 -78 133q0 30 13.5 89t13.5 89q0 73 -111 128v22q111 49 111 128q0 30 -13.5 90.5t-13.5 91.5q0 72 64 119q57 42 146 53v-28q-108 -31 -108 -145q0 -26 7 -77t7 -77q0 -100 -155 -166q67 -29 99 -56q56 -47 56 -110q0 -25 -7 -75
t-7 -73q0 -124 108 -151z" />
    <glyph glyph-name="bar" unicode="|" horiz-adv-x="333" 
d="M102 -228v940h130v-940h-130z" />
    <glyph glyph-name="braceright" unicode="}" horiz-adv-x="611" 
d="M146 -228v28q107 27 107 151q0 16 -6.5 70t-6.5 78q0 63 56 110q32 27 99 56q-155 66 -155 166q0 26 7 77t7 77q0 114 -108 145v28q89 -11 146 -53q64 -47 64 -119q0 -32 -13.5 -92t-13.5 -90q0 -78 110 -128v-22q-110 -57 -110 -128q0 -27 13.5 -87.5t13.5 -90.5
q0 -84 -78 -133q-58 -37 -132 -43z" />
    <glyph glyph-name="asciitilde" unicode="~" horiz-adv-x="926" 
d="M277 180v0h-105q0 280 175 280q126 0 172 -147q18 -59 62 -59q68 0 68 178h105q0 -278 -167 -278q-101 0 -148 95q-29 58 -39 74q-25 37 -50 37q-73 0 -73 -180z" />
    <glyph glyph-name="dagger" unicode="&#x2020;" horiz-adv-x="611" 
d="M383 -221l-145 -7q5 94 5 274v284h-53q-38 0 -116 -10l8 110h161v100q0 120 -5 175l140 7q-5 -74 -5 -182v-100h55q65 0 115 10l-8 -110h-162v-284q0 -117 10 -267z" />
    <glyph glyph-name="cent" unicode="&#xa2;" horiz-adv-x="611" 
d="M413 -17l-110 -4q5 30 5 74v35q-70 6 -138 78q-82 87 -82 212q0 113 73 181q61 56 147 64v18q0 24 -5 64l110 7q-5 -47 -5 -71v-18q28 -2 82 -10v-110q-62 10 -95 10q-79 0 -124 -35q-48 -37 -48 -106q0 -79 50.5 -130t138.5 -51q18 0 88 12v-110q-46 -12 -92 -12v-28
q0 -10 5 -70z" />
    <glyph glyph-name="sterling" unicode="&#xa3;" horiz-adv-x="611" 
d="M546 0h-426q23 130 23 303q0 3 -3 54h-89v100h87q-3 57 -3 58q0 84 50 139q68 75 217 75q23 0 102 -9v-110q-56 9 -93 9q-146 0 -146 -116q0 2 3 -46h37q27 0 132 5v-105h-162q3 -36 3 -71q0 -59 -10 -176h81q110 0 203 15z" />
    <glyph glyph-name="section" unicode="&#xa7;" horiz-adv-x="611" 
d="M468 713v-116q-90 22 -124 22q-49 0 -81.5 -17.5t-32.5 -47.5q0 -49 81 -83q138 -57 149 -64q81 -52 81 -145q0 -59 -38 -106q-30 -38 -75 -59q97 -62 97 -150q0 -80 -64 -127.5t-172 -47.5q-46 0 -184 30v118q121 -38 165 -38q55 0 87.5 18t32.5 48q0 49 -82 89
q-146 71 -154 76q-82 57 -82 146q0 111 110 159q-44 33 -57 50q-30 37 -30 90q0 74 64.5 122.5t168.5 48.5q57 0 140 -16zM192 271q0 -41 38.5 -69.5t87.5 -28.5q46 0 74.5 23.5t28.5 58.5q0 40 -40.5 68t-92.5 28q-41 0 -68.5 -23.5t-27.5 -56.5z" />
    <glyph glyph-name="bullet" unicode="&#x2022;" horiz-adv-x="611" 
d="M310 180q-74 0 -127.5 53t-53.5 127q0 75 53 128.5t128 53.5t128 -53.5t53 -128.5q0 -74 -53.5 -127t-127.5 -53z" />
    <glyph glyph-name="paragraph" unicode="&#xb6;" horiz-adv-x="611" 
d="M286 -193v437q-221 42 -222 226q-1 146 133 205q83 37 214 37h69v-39h-70v-866h-37v864q-32 -2 -50 -4v-860h-37z" />
    <glyph glyph-name="germandbls" unicode="&#xdf;" horiz-adv-x="574" 
d="M205 0h-145q0 14 3 97q2 67 2 113v296q0 267 237 267q76 0 125.5 -40.5t49.5 -100.5q0 -50 -39 -110.5t-39 -76.5q0 -22 37 -70q54 -70 69 -96q37 -64 37 -125q0 -78 -55.5 -124.5t-138.5 -46.5q-44 0 -97 12v104q27 -6 56 -6q40 0 67 14q33 18 33 53q0 44 -71.5 128
t-71.5 127q0 29 39 96.5t39 101.5q0 24 -17.5 37t-42.5 13q-49 0 -67 -42q-15 -34 -15 -115v-296q0 -139 5 -210z" />
    <glyph glyph-name="acute" unicode="&#xb4;" horiz-adv-x="410" 
d="M205 580l-112 -7q38 50 101 156l135 7q-65 -74 -124 -156z" />
    <glyph glyph-name="dieresis" unicode="&#xa8;" horiz-adv-x="410" 
d="M75 594v53q0 21 -2 61l104 6q-5 -47 -5 -85v-29zM236 594v53q0 31 -3 61l104 6q-4 -37 -4 -85v-29z" />
    <glyph glyph-name="AE" unicode="&#xc6;" horiz-adv-x="889" 
d="M427 292v148q0 72 -9 162h-2q-16 -60 -121 -310h132zM17 0l197 403q83 169 115 309h487l7 -115q-85 5 -193 5h-53v-173h53q122 0 186 5l-5 -120q-70 5 -181 5h-53v-209h53q107 0 206 15l-9 -125h-405q5 103 5 197h-179q-41 -89 -71 -197h-160z" />
    <glyph glyph-name="Oslash" unicode="&#xd8;" horiz-adv-x="722" 
d="M140 -17l-128 -7q59 71 104 129q-83 106 -83 263q0 161 90 261t240 100q108 0 188 -55q13 19 40 55l131 6q-46 -54 -103 -126q71 -99 71 -241q0 -162 -90 -272q-92 -113 -237 -113q-100 0 -181 59zM209 223l262 347q-45 34 -108 34q-86 0 -134 -67q-46 -63 -46 -169
q0 -82 26 -145zM519 483l-257 -340q47 -35 101 -35q78 0 129 77q48 74 48 183q0 62 -21 115z" />
    <glyph glyph-name="yen" unicode="&#xa5;" horiz-adv-x="611" 
d="M426 363l-33 -63v-43h195v-95h-195q2 -96 10 -164h-170q10 71 10 164h-194v95h194v37l-35 69h-159v95h111q-67 127 -155 249l170 10l152 -310l43 92q56 119 82 208l160 10l-136 -259h112v-95h-162z" />
    <glyph glyph-name="ordfeminine" unicode="&#xaa;" horiz-adv-x="611" 
d="M476 371h-111q-5 48 -5 56q-56 -66 -128 -66q-52 0 -85.5 31t-33.5 77q0 59 64 95q59 34 141 34q18 0 46 -2q-14 58 -88 58q-41 0 -128 -17v76q80 16 140 16q176 0 176 -133v-126q0 -21 5 -49q6 -44 7 -50zM223 486q0 -22 15.5 -36t36.5 -14q44 0 69 41q20 32 20 72
q-16 2 -23 2q-118 0 -118 -65z" />
    <glyph glyph-name="ordmasculine" unicode="&#xba;" horiz-adv-x="611" 
d="M307 357q-82 0 -137 53t-55 138q0 82 53.5 131.5t138.5 49.5q84 0 137 -50t53 -131t-54 -136t-136 -55zM225 548q0 -47 23 -76.5t59 -29.5t58 29.5t22 76.5q0 96 -80 96q-38 0 -60 -26t-22 -70z" />
    <glyph glyph-name="ae" unicode="&#xe6;" horiz-adv-x="889" 
d="M367 208v17q-44 7 -54 7q-68 0 -108.5 -21.5t-40.5 -53.5q0 -28 22.5 -46t56.5 -18q58 0 93 38q31 34 31 77zM814 109v-110q-64 -16 -130 -16q-151 0 -239 107q-93 -107 -222 -107q-84 0 -139 44t-55 116q0 82 80 129q77 45 204 45q18 0 54 -2q-3 56 -30 83
q-32 32 -104 32q-43 0 -138 -19v95q79 19 163 19q121 0 185 -69q67 69 178 69q128 0 191 -86q50 -69 50 -175v-16q-1 -11 -1 -16h-353q3 -50 40 -87q51 -52 153 -52q28 0 113 16zM508 317h219q0 35 -26 64q-30 34 -76 34q-55 0 -88 -35q-25 -27 -29 -63z" />
    <glyph glyph-name="oslash" unicode="&#xf8;" horiz-adv-x="593" 
d="M19 -34l84 96q-72 75 -72 195q0 121 73.5 194.5t193.5 73.5q78 0 136 -32l29 36l123 6l-81 -93q58 -77 58 -185q0 -116 -74 -195t-191 -79q-72 0 -126 31l-31 -39zM183 166l180 237q-29 12 -65 12q-65 0 -98.5 -42.5t-33.5 -115.5q0 -58 17 -91zM416 336l-174 -230
q29 -13 56 -13q64 0 98 47q32 44 32 117q0 45 -12 79z" />
    <glyph glyph-name="questiondown" unicode="&#xbf;" horiz-adv-x="500" 
d="M409 -85l-4 -116q-90 -20 -166 -20q-97 0 -158 41.5t-61 112.5q0 61 46 117q43 44 87 89q46 52 46 101q0 19 -5 39l155 11q5 -22 5 -40q0 -74 -48 -135q-16 -21 -88 -88q-48 -44 -48 -75q0 -63 100 -63q65 0 139 26zM352 353v0l-171 -10q7 75 7 115q0 18 -2 50h160
q-2 -42 -2 -61q0 -26 8 -94z" />
    <glyph glyph-name="exclamdown" unicode="&#xa1;" horiz-adv-x="352" 
d="M264 -204v0l-179 -10q9 153 9 230v107q0 85 -4 154l163 10q-3 -85 -3 -164v-107q0 -84 14 -220zM256 353v0l-172 -10q10 60 10 90q0 49 -2 75h160q-2 -26 -2 -75q0 -28 6 -80z" />
    <glyph glyph-name="florin" unicode="&#x192;" horiz-adv-x="611" 
d="M303 0h-150q27 143 40 251l20 162h-103l12 95h102l7 60q24 205 223 205q19 0 55 -4l-10 -108q-30 2 -45 2q-82 0 -93 -95l-7 -60h113l-12 -95h-108l-19 -162q-25 -213 -25 -251z" />
    <glyph glyph-name="guillemotleft" unicode="&#xab;" horiz-adv-x="519" 
d="M270 42l-126 -6q-34 67 -107 193q31 64 101 224l133 8l-104 -234zM483 42l-126 -6q-34 67 -107 193q49 102 100 224l133 8l-103 -234z" />
    <glyph glyph-name="guillemotright" unicode="&#xbb;" horiz-adv-x="519" 
d="M249 35l104 203l-103 216l126 6q52 -121 107 -224q-39 -75 -101 -193zM37 35l103 203l-103 216l126 6q52 -121 107 -224q-26 -44 -100 -193z" />
    <glyph glyph-name="ellipsis" unicode="&#x2026;" horiz-adv-x="926" 
d="M224 0v0h-135q0 7 1.5 21t1.5 22q0 12 -3 41q-3 34 -3 43l142 7q-6 -69 -6 -79q0 -9 1 -27t1 -28zM531 0v0h-135q0 7 1.5 21t1.5 22q0 12 -3 41q-3 34 -3 43l142 7q-6 -69 -6 -79q0 -9 1 -27t1 -28zM838 0v0h-135q0 7 1.5 21t1.5 22q0 12 -3 41q-3 34 -3 43l142 7
q-6 -69 -6 -79q0 -9 1 -27t1 -28z" />
    <glyph glyph-name="OE" unicode="&#x152;" horiz-adv-x="1000" 
d="M183 368q0 -110 51 -185t129 -75q82 0 134 77q49 74 49 183q0 107 -48.5 171.5t-134.5 64.5t-134 -67q-46 -63 -46 -169zM946 0h-387q6 51 6 53q-85 -70 -202 -70q-144 0 -237 111t-93 274q0 161 90 261t240 100q96 0 197 -75q-5 29 -9 58h384l7 -115q-85 5 -193 5h-53
v-173h53q122 0 186 5l-5 -120q-70 5 -181 5h-53v-209h53q107 0 206 15z" />
    <glyph glyph-name="oe" unicode="&#x153;" horiz-adv-x="944" 
d="M165 257q0 -72 35 -118t97 -46q64 0 99 47q32 44 32 117q0 158 -131 158q-65 0 -98.5 -42.5t-33.5 -115.5zM869 109v-110q-64 -16 -130 -16q-154 0 -237 97q-68 -97 -205 -97q-117 0 -192 77t-75 197q0 121 73.5 194.5t193.5 73.5q124 0 205 -80q69 80 174 80
q128 0 191 -86q50 -69 50 -175v-16q-1 -11 -1 -16h-353q3 -50 40 -87q51 -52 153 -52q28 0 113 16zM563 317h219q0 35 -26 64q-30 34 -76 34q-55 0 -88 -35q-25 -27 -29 -63z" />
    <glyph glyph-name="endash" unicode="&#x2013;" horiz-adv-x="611" 
d="M30 189l7 125h290q170 0 254 11l-7 -126h-310q-131 0 -234 -10z" />
    <glyph glyph-name="emdash" unicode="&#x2014;" horiz-adv-x="926" 
d="M30 189l8 125h511q193 0 344 10l-8 -125h-538q-117 0 -317 -10z" />
    <glyph glyph-name="quotedblleft" unicode="&#x201c;" horiz-adv-x="574" 
d="M223 471v0l-150 -4q28 92 36 121q13 52 20 116l162 8q-34 -90 -68 -241zM446 471v0l-150 -4q28 92 36 121q13 52 20 116l162 8q-34 -90 -68 -241z" />
    <glyph glyph-name="quotedblright" unicode="&#x201d;" horiz-adv-x="574" 
d="M222 471v0l-150 -4q29 90 36 121q13 51 21 116l162 8q-39 -101 -69 -241zM444 471v0l-150 -4q29 90 36 121q13 51 21 116l162 8q-35 -91 -69 -241z" />
    <glyph glyph-name="quoteleft" unicode="&#x2018;" horiz-adv-x="352" 
d="M227 471v0l-150 -4q28 92 36 121q13 52 20 116l162 8q-38 -102 -68 -241z" />
    <glyph glyph-name="quoteright" unicode="&#x2019;" horiz-adv-x="352" 
d="M228 471v0l-150 -4q28 90 36 121q13 51 20 116l162 8q-36 -97 -68 -241z" />
    <glyph glyph-name="fraction" unicode="&#x2044;" horiz-adv-x="298" 
d="M10 -17l-102 -7q33 63 100 200l139 302q40 86 100 242l105 9q-80 -154 -125 -251l-139 -302q-32 -70 -78 -193z" />
    <glyph glyph-name="currency" unicode="&#xa4;" horiz-adv-x="611" 
d="M95 118l-30 30l67 67q-47 51 -47 136q0 79 48 138l-70 70l32 31l69 -68q64 46 137 46q72 0 136 -46l69 68l32 -31l-70 -70q48 -49 48 -138q0 -83 -47 -136l67 -67l-30 -30l-66 66q-63 -47 -139 -47q-80 0 -140 47zM126 351q0 -72 51.5 -122.5t123.5 -50.5q71 0 122.5 51
t51.5 122q0 72 -51 124t-123 52t-123.5 -52t-51.5 -124z" />
    <glyph glyph-name="guilsinglleft" unicode="&#x2039;" horiz-adv-x="315" 
d="M269 42l-126 -6q-34 67 -107 193q49 102 100 224l133 8l-103 -234z" />
    <glyph glyph-name="guilsinglright" unicode="&#x203a;" horiz-adv-x="315" 
d="M35 35l103 196l-103 223l126 6q35 -79 107 -231q-51 -89 -100 -186z" />
    <glyph glyph-name="fi" unicode="&#xf001;" horiz-adv-x="630" 
d="M263 0h-145q5 133 5 200v213h-30q11 0 -73 -7l6 102h97v38q0 107 36 159q48 68 172 68q55 0 94 -7l6 -108q-42 5 -74 5q-64 0 -85 -28q-19 -24 -19 -91v-36h159q67 0 155 5q-5 -70 -5 -159v-183q0 -31 5 -171h-145q5 140 5 171v121q0 54 -5 121h-164v-213q0 -77 5 -200z
" />
    <glyph glyph-name="fl" unicode="&#xf002;" horiz-adv-x="630" 
d="M261 0h-145q5 133 5 200v213h-30q11 0 -73 -7l6 102h97v38q0 107 34 159q44 68 158 68q53 0 97 -12l158 12q-5 -79 -5 -190v-373q0 -139 5 -210h-145q0 26 2.5 97t2.5 113v278q0 110 -6 165q-44 10 -83 10q-53 0 -71 -28q-17 -24 -17 -91v-36h47q41 0 71 5l-6 -100h-107
v-213q0 -77 5 -200z" />
    <glyph glyph-name="daggerdbl" unicode="&#x2021;" horiz-adv-x="611" 
d="M384 -221l-145 -7q5 94 5 273v63h-53q-38 0 -116 -10l8 110h161v200h-53q-38 0 -116 -10l8 110h161v50q0 90 -5 147l140 7q0 -10 -2.5 -67.5t-2.5 -86.5v-50h55q65 0 115 10l-8 -110h-162v-200h55q65 0 115 10l-8 -110h-162v-63q0 -116 10 -266z" />
    <glyph glyph-name="periodcentered" horiz-adv-x="611" 
d="M397 255v0h-179q2 32 2 45q0 55 -11 130l195 11q-10 -97 -10 -116q0 -4 3 -70z" />
    <glyph glyph-name="quotesinglbase" unicode="&#x201a;" horiz-adv-x="352" 
d="M226 -71v0l-150 -4q27 86 36 121q12 50 20 116l162 8q-36 -97 -68 -241z" />
    <glyph glyph-name="quotedblbase" unicode="&#x201e;" horiz-adv-x="574" 
d="M227 -71v0l-150 -4q28 90 36 121q13 51 20 116l162 8q-36 -97 -68 -241zM450 -71v0l-150 -4q28 90 36 121q13 51 20 116l162 8q-36 -97 -68 -241z" />
    <glyph glyph-name="perthousand" unicode="&#x2030;" horiz-adv-x="1296" 
d="M199 287q-89 0 -132 71q-35 58 -35 150q0 89 35 148q44 73 132 73q81 0 126 -67q40 -60 40 -154q0 -88 -40 -150q-46 -71 -126 -71zM127 508q0 -53 16 -92q20 -49 56 -49q33 0 53 48q18 41 18 93q0 141 -71 141q-72 0 -72 -141zM707 -17q-89 0 -132 71q-35 58 -35 150
q0 89 35 148q44 73 132 73q81 0 126 -67q40 -60 40 -154q0 -88 -40 -150q-46 -71 -126 -71zM635 204q0 -53 16 -92q20 -49 56 -49q33 0 53 48q18 41 18 93q0 141 -71 141q-72 0 -72 -141zM1096 -17q-89 0 -132 71q-35 58 -35 150q0 89 35 148q44 73 132 73q81 0 126 -67
q40 -60 40 -154q0 -88 -40 -150q-46 -71 -126 -71zM1024 204q0 -53 16 -92q20 -49 56 -49q33 0 53 48q18 41 18 93q0 141 -71 141q-72 0 -72 -141zM327 -17l-102 -7q33 63 100 200l139 302q40 86 100 242l105 9q-80 -154 -125 -251l-139 -302q-32 -70 -78 -193z" />
    <glyph glyph-name="dotlessi" unicode="&#x131;" horiz-adv-x="259" 
d="M205 0h-145q5 140 5 171v121q0 96 -15 216l155 5q-5 -96 -5 -159v-183q0 -31 5 -171z" />
    <glyph glyph-name="circumflex" unicode="&#x2c6;" horiz-adv-x="410" 
d="M150 580l-117 -7q45 57 60 78q28 38 48 77l138 8q35 -63 46 -81q28 -45 52 -76l-107 -6l-60 97z" />
    <glyph glyph-name="tilde" unicode="&#x2dc;" horiz-adv-x="410" 
d="M103 594v0l-71 -3q0 50 22 86q26 44 76 44q42 0 89 -33q33 -23 53 -23q28 0 34 42l71 7q0 -41 -13 -73q-24 -56 -85 -56q-40 0 -75 19q-69 37 -71 37q-19 0 -25 -17q-2 -5 -5 -30z" />
    <glyph glyph-name="macron" unicode="&#xaf;" horiz-adv-x="410" 
d="M74 594v80h261v-80h-261z" />
    <glyph glyph-name="macron" unicode="&#x2c9;" horiz-adv-x="410" 
d="M74 594v80h261v-80h-261z" />
    <glyph glyph-name="breve" unicode="&#x2d8;" horiz-adv-x="410" 
d="M266 716l90 6q0 -52 -31 -94q-41 -55 -120 -55t-121 53q-31 40 -31 88l90 6q0 -77 66 -77q52 0 57 73z" />
    <glyph glyph-name="dotaccent" unicode="&#x2d9;" horiz-adv-x="410" 
d="M155 594v53q0 21 -2 61l104 6q-5 -47 -5 -85v-29z" />
    <glyph glyph-name="ring" unicode="&#x2da;" horiz-adv-x="410" 
d="M205 573q-41 0 -69.5 29t-28.5 70t29 70t69 29q41 0 69.5 -29.5t28.5 -69.5q0 -42 -29 -70.5t-69 -28.5zM167 672q0 -39 38 -39t38 39q0 16 -11 27.5t-27 11.5q-38 0 -38 -39z" />
    <glyph glyph-name="cedilla" unicode="&#xb8;" horiz-adv-x="410" 
d="M125 0h18q55 0 92 -23q49 -31 49 -97q0 -50 -36 -79t-95 -29q-10 0 -28 2v58h10q70 0 70 52q0 46 -66 46h-14v70z" />
    <glyph glyph-name="hungarumlaut" unicode="&#x2dd;" horiz-adv-x="410" 
d="M111 580l-111 -7q36 48 100 156l135 7q-65 -74 -124 -156zM286 580l-112 -7q38 50 101 156l135 7q-65 -74 -124 -156z" />
    <glyph glyph-name="ogonek" unicode="&#x2db;" horiz-adv-x="410" 
d="M362 -104l14 -56q-25 -12 -51 -23q-38 -15 -75 -15q-39 0 -63 22.5t-24 58.5q0 69 89 144l45 -10q-49 -67 -49 -103q0 -42 47 -42q19 0 67 24z" />
    <glyph glyph-name="caron" unicode="&#x2c7;" horiz-adv-x="410" 
d="M269 582l-138 -9q-35 63 -46 81q-28 45 -52 76l107 6l60 -97l60 90l117 7q-77 -95 -108 -154z" />
    <glyph glyph-name="Lslash" unicode="&#x141;" horiz-adv-x="580" 
d="M540 0h-422q5 97 5 184v55l-73 -52l-50 89l123 88v146q0 111 -20 202h175q-5 -127 -5 -202v-38l116 84l50 -89l-166 -120v-237h67q93 0 208 15z" />
    <glyph glyph-name="lslash" unicode="&#x142;" horiz-adv-x="278" 
d="M213 0h-145q5 66 5 202v61l-53 -52l-49 81l102 100v96q0 163 -20 275l160 10q-5 -73 -5 -162v-88l70 66l50 -80l-120 -116v-183q0 -139 5 -210z" />
    <glyph glyph-name="Eth" unicode="&#xd0;" horiz-adv-x="704" 
d="M155 0h-70q5 97 5 184v119l-81 -9l8 104h73v112q0 111 -20 202h65q25 0 75 5t75 5q156 0 262 -88q128 -107 128 -310q0 -168 -107 -255q-92 -74 -240 -74q-29 0 -86.5 2.5t-86.5 2.5zM240 303v-175q30 -8 65 -8q109 0 163 46q57 50 57 159q0 133 -69 206q-63 66 -163 66
q-2 0 -53 -3v-196h131l-7 -95h-124z" />
    <glyph glyph-name="eth" unicode="&#xf0;" horiz-adv-x="593" 
d="M485 687l-83 -30q160 -184 160 -400q0 -116 -74 -195t-191 -79t-192 77t-75 197q0 113 70 182t182 69q62 0 109 -27l2 2q-44 70 -100 132l-145 -59l-24 75l116 43q-53 44 -106 79l156 20q11 -9 64 -57l108 45zM165 257q0 -72 35 -118t97 -46q64 0 98 47q32 44 32 117
q0 141 -130 141q-132 0 -132 -141z" />
    <glyph glyph-name="Scaron" unicode="&#x160;" horiz-adv-x="519" 
d="M439 710v-128q-80 22 -139 22q-49 0 -79 -14q-34 -16 -34 -44q0 -30 31 -57q22 -20 76 -49q102 -55 141 -91q70 -66 70 -156q0 -92 -69 -151t-183 -59q-89 0 -202 36v129q120 -40 191 -40q113 0 113 67q0 45 -82 96q-136 83 -154 99q-82 70 -82 162q0 90 68.5 143.5
t184.5 53.5q54 0 149 -19zM334 787l-138 -9q-35 63 -46 81q-28 45 -52 76l107 6l60 -97l60 90l117 7q-77 -95 -108 -154z" />
    <glyph glyph-name="scaron" unicode="&#x161;" horiz-adv-x="426" 
d="M352 516v-103q-72 12 -89 12q-90 0 -90 -40q0 -20 32 -43q14 -11 73 -44t84 -57q43 -44 43 -103q0 -73 -57.5 -114t-154.5 -41q-46 0 -146 23v110q102 -33 151 -33q29 0 50.5 13.5t21.5 37.5q0 21 -29 42q-14 10 -76 44q-127 70 -127 165q0 66 58 104q54 36 144 36
q45 0 112 -9zM277 582l-138 -9q-35 63 -46 81q-28 45 -52 76l107 6l60 -97l60 90l117 7q-77 -95 -108 -154z" />
    <glyph glyph-name="Yacute" unicode="&#xdd;" horiz-adv-x="611" 
d="M405 0h-170q10 70 10 178v118l-89 168q-62 117 -154 242l165 12q63 -106 113 -210l48 -100l54 117q39 83 73 181l155 12l-215 -416v-124q0 -91 10 -178zM364 720l-70 -6q33 43 81 125l108 6q-21 -24 -66 -66q-34 -31 -53 -59z" />
    <glyph glyph-name="yacute" unicode="&#xfd;" 
d="M291 -218l-160 -10q21 48 69 173l22 64l-53 140q-44 116 -166 354l150 10q60 -128 105 -267l32 -100h2l63 197q1 4 45 160l150 10l-172 -440q-54 -138 -87 -291zM321 521l-70 -6q33 43 81 125l108 6q-21 -24 -66 -66q-34 -31 -53 -59z" />
    <glyph glyph-name="Thorn" unicode="&#xde;" horiz-adv-x="593" 
d="M252 0h-160q5 97 5 184v326q0 111 -20 202h175q-5 -100 -5 -106h84q118 0 183.5 -55.5t65.5 -158.5q0 -143 -141 -209q-90 -42 -192 -42v-33q0 -30 5 -108zM247 491v-240q57 0 106 22q77 36 77 115q0 52 -31 80t-81 28q-31 0 -71 -5z" />
    <glyph glyph-name="thorn" unicode="&#xfe;" horiz-adv-x="611" 
d="M189 243q0 -150 132 -150q62 0 95 40.5t33 109.5q0 76 -37.5 124t-96.5 48q-61 0 -93.5 -46.5t-32.5 -125.5zM209 -218l-165 -10q20 192 20 261v486q0 144 -20 244l160 10q-3 -54 -4 -202l-1 -120l2 -2q58 76 147 76q105 0 170.5 -79t65.5 -202q0 -114 -64 -187.5
t-166 -73.5q-53 0 -94 17q-19 7 -61 33v-60q0 -114 10 -191z" />
    <glyph glyph-name="Zcaron" unicode="&#x17d;" 
d="M22 0l-7 106q265 362 341 496h-70q-18 0 -243 -15l4 125h475l9 -89q-114 -191 -348 -513h119q73 0 230 15v-125h-510zM342 787l-138 -9q-35 63 -46 81q-28 45 -52 76l107 6l60 -97l60 90l117 7q-77 -95 -108 -154z" />
    <glyph glyph-name="zcaron" unicode="&#x17e;" horiz-adv-x="463" 
d="M26 0v79l246 329h-79q-59 0 -149 -10l8 110h379l5 -75l-244 -333h92q80 0 153 10l-6 -110h-405zM296 582l-138 -9q-35 63 -46 81q-28 45 -52 76l107 6l60 -97l60 90l117 7q-77 -95 -108 -154z" />
    <glyph glyph-name="onehalf" unicode="&#xbd;" horiz-adv-x="926" 
d="M251 297h-110q5 59 5 140v187q-24 -18 -65 -34l-35 61q77 35 130 78l70 -35v-257q0 -42 5 -140zM275 -17l-102 -7q33 63 100 200l139 302q40 86 100 242l105 9q-80 -154 -125 -251l-139 -302q-32 -70 -78 -193zM528 0l-3 63q38 63 102 133q81 89 81 119q0 19 -20.5 30.5
t-52.5 11.5q-17 0 -87 -12l3 73q61 14 106 14q64 0 105 -26q46 -29 46 -84q0 -32 -21 -66q-14 -22 -62 -77q-55 -64 -83 -104h58q21 0 121 10l-3 -85h-290z" />
    <glyph glyph-name="onequarter" unicode="&#xbc;" horiz-adv-x="926" 
d="M765 0h-95q5 68 5 80v29h-65q-41 0 -125 -7l-19 65q108 124 166 242l126 19q-3 -32 -3 -96v-158h56l-5 -65h-46v-31q0 -40 5 -78zM675 164v189h-2q-29 -63 -53 -100q-20 -29 -69 -89h124zM276 297h-110q5 59 5 140v187q-24 -18 -65 -34l-35 61q77 35 130 78l70 -35v-257
q0 -42 5 -140zM300 -17l-102 -7q33 63 100 200l139 302q40 86 100 242l105 9q-80 -154 -125 -251l-139 -302q-32 -70 -78 -193z" />
    <glyph glyph-name="onesuperior" unicode="&#xb9;" horiz-adv-x="389" 
d="M258 297h-110q5 59 5 140v187q-24 -18 -65 -34l-35 61q77 35 130 78l70 -35v-257q0 -42 5 -140z" />
    <glyph glyph-name="threequarters" unicode="&#xbe;" horiz-adv-x="926" 
d="M84 654v64q53 11 104 11q147 0 147 -101q0 -33 -19 -53q-12 -14 -43 -30q85 -26 85 -110q0 -64 -53 -106t-137 -42q-19 0 -82 7v64q38 -6 57 -6q48 0 81.5 23t33.5 60q0 32 -32 49q-28 15 -71 15h-17v65q97 0 97 48q0 52 -77 52q-14 0 -74 -10zM334 -17l-102 -7
q33 63 100 200l139 302q40 86 100 242l105 9q-80 -154 -125 -251l-139 -302q-32 -70 -78 -193zM793 0h-95q5 68 5 80v29h-65q-41 0 -125 -7l-19 65q108 124 166 242l126 19q-3 -32 -3 -96v-158h56l-5 -65h-46v-31q0 -40 5 -78zM703 164v189h-2q-29 -63 -53 -100
q-20 -29 -69 -89h124z" />
    <glyph glyph-name="threesuperior" unicode="&#xb3;" horiz-adv-x="389" 
d="M56 654v64q53 11 104 11q147 0 147 -101q0 -33 -18 -53q-11 -13 -41 -30q82 -25 82 -110q0 -64 -53 -106t-137 -42q-19 0 -82 7v64q38 -6 57 -6q48 0 81.5 23t33.5 60q0 32 -32 49q-28 15 -71 15h-17v65q97 0 97 48q0 52 -77 52q-14 0 -74 -10z" />
    <glyph glyph-name="twosuperior" unicode="&#xb2;" horiz-adv-x="389" 
d="M46 297l-3 63q38 63 102 133q81 89 81 119q0 19 -20.5 30.5t-52.5 11.5q-17 0 -87 -12l3 73q61 14 106 14q64 0 105 -26q46 -29 46 -84q0 -32 -21 -66q-14 -22 -62 -77q-55 -64 -83 -104h58q21 0 121 10l-3 -85h-290z" />
    <glyph glyph-name="brokenbar" unicode="&#xa6;" horiz-adv-x="352" 
d="M114 338v374h130v-374h-130zM114 -228v374h130v-374h-130z" />
    <glyph glyph-name="minus" unicode="&#x2212;" horiz-adv-x="926" 
d="M175 219l4 135h363q152 0 207 10l-4 -135h-351q-99 0 -219 -10z" />
    <glyph glyph-name="multiply" unicode="&#xd7;" horiz-adv-x="926" 
d="M277 -17l-103 94q46 41 140 132l62 65l-54 57q-76 81 -146 145l91 94l195 -206l52 55q62 65 134 156l93 -98l-192 -204l180 -192l-88 -98q-42 50 -127 146l-50 53z" />
    <glyph glyph-name="Adieresis" unicode="&#xc4;" horiz-adv-x="704" 
d="M192 0h-165q31 76 94 240l48 134q37 103 52 154q28 93 35 165l192 36q19 -107 97 -329l47 -134q49 -140 113 -266h-175q-5 13 -67 200h-219q-32 -105 -52 -200zM271 295h167q-29 98 -39 135q-26 97 -39 164h-2q-18 -79 -87 -299zM222 799v53q0 21 -2 61l104 6
q-5 -47 -5 -85v-29zM383 799v53q0 31 -3 61l104 6q-4 -37 -4 -85v-29z" />
    <glyph glyph-name="Aring" unicode="&#xc5;" horiz-adv-x="704" 
d="M192 0h-165q31 76 94 240l48 134q37 103 52 154q28 93 35 165l192 36q19 -107 97 -329l47 -134q49 -140 113 -266h-175q-5 13 -67 200h-219q-32 -105 -52 -200zM271 295h167q-29 98 -39 135q-26 97 -39 164h-2q-18 -79 -87 -299zM352 778q-41 0 -69.5 29t-28.5 70t29 70
t69 29q41 0 69.5 -29.5t28.5 -69.5q0 -42 -29 -70.5t-69 -28.5zM314 877q0 -39 38 -39t38 39q0 16 -11 27.5t-27 11.5q-38 0 -38 -39z" />
    <glyph glyph-name="Ccedilla" unicode="&#xc7;" horiz-adv-x="537" 
d="M278 -226v58h10q70 0 70 52q0 46 -66 46h-14v70h21v2q-126 34 -198 142q-69 104 -69 247q0 154 96 246t266 92q62 0 118 -13v-125q-80 13 -113 13q-101 0 -159 -60t-58 -167q0 -119 66 -192q69 -77 189 -77q49 0 86 8v-125q-39 -8 -102 -8q-26 0 -49 3l-2 -2
q67 -25 67 -104q0 -50 -36 -79t-95 -29q-10 0 -28 2z" />
    <glyph glyph-name="Eacute" unicode="&#xc9;" 
d="M496 0h-405q5 97 5 184v326q0 111 -20 202h409l7 -115q-85 5 -193 5h-53v-173h53q122 0 186 5l-5 -120q-70 5 -181 5h-53v-209h53q107 0 206 15zM321 760l-70 -6q33 43 81 125l108 6q-21 -24 -66 -66q-34 -31 -53 -59z" />
    <glyph glyph-name="Ntilde" unicode="&#xd1;" horiz-adv-x="778" 
d="M235 0h-150q10 110 10 216v246q0 90 -18 250h170q227 -352 315 -542l2 2l-11 322q-5 146 -10 218h150q-10 -80 -10 -218v-317q0 -70 7 -177l-162 -17q-117 209 -306 549l-2 -2l5 -314q1 -93 10 -216zM272 799v0l-71 -3q0 50 22 86q26 44 76 44q42 0 89 -33q33 -23 53 -23
q28 0 34 42l71 7q0 -41 -13 -73q-24 -56 -85 -56q-40 0 -75 19q-69 37 -71 37q-19 0 -25 -17q-2 -5 -5 -30z" />
    <glyph glyph-name="Odieresis" unicode="&#xd6;" horiz-adv-x="722" 
d="M363 -17q-144 0 -237 111t-93 274q0 161 90 261t240 100q148 0 239 -103q88 -100 88 -258q0 -162 -90 -272q-92 -113 -237 -113zM183 368q0 -110 51 -185t129 -75t129 77q48 74 48 183q0 107 -47.5 171.5t-129.5 64.5q-86 0 -134 -67q-46 -63 -46 -169zM221 799v53
q0 21 -2 61l104 6q-5 -47 -5 -85v-29zM382 799v53q0 31 -3 61l104 6q-4 -37 -4 -85v-29z" />
    <glyph glyph-name="Udieresis" unicode="&#xdc;" horiz-adv-x="741" 
d="M660 0h-135q-2 24 -4 92h-2q-77 -109 -212 -109q-141 0 -188 121q-27 68 -27 218v174q0 99 -10 216h170q-10 -81 -10 -216v-117q0 -144 14 -193q22 -78 96 -78q148 0 148 271v117q0 99 -10 216h170q-10 -81 -10 -216v-217q0 -144 10 -279zM241 799v53q0 21 -2 61l104 6
q-5 -47 -5 -85v-29zM402 799v53q0 31 -3 61l104 6q-4 -37 -4 -85v-29z" />
    <glyph glyph-name="aacute" unicode="&#xe1;" 
d="M508 0h-125q-7 63 -7 86h-2q-73 -103 -179 -103q-73 0 -119.5 44t-46.5 116q0 105 94 159q77 44 190 44q18 0 54 -2q-7 86 -134 86q-43 0 -138 -19v95q79 19 163 19q152 0 202 -77q32 -49 32 -171v-102q0 -63 16 -175zM367 237v17q-44 7 -54 7q-57 0 -98 -23
q-51 -28 -51 -81q0 -30 24 -47t55 -17q56 0 91 45q33 42 33 99zM293 571l-70 -6q33 43 81 125l108 6q-21 -24 -66 -66q-34 -31 -53 -59z" />
    <glyph glyph-name="agrave" unicode="&#xe0;" 
d="M508 0h-125q-7 63 -7 86h-2q-73 -103 -179 -103q-73 0 -119.5 44t-46.5 116q0 105 94 159q77 44 190 44q18 0 54 -2q-7 86 -134 86q-43 0 -138 -19v95q79 19 163 19q152 0 202 -77q32 -49 32 -171v-102q0 -63 16 -175zM367 237v17q-44 7 -54 7q-57 0 -98 -23
q-51 -28 -51 -81q0 -30 24 -47t55 -17q56 0 91 45q33 42 33 99zM293 565l-70 6q-19 28 -53 59q-45 42 -66 66l108 -6q18 -33 81 -125z" />
    <glyph glyph-name="acircumflex" unicode="&#xe2;" 
d="M508 0h-125q-7 63 -7 86h-2q-73 -103 -179 -103q-73 0 -119.5 44t-46.5 116q0 105 94 159q77 44 190 44q18 0 54 -2q-7 86 -134 86q-43 0 -138 -19v95q79 19 163 19q152 0 202 -77q32 -49 32 -171v-102q0 -63 16 -175zM367 237v17q-44 7 -54 7q-57 0 -98 -23
q-51 -28 -51 -81q0 -30 24 -47t55 -17q56 0 91 45q33 42 33 99zM213 550l-88 -5q29 37 81 116l103 6q23 -40 74 -117l-80 -5l-45 74z" />
    <glyph glyph-name="adieresis" unicode="&#xe4;" 
d="M508 0h-125q-7 63 -7 86h-2q-73 -103 -179 -103q-72 0 -119 44t-47 116q0 94 80 150q77 53 204 53q18 0 54 -2q-7 86 -134 86q-43 0 -138 -19v95q79 19 163 19q152 0 202 -77q32 -49 32 -171v-102q0 -63 16 -175zM367 237v17q-44 7 -54 7q-68 0 -108.5 -29.5t-40.5 -74.5
q0 -28 22.5 -46t56.5 -18q58 0 93 48q31 41 31 96zM148 594v53q0 21 -2 61l104 6q-5 -47 -5 -85v-29zM309 594v53q0 31 -3 61l104 6q-4 -37 -4 -85v-29z" />
    <glyph glyph-name="atilde" unicode="&#xe3;" 
d="M508 0h-125q-7 63 -7 86h-2q-73 -103 -179 -103q-73 0 -119.5 44t-46.5 116q0 105 94 159q77 44 190 44q18 0 54 -2q-7 86 -134 86q-43 0 -138 -19v95q79 19 163 19q152 0 202 -77q32 -49 32 -171v-102q0 -63 16 -175zM367 237v17q-44 7 -54 7q-57 0 -98 -23
q-51 -28 -51 -81q0 -30 24 -47t55 -17q56 0 91 45q33 42 33 99zM173 582l-44 2q8 32 33 56t56 22q28 -2 52 -26q9 -9 13 -12q8 -5 17 -6q22 -1 34 25h46q-7 -25 -24 -46q-27 -34 -66 -31q-25 2 -45 16q-32 27 -39 28q-18 2 -33 -28z" />
    <glyph glyph-name="aring" unicode="&#xe5;" 
d="M508 0h-125q-7 63 -7 86h-2q-73 -103 -179 -103q-72 0 -119 44t-47 116q0 94 80 150q77 53 204 53q18 0 54 -2q-7 86 -134 86q-43 0 -138 -19v95q79 19 163 19q152 0 202 -77q32 -49 32 -171v-102q0 -63 16 -175zM367 237v17q-44 7 -54 7q-68 0 -108.5 -29.5t-40.5 -74.5
q0 -28 22.5 -46t56.5 -18q58 0 93 48q31 41 31 96zM278 573q-41 0 -69.5 29t-28.5 70t29 70t69 29q41 0 69.5 -29.5t28.5 -69.5q0 -42 -29 -70.5t-69 -28.5zM240 672q0 -39 38 -39t38 39q0 16 -11 27.5t-27 11.5q-38 0 -38 -39z" />
    <glyph glyph-name="ccedilla" unicode="&#xe7;" horiz-adv-x="444" 
d="M217 -226v58h10q70 0 70 52q0 46 -66 46h-14v70h9v2q-86 24 -137 90q-56 73 -56 183q0 135 95 200q73 50 190 50q48 0 102 -9v-110q-70 9 -95 9q-157 0 -157 -140q0 -81 47 -130q50 -52 139 -52q12 0 64 5v-104q-46 -11 -87 -11q-12 0 -17 2l-2 -2q64 -25 64 -103
q0 -50 -36 -79t-95 -29q-10 0 -28 2z" />
    <glyph glyph-name="eacute" unicode="&#xe9;" 
d="M474 109v-110q-64 -16 -130 -16q-139 0 -225 82.5t-86 220.5q0 107 70.5 173t177.5 66q118 0 181 -73q60 -69 60 -188v-16q-1 -11 -1 -16h-353q4 -70 66 -107q52 -32 127 -32q28 0 113 16zM168 317h219q0 40 -30.5 69t-71.5 29q-46 0 -79 -26.5t-38 -71.5zM316 571
l-70 -6q33 43 81 125l108 6q-21 -24 -66 -66q-34 -31 -53 -59z" />
    <glyph glyph-name="egrave" unicode="&#xe8;" 
d="M474 109v-110q-64 -16 -130 -16q-139 0 -225 82.5t-86 220.5q0 107 70.5 173t177.5 66q118 0 181 -73q60 -69 60 -188v-16q-1 -11 -1 -16h-353q4 -70 66 -107q52 -32 127 -32q28 0 113 16zM168 317h219q0 40 -30.5 69t-71.5 29q-46 0 -79 -26.5t-38 -71.5zM316 565l-70 6
q-19 28 -53 59q-45 42 -66 66l108 -6q18 -33 81 -125z" />
    <glyph glyph-name="ecircumflex" unicode="&#xea;" 
d="M474 109v-110q-64 -16 -130 -16q-139 0 -225 82.5t-86 220.5q0 107 70.5 173t177.5 66q118 0 181 -73q60 -69 60 -188v-16q-1 -11 -1 -16h-353q4 -70 66 -107q52 -32 127 -32q28 0 113 16zM168 317h219q0 40 -30.5 69t-71.5 29q-46 0 -79 -26.5t-38 -71.5zM243 550
l-88 -5q29 37 81 116l103 6q23 -40 74 -117l-80 -5l-45 74z" />
    <glyph glyph-name="edieresis" unicode="&#xeb;" 
d="M474 109v-110q-64 -16 -130 -16q-143 0 -229 87q-82 83 -82 216q0 105 70 172t178 67q128 0 191 -86q50 -69 50 -175v-16q-1 -11 -1 -16h-353q3 -50 40 -87q51 -52 153 -52q28 0 113 16zM168 317h219q0 35 -26 64q-30 34 -76 34q-55 0 -88 -35q-25 -27 -29 -63zM163 594
v53q0 21 -2 61l104 6q-5 -47 -5 -85v-29zM324 594v53q0 31 -3 61l104 6q-4 -37 -4 -85v-29z" />
    <glyph glyph-name="iacute" unicode="&#xed;" horiz-adv-x="259" 
d="M205 0h-145q5 140 5 171v121q0 91 -15 211l155 10q-5 -96 -5 -159v-183q0 -31 5 -171zM165 551l-70 -6q33 43 81 125l108 6q-21 -24 -66 -66q-34 -31 -53 -59z" />
    <glyph glyph-name="igrave" unicode="&#xec;" horiz-adv-x="259" 
d="M205 0h-145q5 140 5 171v121q0 91 -15 211l155 10q-5 -96 -5 -159v-183q0 -31 5 -171zM166 545l-70 6q-19 28 -53 59q-45 42 -66 66l108 -6q18 -33 81 -125z" />
    <glyph glyph-name="icircumflex" unicode="&#xee;" horiz-adv-x="259" 
d="M205 0h-145q5 140 5 171v121q0 96 -15 216l155 5q-5 -96 -5 -159v-183q0 -31 5 -171zM75 580l-117 -7q45 57 60 78q28 38 48 77l138 8q35 -63 46 -81q28 -45 52 -76l-107 -6l-60 97z" />
    <glyph glyph-name="idieresis" unicode="&#xef;" horiz-adv-x="259" 
d="M205 0h-145q5 140 5 171v121q0 96 -15 216l155 5q-5 -96 -5 -159v-183q0 -31 5 -171zM0 594v53q0 21 -2 61l104 6q-5 -47 -5 -85v-29zM161 594v53q0 31 -3 61l104 6q-4 -37 -4 -85v-29z" />
    <glyph glyph-name="ntilde" unicode="&#xf1;" horiz-adv-x="593" 
d="M204 0h-145q5 140 5 171v121q0 76 -30 211l127 10q6 -23 18 -74q43 43 66 57q48 29 114 29q168 0 168 -236v-118q0 -79 10 -171h-140q-5 143 -5 171v98q0 146 -85 146q-62 0 -86 -45q-22 -40 -22 -135v-64q0 -31 5 -171zM195 594v0l-71 -3q0 50 22 86q26 44 76 44
q42 0 89 -33q33 -23 53 -23q28 0 34 42l71 7q0 -41 -13 -73q-24 -56 -85 -56q-40 0 -75 19q-69 37 -71 37q-19 0 -25 -17q-2 -5 -5 -30z" />
    <glyph glyph-name="oacute" unicode="&#xf3;" horiz-adv-x="593" 
d="M297 -17q-119 0 -193 77.5t-74 196.5q0 121 73 194.5t194 73.5q119 0 192 -74.5t73 -193.5q0 -117 -74 -195.5t-191 -78.5zM165 257q0 -68 31 -113q36 -51 101 -51q67 0 101 51q29 43 29 113q0 158 -130 158q-68 0 -102 -47q-30 -41 -30 -111zM332 571l-70 -6
q33 43 81 125l108 6q-21 -24 -66 -66q-34 -31 -53 -59z" />
    <glyph glyph-name="ograve" unicode="&#xf2;" horiz-adv-x="593" 
d="M297 -17q-119 0 -193 77.5t-74 196.5q0 121 73 194.5t194 73.5q119 0 192 -74.5t73 -193.5q0 -117 -74 -195.5t-191 -78.5zM165 257q0 -68 31 -113q36 -51 101 -51q67 0 101 51q29 43 29 113q0 158 -130 158q-68 0 -102 -47q-30 -41 -30 -111zM332 565l-70 6
q-19 28 -53 59q-45 42 -66 66l108 -6q18 -33 81 -125z" />
    <glyph glyph-name="ocircumflex" unicode="&#xf4;" horiz-adv-x="593" 
d="M297 -17q-119 0 -193 77.5t-74 196.5q0 121 73 194.5t194 73.5q119 0 192 -74.5t73 -193.5q0 -117 -74 -195.5t-191 -78.5zM165 257q0 -68 31 -113q36 -51 101 -51q67 0 101 51q29 43 29 113q0 158 -130 158q-68 0 -102 -47q-30 -41 -30 -111zM263 550l-88 -5
q29 37 81 116l103 6q23 -40 74 -117l-80 -5l-45 74z" />
    <glyph glyph-name="odieresis" unicode="&#xf6;" horiz-adv-x="593" 
d="M297 -17q-117 0 -192 77t-75 197q0 121 73.5 194.5t193.5 73.5q118 0 191.5 -74.5t73.5 -193.5q0 -116 -74 -195t-191 -79zM165 257q0 -72 35 -118t97 -46q64 0 98 47q32 44 32 117q0 158 -130 158q-65 0 -98.5 -42.5t-33.5 -115.5zM167 594v53q0 21 -2 61l104 6
q-5 -47 -5 -85v-29zM328 594v53q0 31 -3 61l104 6q-4 -37 -4 -85v-29z" />
    <glyph glyph-name="otilde" unicode="&#xf5;" horiz-adv-x="593" 
d="M297 -17q-119 0 -193 77.5t-74 196.5q0 121 73 194.5t194 73.5q119 0 192 -74.5t73 -193.5q0 -117 -74 -195.5t-191 -78.5zM165 257q0 -68 31 -113q36 -51 101 -51q67 0 101 51q29 43 29 113q0 158 -130 158q-68 0 -102 -47q-30 -41 -30 -111zM223 583l-44 2q8 32 33 56
t56 22q28 -2 52 -26q9 -9 13 -12q8 -5 17 -6q22 -1 34 25h46q-7 -25 -24 -46q-27 -34 -66 -31q-25 2 -45 16q-32 27 -39 28q-18 2 -33 -28z" />
    <glyph glyph-name="uacute" unicode="&#xfa;" horiz-adv-x="593" 
d="M543 0h-130q-1 24 -5 70q-44 -44 -64 -57q-47 -30 -111 -30q-169 0 -169 224v137q0 49 -10 159l155 10q-1 -17 -6 -82q-4 -54 -4 -87v-73q0 -89 16 -128q20 -50 75 -50q65 0 90 51q18 37 18 127v73q0 49 -10 159l155 10q-1 -17 -6 -82q-4 -54 -4 -87v-137q0 -59 10 -207z
M331 531l-70 -6q33 43 81 125l108 6q-21 -24 -66 -66q-34 -31 -53 -59z" />
    <glyph glyph-name="ugrave" unicode="&#xf9;" horiz-adv-x="593" 
d="M543 0h-130q-1 24 -5 70q-44 -44 -64 -57q-47 -30 -111 -30q-169 0 -169 224v137q0 49 -10 159l155 10q-1 -17 -6 -82q-4 -54 -4 -87v-73q0 -89 16 -128q20 -50 75 -50q65 0 90 51q18 37 18 127v73q0 49 -10 159l155 10q-1 -17 -6 -82q-4 -54 -4 -87v-137q0 -59 10 -207z
M332 525l-70 6q-19 28 -53 59q-45 42 -66 66l108 -6q18 -33 81 -125z" />
    <glyph glyph-name="ucircumflex" unicode="&#xfb;" horiz-adv-x="593" 
d="M543 0h-130q-1 24 -5 70q-44 -44 -64 -57q-47 -30 -111 -30q-169 0 -169 224v137q0 49 -10 159l155 10q-1 -11 -6 -82q-4 -50 -4 -87v-73q0 -90 16 -128q20 -50 75 -50q65 0 90 51q18 38 18 127v73q0 49 -10 159l155 10q-1 -11 -6 -82q-4 -50 -4 -87v-137q0 -59 10 -207z
M242 580l-117 -7q45 57 60 78q28 38 48 77l138 8q35 -63 46 -81q28 -45 52 -76l-107 -6l-60 97z" />
    <glyph glyph-name="udieresis" unicode="&#xfc;" horiz-adv-x="593" 
d="M543 0h-130q-1 24 -5 70q-44 -44 -64 -57q-47 -30 -111 -30q-169 0 -169 224v137q0 49 -10 159l155 10q-1 -11 -6 -82q-4 -50 -4 -87v-73q0 -90 16 -128q20 -50 75 -50q65 0 90 51q18 38 18 127v73q0 49 -10 159l155 10q-1 -11 -6 -82q-4 -50 -4 -87v-137q0 -59 10 -207z
M167 594v53q0 21 -2 61l104 6q-5 -47 -5 -85v-29zM328 594v53q0 31 -3 61l104 6q-4 -37 -4 -85v-29z" />
    <glyph glyph-name="degree" unicode="&#xb0;" horiz-adv-x="611" 
d="M306 366q-74 0 -127 52.5t-53 128.5q0 75 52.5 128.5t127.5 53.5q74 0 127.5 -53.5t53.5 -128.5q0 -74 -52.5 -127.5t-128.5 -53.5zM226 547q0 -34 23.5 -57.5t56.5 -23.5q34 0 57.5 25.5t23.5 55.5q0 36 -23 59t-58 23q-33 0 -56.5 -23t-23.5 -59z" />
    <glyph glyph-name="registered" unicode="&#xae;" horiz-adv-x="500" 
d="M250 258q-97 0 -166 69.5t-69 166.5t69 166t166 69t166 -69t69 -166q0 -98 -69 -167t-166 -69zM50 494q0 -82 59 -141t141 -59q83 0 141.5 59t58.5 141t-58.5 140.5t-141.5 58.5t-141.5 -58.5t-58.5 -140.5zM161 376v248h83q101 0 101 -80q0 -42 -43 -61l46 -107h-50
l-38 100h-54v-100h-45zM206 581v-65h54q38 0 38 32q0 33 -42 33h-50z" />
    <glyph glyph-name="copyright" unicode="&#xa9;" horiz-adv-x="500" 
d="M250 258q-97 0 -166 69.5t-69 166.5t69 166t166 69t166 -69t69 -166q0 -98 -69 -167t-166 -69zM50 494q0 -82 59 -141t141 -59q83 0 141.5 59t58.5 141t-58.5 140.5t-141.5 58.5t-141.5 -58.5t-58.5 -140.5zM331 435l26 -32q-43 -39 -95 -39q-55 0 -96 38.5t-41 95.5
q0 56 41 95t96 39q34 0 63 -16q5 -3 32 -23l-26 -33q-34 31 -69 31t-63 -24q-30 -27 -30 -69q0 -43 30 -70q27 -23 59 -23q38 0 73 30z" />
    <glyph glyph-name="trademark" unicode="&#x2122;" horiz-adv-x="611" 
d="M113 422v248h-73v42h190v-42h-73v-248h-44zM263 422v290h80l48 -229h2l49 229h80v-290h-44v261h-2l-57 -261h-53l-58 261h-2v-261h-43z" />
    <glyph glyph-name="plusminus" unicode="&#xb1;" horiz-adv-x="926" 
d="M534 -17l-144 -12q7 110 7 222v36h-58q-48 0 -164 -10l4 135h218v39q0 39 -7 175l144 11q-7 -87 -7 -186v-39h57q47 0 163 10l-4 -135h-216v-36q0 -108 7 -210zM175 -233l4 135h363q152 0 207 10l-4 -135h-351q-99 0 -219 -10z" />
    <glyph glyph-name="mu" unicode="&#xb5;" horiz-adv-x="593" 
d="M209 -218l-150 -10q5 123 5 244v328q0 49 -10 159l155 10q-1 -11 -6 -82q-4 -50 -4 -87v-73q0 -90 16 -128q20 -50 75 -50q65 0 90 51q18 38 18 127v73q0 49 -10 159l155 10q-1 -11 -6 -82q-4 -50 -4 -87v-177q0 -49 10 -167h-130q-1 24 -5 70q-41 -43 -60 -57
q-45 -30 -105 -30q-27 0 -44 13v-52q0 -27 10 -162z" />
    <glyph glyph-name="mu" unicode="&#x3bc;" horiz-adv-x="593" 
d="M209 -218l-150 -10q5 123 5 244v328q0 49 -10 159l155 10q-1 -11 -6 -82q-4 -50 -4 -87v-73q0 -90 16 -128q20 -50 75 -50q65 0 90 51q18 38 18 127v73q0 49 -10 159l155 10q-1 -11 -6 -82q-4 -50 -4 -87v-177q0 -49 10 -167h-130q-1 24 -5 70q-41 -43 -60 -57
q-45 -30 -105 -30q-27 0 -44 13v-52q0 -27 10 -162z" />
    <glyph glyph-name="logicalnot" unicode="&#xac;" horiz-adv-x="926" 
d="M750 108l-144 -12q7 75 7 152v106h-274q-48 0 -164 -10l4 135h405q48 0 166 10q-1 -10 -4 -57q-3 -35 -3 -58v-126q0 -54 7 -140z" />
    <glyph glyph-name="Agrave" unicode="&#xc0;" horiz-adv-x="704" 
d="M192 0h-165q27 65 94 240l48 134q36 101 52 154q28 94 35 165l192 36q19 -106 97 -329l47 -134q49 -141 113 -266h-175q-5 13 -67 200h-219q-32 -105 -52 -200zM271 295h167q-30 100 -39 135q-26 96 -39 164h-2q-18 -79 -87 -299zM394 764l-70 6q-19 28 -53 59
q-45 42 -66 66l108 -6q18 -33 81 -125z" />
    <glyph glyph-name="Atilde" unicode="&#xc3;" horiz-adv-x="704" 
d="M192 0h-165q27 65 94 240l48 134q36 101 52 154q28 94 35 165l192 36q19 -106 97 -329l47 -134q49 -141 113 -266h-175q-5 13 -67 200h-219q-32 -105 -52 -200zM271 295h167q-30 100 -39 135q-26 96 -39 164h-2q-18 -79 -87 -299zM274 777l-44 2q8 32 33 56t56 22
q28 -2 52 -26q9 -9 13 -12q8 -5 17 -6q22 -1 34 25h46q-7 -25 -24 -46q-27 -34 -66 -31q-25 2 -45 16q-32 27 -39 28q-18 2 -33 -28z" />
    <glyph glyph-name="Otilde" unicode="&#xd5;" horiz-adv-x="722" 
d="M363 -17q-152 0 -245 119q-85 110 -85 266q0 157 85 256q90 105 245 105q152 0 242 -106q85 -100 85 -255q0 -156 -84 -265q-92 -120 -243 -120zM183 368q0 -96 41 -170q51 -90 139 -90t137 90q40 74 40 170t-39 160q-48 76 -138 76q-92 0 -140 -75q-40 -64 -40 -161z
M278 787l-44 2q8 32 33 56t56 22q28 -2 52 -26q9 -9 13 -12q8 -5 17 -6q22 -1 34 25h46q-7 -25 -24 -46q-27 -34 -66 -31q-25 2 -45 16q-32 27 -39 28q-18 2 -33 -28z" />
    <glyph glyph-name="divide" unicode="&#xf7;" horiz-adv-x="926" 
d="M393 126v0l135 6q0 -59 8 -129l-151 -12q8 108 8 135zM179 354h363q153 0 208 10l-4 -135h-352q-99 0 -219 -10zM385 580v0l151 12q-8 -54 -8 -135l-135 -6q0 22 -4 66q-4 49 -4 63z" />
    <glyph glyph-name="ydieresis" unicode="&#xff;" 
d="M291 -218l-160 -10q25 59 69 173l22 64l-53 140q-45 118 -166 354l150 10q62 -131 105 -267l32 -100h2l63 197q15 53 45 160l150 10l-172 -440q-53 -134 -87 -291zM148 594v53q0 21 -2 61l104 6q-5 -47 -5 -85v-29zM309 594v53q0 31 -3 61l104 6q-4 -37 -4 -85v-29z" />
    <glyph glyph-name="Ydieresis" unicode="&#x178;" horiz-adv-x="611" 
d="M405 0h-170q10 70 10 178v118l-89 168q-62 117 -154 242l165 12q66 -111 113 -210l48 -100l54 117q38 82 73 181l155 12l-215 -416v-124q0 -91 10 -178zM186 799v53q0 21 -2 61l104 6q-5 -47 -5 -85v-29zM347 799v53q0 31 -3 61l104 6q-4 -37 -4 -85v-29z" />
    <glyph glyph-name="Acircumflex" unicode="&#xc2;" horiz-adv-x="704" 
d="M192 0h-165q27 65 94 240l48 134q36 101 52 154q28 94 35 165l192 36q19 -106 97 -329l47 -134q49 -141 113 -266h-175q-5 13 -67 200h-219q-32 -105 -52 -200zM271 295h167q-30 100 -39 135q-26 96 -39 164h-2q-18 -79 -87 -299zM314 745l-88 -5q29 37 81 116l103 6
q23 -40 74 -117l-80 -5l-45 74z" />
    <glyph glyph-name="Ecircumflex" unicode="&#xca;" 
d="M496 0h-405q5 97 5 184v326q0 111 -20 202h409l7 -115q-85 5 -193 5h-53v-173h53q122 0 186 5l-5 -120q-70 5 -181 5h-53v-209h53q107 0 206 15zM240 735l-88 -5q29 37 81 116l103 6q23 -40 74 -117l-80 -5l-45 74z" />
    <glyph glyph-name="Aacute" unicode="&#xc1;" horiz-adv-x="704" 
d="M192 0h-165q27 65 94 240l48 134q36 101 52 154q28 94 35 165l192 36q19 -106 97 -329l47 -134q49 -141 113 -266h-175q-5 13 -67 200h-219q-32 -105 -52 -200zM271 295h167q-30 100 -39 135q-26 96 -39 164h-2q-18 -79 -87 -299zM394 770l-70 -6q33 43 81 125l108 6
q-21 -24 -66 -66q-34 -31 -53 -59z" />
    <glyph glyph-name="Edieresis" unicode="&#xcb;" 
d="M496 0h-405q5 97 5 184v326q0 111 -20 202h409l7 -115q-85 5 -193 5h-53v-173h53q122 0 186 5l-5 -120q-70 5 -181 5h-53v-209h53q107 0 206 15zM148 799v53q0 21 -2 61l104 6q-5 -47 -5 -85v-29zM309 799v53q0 31 -3 61l104 6q-4 -37 -4 -85v-29z" />
    <glyph glyph-name="Egrave" unicode="&#xc8;" 
d="M496 0h-405q5 97 5 184v326q0 111 -20 202h409l7 -115q-85 5 -193 5h-53v-173h53q122 0 186 5l-5 -120q-70 5 -181 5h-53v-209h53q107 0 206 15zM321 754l-70 6q-19 28 -53 59q-45 42 -66 66l108 -6q18 -33 81 -125z" />
    <glyph glyph-name="Iacute" unicode="&#xcd;" horiz-adv-x="333" 
d="M263 0h-175q5 97 5 184v278q0 144 -20 250h175q0 -34 -2.5 -101t-2.5 -101v-260q0 -99 20 -250zM203 760l-70 -6q33 43 81 125l108 6q-21 -24 -66 -66q-34 -31 -53 -59z" />
    <glyph glyph-name="Icircumflex" unicode="&#xce;" horiz-adv-x="333" 
d="M263 0h-175q5 97 5 184v278q0 144 -20 250h175q0 -22 -2.5 -90t-2.5 -112v-260q0 -99 20 -250zM112 785l-117 -7q45 57 60 78q28 38 48 77l138 8q35 -63 46 -81q28 -45 52 -76l-107 -6l-60 97z" />
    <glyph glyph-name="Idieresis" unicode="&#xcf;" horiz-adv-x="333" 
d="M263 0h-175q5 97 5 184v278q0 144 -20 250h175q0 -22 -2.5 -90t-2.5 -112v-260q0 -99 20 -250zM37 799v53q0 21 -2 61l104 6q-5 -47 -5 -85v-29zM198 799v53q0 31 -3 61l104 6q-4 -37 -4 -85v-29z" />
    <glyph glyph-name="Igrave" unicode="&#xcc;" horiz-adv-x="333" 
d="M263 0h-175q5 97 5 184v278q0 144 -20 250h175q0 -34 -2.5 -101t-2.5 -101v-260q0 -99 20 -250zM204 754l-70 6q-19 28 -53 59q-45 42 -66 66l108 -6q18 -33 81 -125z" />
    <glyph glyph-name="Oacute" unicode="&#xd3;" horiz-adv-x="722" 
d="M363 -17q-152 0 -245 119q-85 110 -85 266q0 157 85 256q90 105 245 105q152 0 242 -106q85 -100 85 -255q0 -156 -84 -265q-92 -120 -243 -120zM183 368q0 -96 41 -170q51 -90 139 -90t137 90q40 74 40 170t-39 160q-48 76 -138 76q-92 0 -140 -75q-40 -64 -40 -161z
M399 770l-70 -6q33 43 81 125l108 6q-21 -24 -66 -66q-34 -31 -53 -59z" />
    <glyph glyph-name="Ocircumflex" unicode="&#xd4;" horiz-adv-x="722" 
d="M363 -17q-152 0 -245 119q-85 110 -85 266q0 157 85 256q90 105 245 105q152 0 242 -106q85 -100 85 -255q0 -156 -84 -265q-92 -120 -243 -120zM183 368q0 -96 41 -170q51 -90 139 -90t137 90q40 74 40 170t-39 160q-48 76 -138 76q-92 0 -140 -75q-40 -64 -40 -161z
M320 745l-88 -5q29 37 81 116l103 6q23 -40 74 -117l-80 -5l-45 74z" />
    <glyph glyph-name="Ograve" unicode="&#xd2;" horiz-adv-x="722" 
d="M363 -17q-152 0 -245 119q-85 110 -85 266q0 157 85 256q90 105 245 105q152 0 242 -106q85 -100 85 -255q0 -156 -84 -265q-92 -120 -243 -120zM183 368q0 -96 41 -170q51 -90 139 -90t137 90q40 74 40 170t-39 160q-48 76 -138 76q-92 0 -140 -75q-40 -64 -40 -161z
M399 764l-70 6q-19 28 -53 59q-45 42 -66 66l108 -6q18 -33 81 -125z" />
    <glyph glyph-name="Uacute" unicode="&#xda;" horiz-adv-x="741" 
d="M660 0h-135q-2 24 -4 92h-2q-77 -109 -212 -109q-141 0 -188 121q-27 69 -27 218v174q0 99 -10 216h170q-10 -81 -10 -216v-117q0 -144 14 -193q22 -78 96 -78q148 0 148 271v117q0 99 -10 216h170q-10 -81 -10 -216v-217q0 -144 10 -279zM404 730l-70 -6q33 43 81 125
l108 6q-21 -24 -66 -66q-34 -31 -53 -59z" />
    <glyph glyph-name="Ucircumflex" unicode="&#xdb;" horiz-adv-x="741" 
d="M660 0h-135q-2 24 -4 92h-2q-77 -109 -212 -109q-141 0 -188 121q-27 68 -27 218v174q0 99 -10 216h170q-10 -81 -10 -216v-117q0 -144 14 -193q22 -78 96 -78q148 0 148 271v117q0 99 -10 216h170q-10 -81 -10 -216v-217q0 -144 10 -279zM316 785l-117 -7q45 57 60 78
q28 38 48 77l138 8q35 -63 46 -81q28 -45 52 -76l-107 -6l-60 97z" />
    <glyph glyph-name="Ugrave" unicode="&#xd9;" horiz-adv-x="741" 
d="M660 0h-135q-2 24 -4 92h-2q-77 -109 -212 -109q-141 0 -188 121q-27 69 -27 218v174q0 99 -10 216h170q-10 -81 -10 -216v-117q0 -144 14 -193q22 -78 96 -78q148 0 148 271v117q0 99 -10 216h170q-10 -81 -10 -216v-217q0 -144 10 -279zM404 724l-70 6q-19 28 -53 59
q-45 42 -66 66l108 -6q18 -33 81 -125z" />
    <glyph glyph-name="glyph231" horiz-adv-x="352" 
 />
    <glyph glyph-name="glyph232" horiz-adv-x="278" 
 />
    <glyph glyph-name="sfthyphen" unicode="&#xad;" horiz-adv-x="338" 
d="M8 174l33 122h246l-33 -122h-246z" />
    <glyph glyph-name="Cacute" unicode="&#x106;" horiz-adv-x="711" 
d="M523 116v-125q-39 -8 -102 -8q-182 0 -288 119q-101 113 -101 289q0 154 96 246t266 92q62 0 118 -13v-125q-80 13 -113 13q-101 0 -159 -60t-58 -167q0 -119 66 -192q69 -77 189 -77q49 0 86 8zM382 835l-112 -7q38 50 101 156l135 7q-65 -74 -124 -156z" />
    <glyph glyph-name="cacute" unicode="&#x107;" horiz-adv-x="441" 
d="M418 98v-104q-46 -11 -87 -11q-124 0 -206 70q-92 79 -92 222q0 135 95 200q73 50 190 50q48 0 102 -9v-110q-70 9 -95 9q-157 0 -157 -140q0 -81 47 -130q50 -52 139 -52q12 0 64 5zM183 580l-112 -7q38 50 101 156l135 7q-65 -74 -124 -156z" />
    <glyph glyph-name="Ccaron" unicode="&#x10c;" horiz-adv-x="711" 
d="M523 116v-125q-39 -8 -102 -8q-182 0 -288 119q-101 113 -101 289q0 154 96 246t266 92q62 0 118 -13v-125q-80 13 -113 13q-101 0 -159 -60t-58 -167q0 -119 66 -192q69 -77 189 -77q49 0 86 8zM446 837l-138 -9q-35 63 -46 81q-28 45 -52 76l107 6l60 -97l60 90l117 7
q-77 -95 -108 -154z" />
    <glyph glyph-name="ccaron" unicode="&#x10d;" horiz-adv-x="441" 
d="M418 98v-104q-46 -11 -87 -11q-124 0 -206 70q-92 79 -92 222q0 135 95 200q73 50 190 50q48 0 102 -9v-110q-70 9 -95 9q-157 0 -157 -140q0 -81 47 -130q50 -52 139 -52q12 0 64 5zM247 582l-138 -9q-35 63 -46 81q-28 45 -52 76l107 6l60 -97l60 90l117 7
q-77 -95 -108 -154z" />
    <glyph glyph-name="Dslash" unicode="&#x110;" horiz-adv-x="704" 
d="M155 0h-70q5 97 5 184v119l-81 -9l8 104h73v112q0 111 -20 202h65q25 0 75 5t75 5q156 0 262 -88q128 -107 128 -310q0 -159 -96 -246q-91 -83 -251 -83q-29 0 -86.5 2.5t-86.5 2.5zM240 303v-175q30 -8 65 -8q110 0 163 47q57 49 57 158q0 118 -56 191q-62 81 -176 81
q-2 0 -53 -3v-196h131l-7 -95h-124z" />
    <glyph glyph-name="dcroat" unicode="&#x111;" horiz-adv-x="611" 
d="M167 265q0 -68 32 -117q37 -55 102 -55q67 0 100 55q26 45 26 117q0 150 -132 150q-64 0 -98 -44q-30 -39 -30 -106zM416 575l-154 -5v56h153q-6 80 -18 137l160 10q-3 -79 -4 -147l49 5v-56h-50v-400q0 -91 12 -175h-130q-2 20 -7 57q-37 -37 -57 -49q-42 -25 -102 -25
q-112 0 -177 87q-59 78 -59 194q0 109 59 182q64 79 171 79q51 0 94 -17q22 -9 61 -33v60q0 23 -1 40z" />
    <glyph glyph-name="Gbreve" unicode="&#x11e;" horiz-adv-x="767" 
d="M600 358v-177q0 -28 5 -181q-70 -17 -163 -17q-182 0 -295.5 111.5t-113.5 282.5q0 162 102 257t277 95q55 0 148 -17v-122q-107 14 -137 14q-113 0 -176.5 -59.5t-63.5 -166.5q0 -127 79 -202q71 -68 174 -68q22 0 42 5v130h-122v115q70 -5 126 -5q78 0 118 5zM462 971
l90 6q0 -52 -31 -94q-41 -55 -120 -55t-121 53q-31 40 -31 88l90 6q0 -77 66 -77q52 0 57 73z" />
    <glyph glyph-name="gbreve" unicode="&#x11f;" horiz-adv-x="492" 
d="M463 508l124 7q-20 -162 -20 -249q0 -17 2.5 -100.5t2.5 -125.5q0 -149 -76 -214t-245 -65q-60 0 -159 15l-4 112q115 -17 162 -17q120 0 161 45q31 35 31 124v38h-2q-51 -95 -169 -95q-107 0 -171.5 78.5t-64.5 204.5q0 116 65.5 187.5t177.5 71.5q67 0 116 -31
q21 -14 58 -52zM170 265q0 -74 37.5 -123t97.5 -49q63 0 98 48q34 45 34 125q0 149 -131 149q-65 0 -100.5 -40.5t-35.5 -109.5zM262 716l90 6q0 -52 -31 -94q-41 -55 -120 -55t-121 53q-31 40 -31 88l90 6q0 -77 66 -77q52 0 57 73z" />
    <glyph glyph-name="Idotaccent" unicode="&#x130;" horiz-adv-x="429" 
d="M263 0h-175q5 97 5 184v278q0 144 -20 250h175q0 -22 -2.5 -90t-2.5 -112v-260q0 -99 20 -250zM182 849v53q0 21 -2 61l104 6q-5 -47 -5 -85v-29z" />
    <glyph glyph-name="Scedilla" unicode="&#x15e;" horiz-adv-x="656" 
d="M439 710v-128q-80 22 -139 22q-49 0 -79 -14q-34 -16 -34 -44q0 -30 31 -57q22 -20 76 -49q102 -55 141 -91q70 -66 70 -156q0 -92 -69 -151t-183 -59q-89 0 -202 36v129q120 -40 191 -40q113 0 113 67q0 45 -82 96q-136 83 -154 99q-82 70 -82 162q0 90 68.5 143.5
t184.5 53.5q54 0 149 -19zM164 0h18q55 0 92 -23q49 -31 49 -97q0 -50 -36 -79t-95 -29q-10 0 -28 2v58h10q70 0 70 52q0 46 -66 46h-14v70z" />
    <glyph glyph-name="scedilla" unicode="&#x15f;" horiz-adv-x="383" 
d="M352 516v-103q-72 12 -89 12q-90 0 -90 -40q0 -20 32 -43q14 -11 73 -44t84 -57q43 -44 43 -103q0 -73 -57.5 -114t-154.5 -41q-46 0 -146 23v110q102 -33 151 -33q29 0 50.5 13.5t21.5 37.5q0 21 -29 42q-14 10 -76 44q-127 70 -127 165q0 66 58 104q54 36 144 36
q45 0 112 -9zM67 0h18q55 0 92 -23q49 -31 49 -97q0 -50 -36 -79t-95 -29q-10 0 -28 2v58h10q70 0 70 52q0 46 -66 46h-14v70z" />
    <glyph glyph-name="franc" unicode="&#x20a3;" horiz-adv-x="1035" 
d="M248 0h-160q5 97 5 184v326q0 111 -20 202h409l7 -115q-85 5 -193 5h-53v-173h53q122 0 186 5l-5 -120q-70 5 -181 5h-53v-135q0 -54 5 -184zM860 0h-145q5 140 5 171v121q0 76 -30 211l134 10q7 -25 14 -77h2q17 36 58.5 62.5t84.5 26.5q14 0 21 -1l6 -114q-37 5 -42 5
q-76 0 -99 -51q-14 -32 -14 -129v-64q0 -31 5 -171z" />
    <glyph glyph-name="u20AB" unicode="&#x20ab;" horiz-adv-x="393" 
d="M197 501q-48 0 -84 -88q-20 -49 -20 -90q0 -51 39 -51q41 0 74 71q28 60 28 107q0 51 -37 51zM200 267q-53 -62 -106 -62q-45 0 -68 28t-23 74q0 80 55 153q59 78 136 78q34 0 61 -24l20 75h-100l10 36h100l2 16q0 31 -48 32l7 33q67 2 128 14l15 3q6 0 6 -9l-3 -12
l-19 -77h65l-10 -36h-65l-69 -280q-5 -20 -5 -27q0 -15 12 -15q6 0 49 42l20 -18q-70 -86 -117 -86q-43 0 -53 62zM9 160h221v-56h-221v56z" />
    <glyph glyph-name="SF370000" unicode="&#x255f;" horiz-adv-x="718" 
d="M192 0h-165q31 76 94 240l48 134q37 103 52 154q28 93 35 165l192 36q19 -107 97 -329l47 -134q49 -140 113 -266h-175q-5 13 -67 200h-219q-32 -105 -52 -200zM271 295h167q-29 98 -39 135q-26 97 -39 164h-2q-18 -79 -87 -299z" />
    <glyph glyph-name="SF420000" unicode="&#x2560;" horiz-adv-x="681" 
d="M496 0h-405q5 97 5 184v326q0 111 -20 202h409l7 -115q-85 5 -193 5h-53v-173h53q122 0 186 5l-5 -120q-70 5 -181 5h-53v-209h53q107 0 206 15z" />
    <glyph glyph-name="SF190000" unicode="&#x2561;" horiz-adv-x="429" 
d="M263 0h-175q5 97 5 184v278q0 144 -20 250h175q0 -22 -2.5 -90t-2.5 -112v-260q0 -99 20 -250z" />
    <glyph glyph-name="SF200000" unicode="&#x2562;" horiz-adv-x="773" 
d="M363 -17q-144 0 -237 111t-93 274q0 161 90 261t240 100q148 0 239 -103q88 -100 88 -258q0 -162 -90 -272q-92 -113 -237 -113zM183 368q0 -110 51 -185t129 -75t129 77q48 74 48 183q0 107 -47.5 171.5t-129.5 64.5q-86 0 -134 -67q-46 -63 -46 -169z" />
    <glyph glyph-name="SF230000" unicode="&#x2563;" horiz-adv-x="811" 
d="M660 0h-135q-2 24 -4 92h-2q-77 -109 -212 -109q-141 0 -188 121q-27 68 -27 218v174q0 99 -10 216h170q-10 -81 -10 -216v-117q0 -144 14 -193q22 -78 96 -78q148 0 148 271v117q0 99 -10 216h170q-10 -81 -10 -216v-217q0 -144 10 -279z" />
    <glyph glyph-name="SF470000" unicode="&#x2564;" horiz-adv-x="699" 
d="M405 0h-170q10 70 10 178v118l-89 168q-62 117 -154 242l165 12q66 -111 113 -210l48 -100l54 117q38 82 73 181l155 12l-215 -416v-124q0 -91 10 -178z" />
    <glyph glyph-name="SF480000" unicode="&#x2565;" horiz-adv-x="541" 
d="M508 0h-125q-7 63 -7 86h-2q-73 -103 -179 -103q-72 0 -119 44t-47 116q0 94 80 150q77 53 204 53q18 0 54 -2q-7 86 -134 86q-43 0 -138 -19v95q79 19 163 19q152 0 202 -77q32 -49 32 -171v-102q0 -63 16 -175zM367 237v17q-44 7 -54 7q-68 0 -108.5 -29.5t-40.5 -74.5
q0 -28 22.5 -46t56.5 -18q58 0 93 48q31 41 31 96z" />
    <glyph glyph-name="SF410000" unicode="&#x2566;" horiz-adv-x="431" 
d="M474 109v-110q-64 -16 -130 -16q-143 0 -229 87q-82 83 -82 216q0 105 70 172t178 67q128 0 191 -86q50 -69 50 -175v-16q-1 -11 -1 -16h-353q3 -50 40 -87q51 -52 153 -52q28 0 113 16zM168 317h219q0 35 -26 64q-30 34 -76 34q-55 0 -88 -35q-25 -27 -29 -63z" />
    <glyph glyph-name="SF450000" unicode="&#x2567;" horiz-adv-x="314" 
d="M205 0h-145q5 140 5 171v121q0 91 -15 211l155 10q-5 -96 -5 -159v-183q0 -31 5 -171zM50 614v68q0 30 -5 80l154 11q-4 -45 -4 -91v-60z" />
    <glyph glyph-name="SF460000" unicode="&#x2568;" horiz-adv-x="314" 
d="M205 0h-145q5 140 5 171v121q0 96 -15 216l155 5q-5 -96 -5 -159v-183q0 -31 5 -171z" />
    <glyph glyph-name="SF400000" unicode="&#x2569;" horiz-adv-x="498" 
d="M297 -17q-117 0 -192 77t-75 197q0 121 73.5 194.5t193.5 73.5q118 0 191.5 -74.5t73.5 -193.5q0 -116 -74 -195t-191 -79zM165 257q0 -72 35 -118t97 -46q64 0 98 47q32 44 32 117q0 158 -130 158q-65 0 -98.5 -42.5t-33.5 -115.5z" />
    <glyph glyph-name="SF540000" unicode="&#x256a;" horiz-adv-x="557" 
d="M543 0h-130q-1 24 -5 70q-44 -44 -64 -57q-47 -30 -111 -30q-169 0 -169 224v137q0 49 -10 159l155 10q-1 -11 -6 -82q-4 -50 -4 -87v-73q0 -90 16 -128q20 -50 75 -50q65 0 90 51q18 38 18 127v73q0 49 -10 159l155 10q-1 -11 -6 -82q-4 -50 -4 -87v-137q0 -59 10 -207z
" />
    <glyph glyph-name="SF530000" unicode="&#x256b;" horiz-adv-x="497" 
d="M291 -218l-160 -10q25 59 69 173l22 64l-53 140q-45 118 -166 354l150 10q62 -131 105 -267l32 -100h2l63 197q15 53 45 160l150 10l-172 -440q-53 -134 -87 -291z" />
    <glyph glyph-name="circle" unicode="&#x25cb;" horiz-adv-x="718" 
d="M378 812l-117 -7q45 57 60 78q28 38 48 77l138 8q35 -63 46 -81q28 -45 52 -76l-107 -6l-60 97zM407 1000l-112 -7q38 50 101 156l135 7q-65 -74 -124 -156z" />
    <glyph glyph-name="H18533" unicode="&#x25cf;" horiz-adv-x="718" 
d="M378 812l-117 -7q45 57 60 78q28 38 48 77l138 8q35 -63 46 -81q28 -45 52 -76l-107 -6l-60 97zM622 1001l-106 -7q-61 88 -123 155l126 8q43 -75 103 -156z" />
    <glyph glyph-name="invbullet" unicode="&#x25d8;" horiz-adv-x="718" 
d="M378 812l-117 -7q45 57 60 78q28 38 48 77l138 8q35 -63 46 -81q28 -45 52 -76l-107 -6l-60 97zM614 903q9 29 11 64q1 11 8 13q3 0 8 1q67 11 67 54q0 35 -28 35q-5 0 -14 -1t-14 -1q-21 0 -21 18q0 28 32 28q46 0 76 -25.5t26 -70.5q-6 -59 -87 -81q-25 -7 -31 -34h-33
z" />
    <glyph glyph-name="invcircle" unicode="&#x25d9;" horiz-adv-x="718" 
d="M378 812l-117 -7q45 57 60 78q28 38 48 77l138 8q35 -63 46 -81q28 -45 52 -76l-107 -6l-60 97zM378 1014v0l-71 -3q0 50 22 86q26 44 76 44q42 0 89 -33q33 -23 53 -23q28 0 34 42l71 7q0 -41 -13 -73q-24 -56 -85 -56q-40 0 -75 19q-69 37 -71 37q-19 0 -25 -17
q-2 -5 -5 -30z" />
    <glyph glyph-name="glyph275" horiz-adv-x="249" 
 />
    <glyph glyph-name="glyph276" horiz-adv-x="249" 
 />
    <glyph glyph-name="ch270" unicode="&#xb7;" horiz-adv-x="249" 
d="M38 348q0 34 23 57t57 23t57.5 -23t23.5 -57t-23.5 -57.5t-57.5 -23.5t-57 23.5t-23 57.5z" />
    <glyph glyph-name="ch270" unicode="&#x2219;" horiz-adv-x="249" 
d="M38 348q0 34 23 57t57 23t57.5 -23t23.5 -57t-23.5 -57.5t-57.5 -23.5t-57 23.5t-23 57.5z" />
    <glyph glyph-name="euro" horiz-adv-x="498" 
d="M522 633l-23 -156l-48 6q0 157 -94 157q-103 0 -161 -211h172l-21 -48h-164q-6 -24 -16 -73h147l-21 -47h-134q-6 -41 -6 -74q0 -56 21 -91q26 -43 78 -43q58 0 101 68q24 38 51 119l55 -10l-54 -188q-77 -53 -159 -53q-111 0 -166 84q-47 71 -47 188h-74l21 47h56
q3 25 12 73h-66l21 48h59q41 112 108 183q83 88 187 88q94 0 165 -67z" />
    <glyph glyph-name="glyph261" horiz-adv-x="500" 
d="M253 522q9 29 11 64q1 11 8 13q3 0 8 1q67 11 67 54q0 35 -28 35q-5 0 -14 -1t-14 -1q-21 0 -21 18q0 28 32 28q46 0 76 -25.5t26 -70.5q-6 -59 -87 -81q-25 -7 -31 -34h-33z" />
    <glyph glyph-name="glyph262" horiz-adv-x="541" 
d="M175 580l-117 -7q45 57 60 78q28 38 48 77l138 8q35 -63 46 -81q28 -45 52 -76l-107 -6l-60 97zM203 769l-112 -7q38 50 101 156l135 7q-65 -74 -124 -156z" />
    <glyph glyph-name="glyph263" horiz-adv-x="541" 
d="M175 580l-117 -7q45 57 60 78q28 38 48 77l138 8q35 -63 46 -81q28 -45 52 -76l-107 -6l-60 97zM419 769l-106 -7q-61 88 -123 155l126 8q43 -75 103 -156z" />
    <glyph glyph-name="glyph264" horiz-adv-x="541" 
d="M175 580l-117 -7q45 57 60 78q28 38 48 77l138 8q35 -63 46 -81q28 -45 52 -76l-107 -6l-60 97zM411 671q9 29 11 64q1 11 8 13q3 0 8 1q67 11 67 54q0 35 -28 35q-5 0 -14 -1t-14 -1q-21 0 -21 18q0 28 32 28q46 0 76 -25.5t26 -70.5q-6 -59 -87 -81q-25 -7 -31 -34h-33
z" />
    <glyph glyph-name="glyph265" horiz-adv-x="541" 
d="M175 580l-117 -7q45 57 60 78q28 38 48 77l138 8q35 -63 46 -81q28 -45 52 -76l-107 -6l-60 97zM175 782v0l-71 -3q0 50 22 86q26 44 76 44q42 0 89 -33q33 -23 53 -23q28 0 34 42l71 7q0 -41 -13 -73q-24 -56 -85 -56q-40 0 -75 19q-69 37 -71 37q-19 0 -25 -17
q-2 -5 -5 -30z" />
    <glyph glyph-name="glyph266" horiz-adv-x="541" 
d="M296 715l90 6q0 -52 -31 -94q-41 -55 -120 -55t-121 53q-31 40 -31 88l90 6q0 -77 66 -77q52 0 57 73zM282 769l-112 -7q38 50 101 156l135 7q-65 -74 -124 -156z" />
    <glyph glyph-name="glyph267" horiz-adv-x="541" 
d="M296 715l90 6q0 -52 -31 -94q-41 -55 -120 -55t-121 53q-31 40 -31 88l90 6q0 -77 66 -77q52 0 57 73zM366 769l-106 -7q-61 88 -123 155l126 8q43 -75 103 -156z" />
    <glyph glyph-name="glyph268" horiz-adv-x="541" 
d="M296 715l90 6q0 -52 -31 -94q-41 -55 -120 -55t-121 53q-31 40 -31 88l90 6q0 -77 66 -77q52 0 57 73zM306 671q9 29 11 64q1 11 8 13q3 0 8 1q67 11 67 54q0 35 -28 35q-5 0 -14 -1t-14 -1q-21 0 -21 18q0 28 32 28q46 0 76 -25.5t26 -70.5q-6 -59 -87 -81
q-25 -7 -31 -34h-33z" />
    <glyph glyph-name="glyph269" horiz-adv-x="541" 
d="M296 715l90 6q0 -52 -31 -94q-41 -55 -120 -55t-121 53q-31 40 -31 88l90 6q0 -77 66 -77q52 0 57 73zM175 782v0l-71 -3q0 50 22 86q26 44 76 44q42 0 89 -33q33 -23 53 -23q28 0 34 42l71 7q0 -41 -13 -73q-24 -56 -85 -56q-40 0 -75 19q-69 37 -71 37q-19 0 -25 -17
q-2 -5 -5 -30z" />
    <glyph glyph-name="glyph270" horiz-adv-x="249" 
 />
    <glyph glyph-name="glyph271" unicode="&#x102;" horiz-adv-x="704" 
d="M192 0h-165q27 65 94 240l48 134q36 101 52 154q28 94 35 165l192 36q19 -106 97 -329l47 -134q49 -141 113 -266h-175q-5 13 -67 200h-219q-32 -105 -52 -200zM271 295h167q-30 100 -39 135q-26 96 -39 164h-2q-18 -79 -87 -299zM406 847l67 5q0 -40 -23 -71
q-30 -41 -90 -41q-47 0 -80.5 29.5t-33.5 76.5l68 4q0 -57 49 -57q38 0 43 54z" />
    <glyph glyph-name="glyph272" unicode="&#x103;" 
d="M508 0h-125q-7 63 -7 86h-2q-73 -103 -179 -103q-73 0 -119.5 44t-46.5 116q0 105 94 159q77 44 190 44q18 0 54 -2q-7 86 -134 86q-43 0 -138 -19v95q79 19 163 19q152 0 202 -77q32 -49 32 -171v-102q0 -63 16 -175zM367 237v17q-44 7 -54 7q-57 0 -98 -23
q-51 -28 -51 -81q0 -30 24 -47t55 -17q56 0 91 45q33 42 33 99zM304 652l67 5q0 -40 -23 -71q-30 -41 -90 -41q-47 0 -80.5 29.5t-33.5 76.5l68 4q0 -57 49 -57q38 0 43 54z" />
    <glyph glyph-name="glyph273" unicode="&#x128;" horiz-adv-x="333" 
d="M263 0h-175q5 97 5 184v278q0 144 -20 250h175q0 -34 -2.5 -101t-2.5 -101v-260q0 -99 20 -250zM83 777l-44 2q8 32 33 56t56 22q28 -2 52 -26q9 -9 13 -12q8 -5 17 -6q22 -1 34 25h46q-7 -25 -24 -46q-27 -34 -66 -31q-25 2 -45 16q-32 27 -39 28q-18 2 -33 -28z" />
    <glyph glyph-name="glyph274" unicode="&#x129;" horiz-adv-x="259" 
d="M205 0h-145q5 140 5 171v121q0 91 -15 211l155 10q-5 -96 -5 -159v-183q0 -31 5 -171zM48 563l-44 2q8 32 33 56t56 22q28 -2 52 -26q9 -9 13 -12q8 -5 17 -6q22 -1 34 25h46q-7 -25 -24 -46q-27 -34 -66 -31q-25 2 -45 16q-32 27 -39 28q-18 2 -33 -28z" />
    <glyph glyph-name="ch903" unicode="&#x168;" horiz-adv-x="741" 
d="M660 0h-135q-2 24 -4 92h-2q-77 -109 -212 -109q-141 0 -188 121q-27 69 -27 218v174q0 99 -10 216h170q-10 -81 -10 -216v-117q0 -144 14 -193q22 -78 96 -78q148 0 148 271v117q0 99 -10 216h170q-10 -81 -10 -216v-217q0 -144 10 -279zM284 757l-44 2q8 32 33 56
t56 22q28 -2 52 -26q9 -9 13 -12q8 -5 17 -6q22 -1 34 25h46q-7 -25 -24 -46q-27 -34 -66 -31q-25 2 -45 16q-32 27 -39 28q-18 2 -33 -28z" />
    <glyph glyph-name="ch904" unicode="&#x169;" horiz-adv-x="593" 
d="M543 0h-130q-1 24 -5 70q-44 -44 -64 -57q-47 -30 -111 -30q-169 0 -169 224v137q0 49 -10 159l155 10q-1 -17 -6 -82q-4 -54 -4 -87v-73q0 -89 16 -128q20 -50 75 -50q65 0 90 51q18 37 18 127v73q0 49 -10 159l155 10q-1 -17 -6 -82q-4 -54 -4 -87v-137q0 -59 10 -207z
M211 543l-44 2q8 32 33 56t56 22q28 -2 52 -26q9 -9 13 -12q8 -5 17 -6q22 -1 34 25h46q-7 -25 -24 -46q-27 -34 -66 -31q-25 2 -45 16q-32 27 -39 28q-18 2 -33 -28z" />
    <glyph glyph-name="glyph277" unicode="&#x1a0;" horiz-adv-x="722" 
d="M183 368q0 -96 41 -170q51 -90 139 -90t137 90q40 74 40 170t-39 160q-48 76 -138 76q-92 0 -140 -75q-40 -64 -40 -161zM483 708q29 6 64 6q20 0 42 -2q19 16 21 32q2 19 -26 23q-7 1 -36 1l23 40q27 3 45 0q55 -10 55 -54q0 -38 -84 -80l-24 -12q127 -100 127 -294
q0 -156 -84 -265q-92 -120 -243 -120q-152 0 -245 119q-85 110 -85 266q0 157 85 256q90 105 245 105q66 0 120 -21z" />
    <glyph glyph-name="glyph278" unicode="&#x1a1;" horiz-adv-x="593" 
d="M165 257q0 -68 31 -113q36 -51 101 -51q67 0 101 51q29 43 29 113q0 158 -130 158q-68 0 -102 -47q-30 -41 -30 -111zM428 495q22 -1 32 3q22 9 21 29t-26 23q-8 1 -36 1l23 40q27 3 45 0q55 -10 55 -54q0 -19 -29 -41q-24 -17 -47 -25q96 -75 96 -214q0 -117 -74 -195.5
t-191 -78.5q-119 0 -193 77.5t-74 196.5q0 121 73 194.5t194 73.5q73 0 131 -30z" />
    <glyph glyph-name="glyph279" unicode="&#x1af;" horiz-adv-x="741" 
d="M657 682q-7 -65 -7 -186v-217q0 -144 10 -279h-135q-2 24 -4 92h-2q-77 -109 -212 -109q-141 0 -188 121q-27 69 -27 218v174q0 99 -10 216h170q-10 -81 -10 -216v-117q0 -144 14 -193q22 -78 96 -78q148 0 148 271v117q0 99 -10 216h169q19 16 21 32q2 19 -26 23
q-7 1 -36 1l23 40q27 3 45 0q55 -10 55 -54q0 -27 -46 -53q-13 -7 -38 -19z" />
    <glyph glyph-name="glyph280" unicode="&#x1b0;" horiz-adv-x="593" 
d="M540 472q-7 -96 -7 -128v-137q0 -59 10 -207h-130q-1 24 -5 70q-44 -44 -64 -57q-47 -30 -111 -30q-169 0 -169 224v137q0 49 -10 159l155 10q-1 -17 -6 -82q-4 -54 -4 -87v-73q0 -89 16 -128q20 -50 75 -50q65 0 90 51q18 37 18 127v73q0 49 -10 159l105 10q0 -1 50 -6
q7 11 8 20q2 19 -26 23q-7 1 -36 1l23 40q27 3 45 0q55 -10 55 -53q0 -18 -28 -40q-21 -17 -44 -26z" />
    <glyph glyph-name="glyph281" unicode="&#x1ea0;" horiz-adv-x="704" 
d="M192 0h-165q27 65 94 240l48 134q36 101 52 154q28 94 35 165l192 36q19 -106 97 -329l47 -134q49 -141 113 -266h-175q-5 13 -67 200h-219q-32 -105 -52 -200zM271 295h167q-30 100 -39 135q-26 96 -39 164h-2q-18 -79 -87 -299zM412 -101h-108q0 5 1 16v17q0 36 -4 68
l115 8q-5 -40 -5 -66q0 8 1 -22v-21z" />
    <glyph glyph-name="glyph282" unicode="&#x1ea1;" 
d="M508 0h-125q-7 63 -7 86h-2q-73 -103 -179 -103q-73 0 -119.5 44t-46.5 116q0 105 94 159q77 44 190 44q18 0 54 -2q-7 86 -134 86q-43 0 -138 -19v95q79 19 163 19q152 0 202 -77q32 -49 32 -171v-102q0 -63 16 -175zM367 237v17q-44 7 -54 7q-57 0 -98 -23
q-51 -28 -51 -81q0 -30 24 -47t55 -17q56 0 91 45q33 42 33 99zM312 -158h-108q0 5 1 16v17q0 36 -4 68l115 8q-5 -40 -5 -66q0 8 1 -22v-21z" />
    <glyph glyph-name="glyph283" unicode="&#x1ea2;" horiz-adv-x="704" 
d="M192 0h-165q27 65 94 240l48 134q36 101 52 154q28 94 35 165l192 36q19 -106 97 -329l47 -134q49 -141 113 -266h-175q-5 13 -67 200h-219q-32 -105 -52 -200zM271 295h167q-30 100 -39 135q-26 96 -39 164h-2q-18 -79 -87 -299zM384 760l-25 -1l-25 -2q-2 4 -2 13
q0 28 29.5 58.5t29.5 36.5q0 20 -32 20q-18 0 -44 -8l1 37q28 6 53 6q70 0 70 -49q0 -22 -28.5 -52.5t-28.5 -45.5q0 -9 2 -13z" />
    <glyph glyph-name="glyph284" unicode="&#x1ea3;" 
d="M508 0h-125q-7 63 -7 86h-2q-73 -103 -179 -103q-73 0 -119.5 44t-46.5 116q0 105 94 159q77 44 190 44q18 0 54 -2q-7 86 -134 86q-43 0 -138 -19v95q79 19 163 19q152 0 202 -77q32 -49 32 -171v-102q0 -63 16 -175zM367 237v17q-44 7 -54 7q-57 0 -98 -23
q-51 -28 -51 -81q0 -30 24 -47t55 -17q56 0 91 45q33 42 33 99zM283 558l-25 -1l-25 -2q-2 4 -2 13q0 28 29.5 58.5t29.5 36.5q0 20 -32 20q-18 0 -44 -8l1 37q28 6 53 6q70 0 70 -49q0 -22 -28.5 -52.5t-28.5 -45.5q0 -9 2 -13z" />
    <glyph glyph-name="glyph285" unicode="&#x1ea4;" horiz-adv-x="704" 
d="M192 0h-165q27 65 94 240l48 134q36 101 52 154q28 94 35 165l192 36q19 -106 97 -329l47 -134q49 -141 113 -266h-175q-5 13 -67 200h-219q-32 -105 -52 -200zM271 295h167q-30 100 -39 135q-26 96 -39 164h-2q-18 -79 -87 -299zM314 745l-88 -5q29 37 81 116l103 6
q23 -40 74 -117l-80 -5l-45 74zM532 817l-70 -6q33 43 81 125l108 6q-21 -24 -66 -66q-34 -31 -53 -59z" />
    <glyph glyph-name="glyph286" unicode="&#x1ea5;" 
d="M508 0h-125q-7 63 -7 86h-2q-73 -103 -179 -103q-73 0 -119.5 44t-46.5 116q0 105 94 159q77 44 190 44q18 0 54 -2q-7 86 -134 86q-43 0 -138 -19v95q79 19 163 19q152 0 202 -77q32 -49 32 -171v-102q0 -63 16 -175zM367 237v17q-44 7 -54 7q-57 0 -98 -23
q-51 -28 -51 -81q0 -30 24 -47t55 -17q56 0 91 45q33 42 33 99zM213 550l-88 -5q29 37 81 116l103 6q23 -40 74 -117l-80 -5l-45 74zM431 622l-70 -6q33 43 81 125l108 6q-21 -24 -66 -66q-34 -31 -53 -59z" />
    <glyph glyph-name="glyph287" unicode="&#x1ea6;" horiz-adv-x="704" 
d="M192 0h-165q27 65 94 240l48 134q36 101 52 154q28 94 35 165l192 36q19 -106 97 -329l47 -134q49 -141 113 -266h-175q-5 13 -67 200h-219q-32 -105 -52 -200zM271 295h167q-30 100 -39 135q-26 96 -39 164h-2q-18 -79 -87 -299zM314 745l-88 -5q29 37 81 116l103 6
q23 -40 74 -117l-80 -5l-45 74zM258 811l-70 6q-19 28 -53 59q-45 42 -66 66l108 -6q18 -33 81 -125z" />
    <glyph glyph-name="glyph288" unicode="&#x1ea7;" 
d="M508 0h-125q-7 63 -7 86h-2q-73 -103 -179 -103q-73 0 -119.5 44t-46.5 116q0 105 94 159q77 44 190 44q18 0 54 -2q-7 86 -134 86q-43 0 -138 -19v95q79 19 163 19q152 0 202 -77q32 -49 32 -171v-102q0 -63 16 -175zM367 237v17q-44 7 -54 7q-57 0 -98 -23
q-51 -28 -51 -81q0 -30 24 -47t55 -17q56 0 91 45q33 42 33 99zM213 550l-88 -5q29 37 81 116l103 6q23 -40 74 -117l-80 -5l-45 74zM157 616l-70 6q-19 28 -53 59q-45 42 -66 66l108 -6q18 -33 81 -125z" />
    <glyph glyph-name="glyph289" unicode="&#x1ea8;" horiz-adv-x="704" 
d="M192 0h-165q27 65 94 240l48 134q36 101 52 154q28 94 35 165l192 36q19 -106 97 -329l47 -134q49 -141 113 -266h-175q-5 13 -67 200h-219q-32 -105 -52 -200zM271 295h167q-30 100 -39 135q-26 96 -39 164h-2q-18 -79 -87 -299zM314 745l-88 -5q29 37 81 116l103 6
q23 -40 74 -117l-80 -5l-45 74zM511 815l-25 -1l-25 -2q-2 4 -2 13q0 28 29.5 58.5t29.5 36.5q0 20 -32 20q-18 0 -44 -8l1 37q28 6 53 6q70 0 70 -49q0 -22 -28.5 -52.5t-28.5 -45.5q0 -9 2 -13z" />
    <glyph glyph-name="glyph290" unicode="&#x1ea9;" 
d="M508 0h-125q-7 63 -7 86h-2q-73 -103 -179 -103q-73 0 -119.5 44t-46.5 116q0 105 94 159q77 44 190 44q18 0 54 -2q-7 86 -134 86q-43 0 -138 -19v95q79 19 163 19q152 0 202 -77q32 -49 32 -171v-102q0 -63 16 -175zM367 237v17q-44 7 -54 7q-57 0 -98 -23
q-51 -28 -51 -81q0 -30 24 -47t55 -17q56 0 91 45q33 42 33 99zM213 550l-88 -5q29 37 81 116l103 6q23 -40 74 -117l-80 -5l-45 74zM410 620l-25 -1l-25 -2q-2 4 -2 13q0 28 29.5 58.5t29.5 36.5q0 20 -32 20q-18 0 -44 -8l1 37q28 6 53 6q70 0 70 -49q0 -22 -28.5 -52.5
t-28.5 -45.5q0 -9 2 -13z" />
    <glyph glyph-name="glyph291" unicode="&#x1eaa;" horiz-adv-x="704" 
d="M192 0h-165q27 65 94 240l48 134q36 101 52 154q28 94 35 165l192 36q19 -106 97 -329l47 -134q49 -141 113 -266h-175q-5 13 -67 200h-219q-32 -105 -52 -200zM271 295h167q-30 100 -39 135q-26 96 -39 164h-2q-18 -79 -87 -299zM314 745l-88 -5q29 37 81 116l103 6
q23 -40 74 -117l-80 -5l-45 74zM274 898l-44 2q8 32 33 56t56 22q28 -2 52 -26q9 -9 13 -12q8 -5 17 -6q22 -1 34 25h46q-7 -25 -24 -46q-27 -34 -66 -31q-25 2 -45 16q-32 27 -39 28q-18 2 -33 -28z" />
    <glyph glyph-name="glyph292" unicode="&#x1eab;" 
d="M508 0h-125q-7 63 -7 86h-2q-73 -103 -179 -103q-73 0 -119.5 44t-46.5 116q0 105 94 159q77 44 190 44q18 0 54 -2q-7 86 -134 86q-43 0 -138 -19v95q79 19 163 19q152 0 202 -77q32 -49 32 -171v-102q0 -63 16 -175zM367 237v17q-44 7 -54 7q-57 0 -98 -23
q-51 -28 -51 -81q0 -30 24 -47t55 -17q56 0 91 45q33 42 33 99zM213 550l-88 -5q29 37 81 116l103 6q23 -40 74 -117l-80 -5l-45 74zM173 703l-44 2q8 32 33 56t56 22q28 -2 52 -26q9 -9 13 -12q8 -5 17 -6q22 -1 34 25h46q-7 -25 -24 -46q-27 -34 -66 -31q-25 2 -45 16
q-32 27 -39 28q-18 2 -33 -28z" />
    <glyph glyph-name="glyph293" unicode="&#x1eac;" horiz-adv-x="704" 
d="M192 0h-165q27 65 94 240l48 134q36 101 52 154q28 94 35 165l192 36q19 -106 97 -329l47 -134q49 -141 113 -266h-175q-5 13 -67 200h-219q-32 -105 -52 -200zM271 295h167q-30 100 -39 135q-26 96 -39 164h-2q-18 -79 -87 -299zM314 745l-88 -5q29 37 81 116l103 6
q23 -40 74 -117l-80 -5l-45 74zM412 -101h-108q0 5 1 16v17q0 36 -4 68l115 8q-5 -40 -5 -66q0 8 1 -22v-21z" />
    <glyph glyph-name="glyph294" unicode="&#x1ead;" 
d="M508 0h-125q-7 63 -7 86h-2q-73 -103 -179 -103q-73 0 -119.5 44t-46.5 116q0 105 94 159q77 44 190 44q18 0 54 -2q-7 86 -134 86q-43 0 -138 -19v95q79 19 163 19q152 0 202 -77q32 -49 32 -171v-102q0 -63 16 -175zM367 237v17q-44 7 -54 7q-57 0 -98 -23
q-51 -28 -51 -81q0 -30 24 -47t55 -17q56 0 91 45q33 42 33 99zM213 550l-88 -5q29 37 81 116l103 6q23 -40 74 -117l-80 -5l-45 74zM312 -158h-108q0 5 1 16v17q0 36 -4 68l115 8q-5 -40 -5 -66q0 8 1 -22v-21z" />
    <glyph glyph-name="glyph295" unicode="&#x1eae;" horiz-adv-x="704" 
d="M192 0h-165q27 65 94 240l48 134q36 101 52 154q28 94 35 165l192 36q19 -106 97 -329l47 -134q49 -141 113 -266h-175q-5 13 -67 200h-219q-32 -105 -52 -200zM271 295h167q-30 100 -39 135q-26 96 -39 164h-2q-18 -79 -87 -299zM406 847l67 5q0 -40 -23 -71
q-30 -41 -90 -41q-47 0 -80.5 29.5t-33.5 76.5l68 4q0 -57 49 -57q38 0 43 54zM394 858l-70 -6q33 43 81 125l108 6q-21 -24 -66 -66q-34 -31 -53 -59z" />
    <glyph glyph-name="glyph296" unicode="&#x1eaf;" 
d="M508 0h-125q-7 63 -7 86h-2q-73 -103 -179 -103q-73 0 -119.5 44t-46.5 116q0 105 94 159q77 44 190 44q18 0 54 -2q-7 86 -134 86q-43 0 -138 -19v95q79 19 163 19q152 0 202 -77q32 -49 32 -171v-102q0 -63 16 -175zM367 237v17q-44 7 -54 7q-57 0 -98 -23
q-51 -28 -51 -81q0 -30 24 -47t55 -17q56 0 91 45q33 42 33 99zM304 652l67 5q0 -40 -23 -71q-30 -41 -90 -41q-47 0 -80.5 29.5t-33.5 76.5l68 4q0 -57 49 -57q38 0 43 54zM292 663l-70 -6q33 43 81 125l108 6q-21 -24 -66 -66q-34 -31 -53 -59z" />
    <glyph glyph-name="glyph297" unicode="&#x1eb0;" horiz-adv-x="704" 
d="M192 0h-165q27 65 94 240l48 134q36 101 52 154q28 94 35 165l192 36q19 -106 97 -329l47 -134q49 -141 113 -266h-175q-5 13 -67 200h-219q-32 -105 -52 -200zM271 295h167q-30 100 -39 135q-26 96 -39 164h-2q-18 -79 -87 -299zM406 847l67 5q0 -40 -23 -71
q-30 -41 -90 -41q-47 0 -80.5 29.5t-33.5 76.5l68 4q0 -57 49 -57q38 0 43 54zM394 852l-70 6q-19 28 -53 59q-45 42 -66 66l108 -6q18 -33 81 -125z" />
    <glyph glyph-name="glyph298" unicode="&#x1eb1;" 
d="M508 0h-125q-7 63 -7 86h-2q-73 -103 -179 -103q-73 0 -119.5 44t-46.5 116q0 105 94 159q77 44 190 44q18 0 54 -2q-7 86 -134 86q-43 0 -138 -19v95q79 19 163 19q152 0 202 -77q32 -49 32 -171v-102q0 -63 16 -175zM367 237v17q-44 7 -54 7q-57 0 -98 -23
q-51 -28 -51 -81q0 -30 24 -47t55 -17q56 0 91 45q33 42 33 99zM304 653l67 5q0 -40 -23 -71q-30 -41 -90 -41q-47 0 -80.5 29.5t-33.5 76.5l68 4q0 -57 49 -57q38 0 43 54zM292 658l-70 6q-19 28 -53 59q-45 42 -66 66l108 -6q18 -33 81 -125z" />
    <glyph glyph-name="glyph299" unicode="&#x1eb2;" horiz-adv-x="704" 
d="M192 0h-165q27 65 94 240l48 134q36 101 52 154q28 94 35 165l192 36q19 -106 97 -329l47 -134q49 -141 113 -266h-175q-5 13 -67 200h-219q-32 -105 -52 -200zM271 295h167q-30 100 -39 135q-26 96 -39 164h-2q-18 -79 -87 -299zM406 847l67 5q0 -40 -23 -71
q-30 -41 -90 -41q-47 0 -80.5 29.5t-33.5 76.5l68 4q0 -57 49 -57q38 0 43 54zM384 845l-25 -1l-25 -2q-2 4 -2 13q0 28 29.5 58.5t29.5 36.5q0 20 -32 20q-18 0 -44 -8l1 37q28 6 53 6q70 0 70 -49q0 -22 -28.5 -52.5t-28.5 -45.5q0 -9 2 -13z" />
    <glyph glyph-name="glyph300" unicode="&#x1eb3;" 
d="M508 0h-125q-7 63 -7 86h-2q-73 -103 -179 -103q-73 0 -119.5 44t-46.5 116q0 105 94 159q77 44 190 44q18 0 54 -2q-7 86 -134 86q-43 0 -138 -19v95q79 19 163 19q152 0 202 -77q32 -49 32 -171v-102q0 -63 16 -175zM367 237v17q-44 7 -54 7q-57 0 -98 -23
q-51 -28 -51 -81q0 -30 24 -47t55 -17q56 0 91 45q33 42 33 99zM304 652l67 5q0 -40 -23 -71q-30 -41 -90 -41q-47 0 -80.5 29.5t-33.5 76.5l68 4q0 -57 49 -57q38 0 43 54zM282 650l-25 -1l-25 -2q-2 4 -2 13q0 28 29.5 58.5t29.5 36.5q0 20 -32 20q-18 0 -44 -8l1 37
q28 6 53 6q70 0 70 -49q0 -22 -28.5 -52.5t-28.5 -45.5q0 -9 2 -13z" />
    <glyph glyph-name="glyph301" unicode="&#x1eb4;" horiz-adv-x="704" 
d="M192 0h-165q27 65 94 240l48 134q36 101 52 154q28 94 35 165l192 36q19 -106 97 -329l47 -134q49 -141 113 -266h-175q-5 13 -67 200h-219q-32 -105 -52 -200zM271 295h167q-30 100 -39 135q-26 96 -39 164h-2q-18 -79 -87 -299zM406 847l67 5q0 -40 -23 -71
q-30 -41 -90 -41q-47 0 -80.5 29.5t-33.5 76.5l68 4q0 -57 49 -57q38 0 43 54zM380 878l-44 2q8 32 33 56t56 22q28 -2 52 -26q9 -9 13 -12q8 -5 17 -6q22 -1 34 25h46q-7 -25 -24 -46q-27 -34 -66 -31q-25 2 -45 16q-32 27 -39 28q-18 2 -33 -28z" />
    <glyph glyph-name="glyph302" unicode="&#x1eb5;" 
d="M508 0h-125q-7 63 -7 86h-2q-73 -103 -179 -103q-73 0 -119.5 44t-46.5 116q0 105 94 159q77 44 190 44q18 0 54 -2q-7 86 -134 86q-43 0 -138 -19v95q79 19 163 19q152 0 202 -77q32 -49 32 -171v-102q0 -63 16 -175zM367 237v17q-44 7 -54 7q-57 0 -98 -23
q-51 -28 -51 -81q0 -30 24 -47t55 -17q56 0 91 45q33 42 33 99zM304 653l67 5q0 -40 -23 -71q-30 -41 -90 -41q-47 0 -80.5 29.5t-33.5 76.5l68 4q0 -57 49 -57q38 0 43 54zM278 684l-44 2q8 32 33 56t56 22q28 -2 52 -26q9 -9 13 -12q8 -5 17 -6q22 -1 34 25h46
q-7 -25 -24 -46q-27 -34 -66 -31q-25 2 -45 16q-32 27 -39 28q-18 2 -33 -28z" />
    <glyph glyph-name="glyph303" unicode="&#x1eb6;" horiz-adv-x="704" 
d="M192 0h-165q27 65 94 240l48 134q36 101 52 154q28 94 35 165l192 36q19 -106 97 -329l47 -134q49 -141 113 -266h-175q-5 13 -67 200h-219q-32 -105 -52 -200zM271 295h167q-30 100 -39 135q-26 96 -39 164h-2q-18 -79 -87 -299zM406 847l67 5q0 -40 -23 -71
q-30 -41 -90 -41q-47 0 -80.5 29.5t-33.5 76.5l68 4q0 -57 49 -57q38 0 43 54zM412 -101h-108q0 5 1 16v17q0 36 -4 68l115 8q-5 -40 -5 -66q0 8 1 -22v-21z" />
    <glyph glyph-name="glyph304" unicode="&#x1eb7;" 
d="M508 0h-125q-7 63 -7 86h-2q-73 -103 -179 -103q-73 0 -119.5 44t-46.5 116q0 105 94 159q77 44 190 44q18 0 54 -2q-7 86 -134 86q-43 0 -138 -19v95q79 19 163 19q152 0 202 -77q32 -49 32 -171v-102q0 -63 16 -175zM367 237v17q-44 7 -54 7q-57 0 -98 -23
q-51 -28 -51 -81q0 -30 24 -47t55 -17q56 0 91 45q33 42 33 99zM312 -158h-108q0 5 1 16v17q0 36 -4 68l115 8q-5 -40 -5 -66q0 8 1 -22v-21zM304 652l67 5q0 -40 -23 -71q-30 -41 -90 -41q-47 0 -80.5 29.5t-33.5 76.5l68 4q0 -57 49 -57q38 0 43 54z" />
    <glyph glyph-name="glyph305" unicode="&#x1eb8;" 
d="M496 0h-405q5 97 5 184v326q0 111 -20 202h409l7 -115q-85 5 -193 5h-53v-173h53q122 0 186 5l-5 -120q-70 5 -181 5h-53v-209h53q107 0 206 15zM339 -141h-108q0 5 1 16v17q0 36 -4 68l115 8q-5 -40 -5 -66q0 8 1 -22v-21z" />
    <glyph glyph-name="glyph306" unicode="&#x1eb9;" 
d="M474 109v-110q-64 -16 -130 -16q-139 0 -225 82.5t-86 220.5q0 107 70.5 173t177.5 66q118 0 181 -73q60 -69 60 -188v-16q-1 -11 -1 -16h-353q4 -70 66 -107q52 -32 127 -32q28 0 113 16zM168 317h219q0 40 -30.5 69t-71.5 29q-46 0 -79 -26.5t-38 -71.5zM342 -165h-108
q0 5 1 16v17q0 36 -4 68l115 8q-5 -40 -5 -66q0 8 1 -22v-21z" />
    <glyph glyph-name="glyph307" unicode="&#x1eba;" 
d="M496 0h-405q5 97 5 184v326q0 111 -20 202h409l7 -115q-85 5 -193 5h-53v-173h53q122 0 186 5l-5 -120q-70 5 -181 5h-53v-209h53q107 0 206 15zM310 750l-25 -1l-25 -2q-2 4 -2 13q0 28 29.5 58.5t29.5 36.5q0 20 -32 20q-18 0 -44 -8l1 37q28 6 53 6q70 0 70 -49
q0 -22 -28.5 -52.5t-28.5 -45.5q0 -9 2 -13z" />
    <glyph glyph-name="glyph308" unicode="&#x1ebb;" 
d="M474 109v-110q-64 -16 -130 -16q-139 0 -225 82.5t-86 220.5q0 107 70.5 173t177.5 66q118 0 181 -73q60 -69 60 -188v-16q-1 -11 -1 -16h-353q4 -70 66 -107q52 -32 127 -32q28 0 113 16zM168 317h219q0 40 -30.5 69t-71.5 29q-46 0 -79 -26.5t-38 -71.5zM306 558
l-25 -1l-25 -2q-2 4 -2 13q0 28 29.5 58.5t29.5 36.5q0 20 -32 20q-18 0 -44 -8l1 37q28 6 53 6q70 0 70 -49q0 -22 -28.5 -52.5t-28.5 -45.5q0 -9 2 -13z" />
    <glyph glyph-name="glyph309" unicode="&#x1ebc;" 
d="M496 0h-405q5 97 5 184v326q0 111 -20 202h409l7 -115q-85 5 -193 5h-53v-173h53q122 0 186 5l-5 -120q-70 5 -181 5h-53v-209h53q107 0 206 15zM200 776l-44 2q8 32 33 56t56 22q28 -2 52 -26q9 -9 13 -12q8 -5 17 -6q22 -1 34 25h46q-7 -25 -24 -46q-27 -34 -66 -31
q-25 2 -45 16q-32 27 -39 28q-18 2 -33 -28z" />
    <glyph glyph-name="glyph310" unicode="&#x1ebd;" 
d="M474 109v-110q-64 -16 -130 -16q-139 0 -225 82.5t-86 220.5q0 107 70.5 173t177.5 66q118 0 181 -73q60 -69 60 -188v-16q-1 -11 -1 -16h-353q4 -70 66 -107q52 -32 127 -32q28 0 113 16zM168 317h219q0 40 -30.5 69t-71.5 29q-46 0 -79 -26.5t-38 -71.5zM203 583l-44 2
q8 32 33 56t56 22q28 -2 52 -26q9 -9 13 -12q8 -5 17 -6q22 -1 34 25h46q-7 -25 -24 -46q-27 -34 -66 -31q-25 2 -45 16q-32 27 -39 28q-18 2 -33 -28z" />
    <glyph glyph-name="glyph311" unicode="&#x1ebe;" 
d="M496 0h-405q5 97 5 184v326q0 111 -20 202h409l7 -115q-85 5 -193 5h-53v-173h53q122 0 186 5l-5 -120q-70 5 -181 5h-53v-209h53q107 0 206 15zM240 735l-88 -5q29 37 81 116l103 6q23 -40 74 -117l-80 -5l-45 74zM458 807l-70 -6q33 43 81 125l108 6q-21 -24 -66 -66
q-34 -31 -53 -59z" />
    <glyph glyph-name="glyph312" unicode="&#x1ebf;" 
d="M474 109v-110q-64 -16 -130 -16q-139 0 -225 82.5t-86 220.5q0 107 70.5 173t177.5 66q118 0 181 -73q60 -69 60 -188v-16q-1 -11 -1 -16h-353q4 -70 66 -107q52 -32 127 -32q28 0 113 16zM168 317h219q0 40 -30.5 69t-71.5 29q-46 0 -79 -26.5t-38 -71.5zM243 550
l-88 -5q29 37 81 116l103 6q23 -40 74 -117l-80 -5l-45 74zM461 622l-70 -6q33 43 81 125l108 6q-21 -24 -66 -66q-34 -31 -53 -59z" />
    <glyph glyph-name="glyph313" unicode="&#x1ec0;" 
d="M496 0h-405q5 97 5 184v326q0 111 -20 202h409l7 -115q-85 5 -193 5h-53v-173h53q122 0 186 5l-5 -120q-70 5 -181 5h-53v-209h53q107 0 206 15zM240 735l-88 -5q29 37 81 116l103 6q23 -40 74 -117l-80 -5l-45 74zM184 801l-70 6q-19 28 -53 59q-45 42 -66 66l108 -6
q18 -33 81 -125z" />
    <glyph glyph-name="glyph314" unicode="&#x1ec1;" 
d="M474 109v-110q-64 -16 -130 -16q-139 0 -225 82.5t-86 220.5q0 107 70.5 173t177.5 66q118 0 181 -73q60 -69 60 -188v-16q-1 -11 -1 -16h-353q4 -70 66 -107q52 -32 127 -32q28 0 113 16zM168 317h219q0 40 -30.5 69t-71.5 29q-46 0 -79 -26.5t-38 -71.5zM243 550
l-88 -5q29 37 81 116l103 6q23 -40 74 -117l-80 -5l-45 74zM187 616l-70 6q-19 28 -53 59q-45 42 -66 66l108 -6q18 -33 81 -125z" />
    <glyph glyph-name="glyph315" unicode="&#x1ec2;" 
d="M496 0h-405q5 97 5 184v326q0 111 -20 202h409l7 -115q-85 5 -193 5h-53v-173h53q122 0 186 5l-5 -120q-70 5 -181 5h-53v-209h53q107 0 206 15zM240 735l-88 -5q29 37 81 116l103 6q23 -40 74 -117l-80 -5l-45 74zM437 805l-25 -1l-25 -2q-2 4 -2 13q0 28 29.5 58.5
t29.5 36.5q0 20 -32 20q-18 0 -44 -8l1 37q28 6 53 6q70 0 70 -49q0 -22 -28.5 -52.5t-28.5 -45.5q0 -9 2 -13z" />
    <glyph glyph-name="glyph316" unicode="&#x1ec3;" 
d="M474 109v-110q-64 -16 -130 -16q-139 0 -225 82.5t-86 220.5q0 107 70.5 173t177.5 66q118 0 181 -73q60 -69 60 -188v-16q-1 -11 -1 -16h-353q4 -70 66 -107q52 -32 127 -32q28 0 113 16zM168 317h219q0 40 -30.5 69t-71.5 29q-46 0 -79 -26.5t-38 -71.5zM243 550
l-88 -5q29 37 81 116l103 6q23 -40 74 -117l-80 -5l-45 74zM440 620l-25 -1l-25 -2q-2 4 -2 13q0 28 29.5 58.5t29.5 36.5q0 20 -32 20q-18 0 -44 -8l1 37q28 6 53 6q70 0 70 -49q0 -22 -28.5 -52.5t-28.5 -45.5q0 -9 2 -13z" />
    <glyph glyph-name="glyph317" unicode="&#x1ec4;" 
d="M496 0h-405q5 97 5 184v326q0 111 -20 202h409l7 -115q-85 5 -193 5h-53v-173h53q122 0 186 5l-5 -120q-70 5 -181 5h-53v-209h53q107 0 206 15zM240 735l-88 -5q29 37 81 116l103 6q23 -40 74 -117l-80 -5l-45 74zM200 888l-44 2q8 32 33 56t56 22q28 -2 52 -26
q9 -9 13 -12q8 -5 17 -6q22 -1 34 25h46q-7 -25 -24 -46q-27 -34 -66 -31q-25 2 -45 16q-32 27 -39 28q-18 2 -33 -28z" />
    <glyph glyph-name="glyph318" unicode="&#x1ec5;" 
d="M474 109v-110q-64 -16 -130 -16q-139 0 -225 82.5t-86 220.5q0 107 70.5 173t177.5 66q118 0 181 -73q60 -69 60 -188v-16q-1 -11 -1 -16h-353q4 -70 66 -107q52 -32 127 -32q28 0 113 16zM168 317h219q0 40 -30.5 69t-71.5 29q-46 0 -79 -26.5t-38 -71.5zM243 550
l-88 -5q29 37 81 116l103 6q23 -40 74 -117l-80 -5l-45 74zM203 703l-44 2q8 32 33 56t56 22q28 -2 52 -26q9 -9 13 -12q8 -5 17 -6q22 -1 34 25h46q-7 -25 -24 -46q-27 -34 -66 -31q-25 2 -45 16q-32 27 -39 28q-18 2 -33 -28z" />
    <glyph glyph-name="glyph319" unicode="&#x1ec6;" 
d="M496 0h-405q5 97 5 184v326q0 111 -20 202h409l7 -115q-85 5 -193 5h-53v-173h53q122 0 186 5l-5 -120q-70 5 -181 5h-53v-209h53q107 0 206 15zM240 735l-88 -5q29 37 81 116l103 6q23 -40 74 -117l-80 -5l-45 74zM339 -141h-108q0 5 1 16v17q0 36 -4 68l115 8
q-5 -40 -5 -66q0 8 1 -22v-21z" />
    <glyph glyph-name="glyph320" unicode="&#x1ec7;" 
d="M474 109v-110q-64 -16 -130 -16q-139 0 -225 82.5t-86 220.5q0 107 70.5 173t177.5 66q118 0 181 -73q60 -69 60 -188v-16q-1 -11 -1 -16h-353q4 -70 66 -107q52 -32 127 -32q28 0 113 16zM168 317h219q0 40 -30.5 69t-71.5 29q-46 0 -79 -26.5t-38 -71.5zM243 550
l-88 -5q29 37 81 116l103 6q23 -40 74 -117l-80 -5l-45 74zM342 -165h-108q0 5 1 16v17q0 36 -4 68l115 8q-5 -40 -5 -66q0 8 1 -22v-21z" />
    <glyph glyph-name="glyph321" unicode="&#x1ec8;" horiz-adv-x="333" 
d="M263 0h-175q5 97 5 184v278q0 144 -20 250h175q0 -34 -2.5 -101t-2.5 -101v-260q0 -99 20 -250zM193 750l-25 -1l-25 -2q-2 4 -2 13q0 28 29.5 58.5t29.5 36.5q0 20 -32 20q-18 0 -44 -8l1 37q28 6 53 6q70 0 70 -49q0 -22 -28.5 -52.5t-28.5 -45.5q0 -9 2 -13z" />
    <glyph glyph-name="glyph322" unicode="&#x1ec9;" horiz-adv-x="259" 
d="M205 0h-145q5 140 5 171v121q0 91 -15 211l155 10q-5 -96 -5 -159v-183q0 -31 5 -171zM156 538l-25 -1l-25 -2q-2 4 -2 13q0 28 29.5 58.5t29.5 36.5q0 20 -32 20q-18 0 -44 -8l1 37q28 6 53 6q70 0 70 -49q0 -22 -28.5 -52.5t-28.5 -45.5q0 -9 2 -13z" />
    <glyph glyph-name="glyph323" unicode="&#x1eca;" horiz-adv-x="333" 
d="M263 0h-175q5 97 5 184v278q0 144 -20 250h175q0 -34 -2.5 -101t-2.5 -101v-260q0 -99 20 -250zM222 -141h-108q0 5 1 16v17q0 36 -4 68l115 8q-5 -40 -5 -66q0 8 1 -22v-21z" />
    <glyph glyph-name="glyph324" unicode="&#x1ecb;" horiz-adv-x="259" 
d="M205 0h-145q5 140 5 171v121q0 91 -15 211l155 10q-5 -96 -5 -159v-183q0 -31 5 -171zM183 -149h-108q0 5 1 16v17q0 36 -4 68l115 8q-5 -40 -5 -66q0 8 1 -22v-21zM70 545v54q0 32 -4 64l124 9q-4 -36 -4 -73v-48z" />
    <glyph glyph-name="glyph325" unicode="&#x1ecc;" horiz-adv-x="722" 
d="M363 -17q-152 0 -245 119q-85 110 -85 266q0 157 85 256q90 105 245 105q152 0 242 -106q85 -100 85 -255q0 -156 -84 -265q-92 -120 -243 -120zM183 368q0 -96 41 -170q51 -90 139 -90t137 90q40 74 40 170t-39 160q-48 76 -138 76q-92 0 -140 -75q-40 -64 -40 -161z
M416 -162h-108q0 5 1 16v17q0 36 -4 68l115 8q-5 -40 -5 -66q0 8 1 -22v-21z" />
    <glyph glyph-name="glyph326" unicode="&#x1ecd;" horiz-adv-x="593" 
d="M297 -17q-119 0 -193 77.5t-74 196.5q0 121 73 194.5t194 73.5q119 0 192 -74.5t73 -193.5q0 -117 -74 -195.5t-191 -78.5zM165 257q0 -68 31 -113q36 -51 101 -51q67 0 101 51q29 43 29 113q0 158 -130 158q-68 0 -102 -47q-30 -41 -30 -111zM350 -162h-108q0 5 1 16v17
q0 36 -4 68l115 8q-5 -40 -5 -66q0 8 1 -22v-21z" />
    <glyph glyph-name="glyph327" unicode="&#x1ece;" horiz-adv-x="722" 
d="M363 -17q-152 0 -245 119q-85 110 -85 266q0 157 85 256q90 105 245 105q152 0 242 -106q85 -100 85 -255q0 -156 -84 -265q-92 -120 -243 -120zM183 368q0 -96 41 -170q51 -90 139 -90t137 90q40 74 40 170t-39 160q-48 76 -138 76q-92 0 -140 -75q-40 -64 -40 -161z
M388 760l-25 -1l-25 -2q-2 4 -2 13q0 28 29.5 58.5t29.5 36.5q0 20 -32 20q-18 0 -44 -8l1 37q28 6 53 6q70 0 70 -49q0 -22 -28.5 -52.5t-28.5 -45.5q0 -9 2 -13z" />
    <glyph glyph-name="glyph328" unicode="&#x1ecf;" horiz-adv-x="593" 
d="M297 -17q-119 0 -193 77.5t-74 196.5q0 121 73 194.5t194 73.5q119 0 192 -74.5t73 -193.5q0 -117 -74 -195.5t-191 -78.5zM165 257q0 -68 31 -113q36 -51 101 -51q67 0 101 51q29 43 29 113q0 158 -130 158q-68 0 -102 -47q-30 -41 -30 -111zM322 558l-25 -1l-25 -2
q-2 4 -2 13q0 28 29.5 58.5t29.5 36.5q0 20 -32 20q-18 0 -44 -8l1 37q28 6 53 6q70 0 70 -49q0 -22 -28.5 -52.5t-28.5 -45.5q0 -9 2 -13z" />
    <glyph glyph-name="glyph329" unicode="&#x1ed0;" horiz-adv-x="722" 
d="M363 -17q-152 0 -245 119q-85 110 -85 266q0 157 85 256q90 105 245 105q152 0 242 -106q85 -100 85 -255q0 -156 -84 -265q-92 -120 -243 -120zM183 368q0 -96 41 -170q51 -90 139 -90t137 90q40 74 40 170t-39 160q-48 76 -138 76q-92 0 -140 -75q-40 -64 -40 -161z
M320 745l-88 -5q29 37 81 116l103 6q23 -40 74 -117l-80 -5l-45 74zM538 817l-70 -6q33 43 81 125l108 6q-21 -24 -66 -66q-34 -31 -53 -59z" />
    <glyph glyph-name="glyph330" unicode="&#x1ed1;" horiz-adv-x="593" 
d="M297 -17q-119 0 -193 77.5t-74 196.5q0 121 73 194.5t194 73.5q119 0 192 -74.5t73 -193.5q0 -117 -74 -195.5t-191 -78.5zM165 257q0 -68 31 -113q36 -51 101 -51q67 0 101 51q29 43 29 113q0 158 -130 158q-68 0 -102 -47q-30 -41 -30 -111zM263 550l-88 -5
q29 37 81 116l103 6q23 -40 74 -117l-80 -5l-45 74zM481 622l-70 -6q33 43 81 125l108 6q-21 -24 -66 -66q-34 -31 -53 -59z" />
    <glyph glyph-name="glyph331" unicode="&#x1ed2;" horiz-adv-x="722" 
d="M363 -17q-152 0 -245 119q-85 110 -85 266q0 157 85 256q90 105 245 105q152 0 242 -106q85 -100 85 -255q0 -156 -84 -265q-92 -120 -243 -120zM183 368q0 -96 41 -170q51 -90 139 -90t137 90q40 74 40 170t-39 160q-48 76 -138 76q-92 0 -140 -75q-40 -64 -40 -161z
M320 745l-88 -5q29 37 81 116l103 6q23 -40 74 -117l-80 -5l-45 74zM264 811l-70 6q-19 28 -53 59q-45 42 -66 66l108 -6q18 -33 81 -125z" />
    <glyph glyph-name="glyph332" unicode="&#x1ed3;" horiz-adv-x="593" 
d="M297 -17q-119 0 -193 77.5t-74 196.5q0 121 73 194.5t194 73.5q119 0 192 -74.5t73 -193.5q0 -117 -74 -195.5t-191 -78.5zM165 257q0 -68 31 -113q36 -51 101 -51q67 0 101 51q29 43 29 113q0 158 -130 158q-68 0 -102 -47q-30 -41 -30 -111zM263 550l-88 -5
q29 37 81 116l103 6q23 -40 74 -117l-80 -5l-45 74zM207 616l-70 6q-19 28 -53 59q-45 42 -66 66l108 -6q18 -33 81 -125z" />
    <glyph glyph-name="glyph333" unicode="&#x1ed4;" horiz-adv-x="722" 
d="M363 -17q-152 0 -245 119q-85 110 -85 266q0 157 85 256q90 105 245 105q152 0 242 -106q85 -100 85 -255q0 -156 -84 -265q-92 -120 -243 -120zM183 368q0 -96 41 -170q51 -90 139 -90t137 90q40 74 40 170t-39 160q-48 76 -138 76q-92 0 -140 -75q-40 -64 -40 -161z
M320 755l-88 -5q29 37 81 116l103 6q23 -40 74 -117l-80 -5l-45 74zM517 825l-25 -1l-25 -2q-2 4 -2 13q0 28 29.5 58.5t29.5 36.5q0 20 -32 20q-18 0 -44 -8l1 37q28 6 53 6q70 0 70 -49q0 -22 -28.5 -52.5t-28.5 -45.5q0 -9 2 -13z" />
    <glyph glyph-name="glyph334" unicode="&#x1ed5;" horiz-adv-x="593" 
d="M297 -17q-119 0 -193 77.5t-74 196.5q0 121 73 194.5t194 73.5q119 0 192 -74.5t73 -193.5q0 -117 -74 -195.5t-191 -78.5zM165 257q0 -68 31 -113q36 -51 101 -51q67 0 101 51q29 43 29 113q0 158 -130 158q-68 0 -102 -47q-30 -41 -30 -111zM263 550l-88 -5
q29 37 81 116l103 6q23 -40 74 -117l-80 -5l-45 74zM460 620l-25 -1l-25 -2q-2 4 -2 13q0 28 29.5 58.5t29.5 36.5q0 20 -32 20q-18 0 -44 -8l1 37q28 6 53 6q70 0 70 -49q0 -22 -28.5 -52.5t-28.5 -45.5q0 -9 2 -13z" />
    <glyph glyph-name="glyph335" unicode="&#x1ed6;" horiz-adv-x="722" 
d="M363 -17q-152 0 -245 119q-85 110 -85 266q0 157 85 256q90 105 245 105q152 0 242 -106q85 -100 85 -255q0 -156 -84 -265q-92 -120 -243 -120zM183 368q0 -96 41 -170q51 -90 139 -90t137 90q40 74 40 170t-39 160q-48 76 -138 76q-92 0 -140 -75q-40 -64 -40 -161z
M320 745l-88 -5q29 37 81 116l103 6q23 -40 74 -117l-80 -5l-45 74zM280 898l-44 2q8 32 33 56t56 22q28 -2 52 -26q9 -9 13 -12q8 -5 17 -6q22 -1 34 25h46q-7 -25 -24 -46q-27 -34 -66 -31q-25 2 -45 16q-32 27 -39 28q-18 2 -33 -28z" />
    <glyph glyph-name="glyph336" unicode="&#x1ed7;" horiz-adv-x="593" 
d="M297 -17q-119 0 -193 77.5t-74 196.5q0 121 73 194.5t194 73.5q119 0 192 -74.5t73 -193.5q0 -117 -74 -195.5t-191 -78.5zM165 257q0 -68 31 -113q36 -51 101 -51q67 0 101 51q29 43 29 113q0 158 -130 158q-68 0 -102 -47q-30 -41 -30 -111zM263 550l-88 -5
q29 37 81 116l103 6q23 -40 74 -117l-80 -5l-45 74zM223 703l-44 2q8 32 33 56t56 22q28 -2 52 -26q9 -9 13 -12q8 -5 17 -6q22 -1 34 25h46q-7 -25 -24 -46q-27 -34 -66 -31q-25 2 -45 16q-32 27 -39 28q-18 2 -33 -28z" />
    <glyph glyph-name="glyph337" unicode="&#x1ed8;" horiz-adv-x="722" 
d="M363 -17q-152 0 -245 119q-85 110 -85 266q0 157 85 256q90 105 245 105q152 0 242 -106q85 -100 85 -255q0 -156 -84 -265q-92 -120 -243 -120zM183 368q0 -96 41 -170q51 -90 139 -90t137 90q40 74 40 170t-39 160q-48 76 -138 76q-92 0 -140 -75q-40 -64 -40 -161z
M320 745l-88 -5q29 37 81 116l103 6q23 -40 74 -117l-80 -5l-45 74zM416 -162h-108q0 5 1 16v17q0 36 -4 68l115 8q-5 -40 -5 -66q0 8 1 -22v-21z" />
    <glyph glyph-name="glyph338" unicode="&#x1ed9;" horiz-adv-x="593" 
d="M297 -17q-119 0 -193 77.5t-74 196.5q0 121 73 194.5t194 73.5q119 0 192 -74.5t73 -193.5q0 -117 -74 -195.5t-191 -78.5zM165 257q0 -68 31 -113q36 -51 101 -51q67 0 101 51q29 43 29 113q0 158 -130 158q-68 0 -102 -47q-30 -41 -30 -111zM263 550l-88 -5
q29 37 81 116l103 6q23 -40 74 -117l-80 -5l-45 74zM350 -162h-108q0 5 1 16v17q0 36 -4 68l115 8q-5 -40 -5 -66q0 8 1 -22v-21z" />
    <glyph glyph-name="glyph339" unicode="&#x1eda;" horiz-adv-x="722" 
d="M183 368q0 -96 41 -170q51 -90 139 -90t137 90q40 74 40 170t-39 160q-48 76 -138 76q-92 0 -140 -75q-40 -64 -40 -161zM483 708q29 6 64 6q20 0 42 -2q19 16 21 32q2 19 -26 23q-7 1 -36 1l23 40q27 3 45 0q55 -10 55 -54q0 -38 -84 -80l-24 -12q127 -100 127 -294
q0 -156 -84 -265q-92 -120 -243 -120q-152 0 -245 119q-85 110 -85 266q0 157 85 256q90 105 245 105q66 0 120 -21zM399 770l-70 -6q33 43 81 125l108 6q-21 -24 -66 -66q-34 -31 -53 -59z" />
    <glyph glyph-name="glyph340" unicode="&#x1edb;" horiz-adv-x="593" 
d="M165 257q0 -68 31 -113q36 -51 101 -51q67 0 101 51q29 43 29 113q0 158 -130 158q-68 0 -102 -47q-30 -41 -30 -111zM428 495q22 -1 32 3q22 9 21 29t-26 23q-8 1 -36 1l23 40q27 3 45 0q55 -10 55 -54q0 -19 -29 -41q-24 -17 -47 -25q96 -75 96 -214q0 -117 -74 -195.5
t-191 -78.5q-119 0 -193 77.5t-74 196.5q0 121 73 194.5t194 73.5q73 0 131 -30zM332 571l-70 -6q33 43 81 125l108 6q-21 -24 -66 -66q-34 -31 -53 -59z" />
    <glyph glyph-name="glyph341" unicode="&#x1edc;" horiz-adv-x="722" 
d="M183 368q0 -96 41 -170q51 -90 139 -90t137 90q40 74 40 170t-39 160q-48 76 -138 76q-92 0 -140 -75q-40 -64 -40 -161zM483 708q29 6 64 6q20 0 42 -2q19 16 21 32q2 19 -26 23q-7 1 -36 1l23 40q27 3 45 0q55 -10 55 -54q0 -38 -84 -80l-24 -12q127 -100 127 -294
q0 -156 -84 -265q-92 -120 -243 -120q-152 0 -245 119q-85 110 -85 266q0 157 85 256q90 105 245 105q66 0 120 -21zM399 764l-70 6q-19 28 -53 59q-45 42 -66 66l108 -6q18 -33 81 -125z" />
    <glyph glyph-name="glyph342" unicode="&#x1edd;" horiz-adv-x="593" 
d="M165 257q0 -68 31 -113q36 -51 101 -51q67 0 101 51q29 43 29 113q0 158 -130 158q-68 0 -102 -47q-30 -41 -30 -111zM428 495q22 -1 32 3q22 9 21 29t-26 23q-8 1 -36 1l23 40q27 3 45 0q55 -10 55 -54q0 -19 -29 -41q-24 -17 -47 -25q96 -75 96 -214q0 -117 -74 -195.5
t-191 -78.5q-119 0 -193 77.5t-74 196.5q0 121 73 194.5t194 73.5q73 0 131 -30zM332 565l-70 6q-19 28 -53 59q-45 42 -66 66l108 -6q18 -33 81 -125z" />
    <glyph glyph-name="glyph343" unicode="&#x1ede;" horiz-adv-x="722" 
d="M183 368q0 -96 41 -170q51 -90 139 -90t137 90q40 74 40 170t-39 160q-48 76 -138 76q-92 0 -140 -75q-40 -64 -40 -161zM483 708q29 6 64 6q20 0 42 -2q19 16 21 32q2 19 -26 23q-7 1 -36 1l23 40q27 3 45 0q55 -10 55 -54q0 -38 -84 -80l-24 -12q127 -100 127 -294
q0 -156 -84 -265q-92 -120 -243 -120q-152 0 -245 119q-85 110 -85 266q0 157 85 256q90 105 245 105q66 0 120 -21zM388 760l-25 -1l-25 -2q-2 4 -2 13q0 28 29.5 58.5t29.5 36.5q0 20 -32 20q-18 0 -44 -8l1 37q28 6 53 6q70 0 70 -49q0 -22 -28.5 -52.5t-28.5 -45.5
q0 -9 2 -13z" />
    <glyph glyph-name="glyph344" unicode="&#x1edf;" horiz-adv-x="593" 
d="M165 257q0 -68 31 -113q36 -51 101 -51q67 0 101 51q29 43 29 113q0 158 -130 158q-68 0 -102 -47q-30 -41 -30 -111zM428 495q22 -1 32 3q22 9 21 29t-26 23q-8 1 -36 1l23 40q27 3 45 0q55 -10 55 -54q0 -19 -29 -41q-24 -17 -47 -25q96 -75 96 -214q0 -117 -74 -195.5
t-191 -78.5q-119 0 -193 77.5t-74 196.5q0 121 73 194.5t194 73.5q73 0 131 -30zM322 558l-25 -1l-25 -2q-2 4 -2 13q0 28 29.5 58.5t29.5 36.5q0 20 -32 20q-18 0 -44 -8l1 37q28 6 53 6q70 0 70 -49q0 -22 -28.5 -52.5t-28.5 -45.5q0 -9 2 -13z" />
    <glyph glyph-name="glyph345" unicode="&#x1ee0;" horiz-adv-x="722" 
d="M183 368q0 -96 41 -170q51 -90 139 -90t137 90q40 74 40 170t-39 160q-48 76 -138 76q-92 0 -140 -75q-40 -64 -40 -161zM483 708q29 6 64 6q20 0 42 -2q19 16 21 32q2 19 -26 23q-7 1 -36 1l23 40q27 3 45 0q55 -10 55 -54q0 -38 -84 -80l-24 -12q127 -100 127 -294
q0 -156 -84 -265q-92 -120 -243 -120q-152 0 -245 119q-85 110 -85 266q0 157 85 256q90 105 245 105q66 0 120 -21zM278 787l-44 2q8 32 33 56t56 22q28 -2 52 -26q9 -9 13 -12q8 -5 17 -6q22 -1 34 25h46q-7 -25 -24 -46q-27 -34 -66 -31q-25 2 -45 16q-32 27 -39 28
q-18 2 -33 -28z" />
    <glyph glyph-name="glyph346" unicode="&#x1ee1;" horiz-adv-x="593" 
d="M165 257q0 -68 31 -113q36 -51 101 -51q67 0 101 51q29 43 29 113q0 158 -130 158q-68 0 -102 -47q-30 -41 -30 -111zM428 495q22 -1 32 3q22 9 21 29t-26 23q-8 1 -36 1l23 40q27 3 45 0q55 -10 55 -54q0 -19 -29 -41q-24 -17 -47 -25q96 -75 96 -214q0 -117 -74 -195.5
t-191 -78.5q-119 0 -193 77.5t-74 196.5q0 121 73 194.5t194 73.5q73 0 131 -30zM223 583l-44 2q8 32 33 56t56 22q28 -2 52 -26q9 -9 13 -12q8 -5 17 -6q22 -1 34 25h46q-7 -25 -24 -46q-27 -34 -66 -31q-25 2 -45 16q-32 27 -39 28q-18 2 -33 -28z" />
    <glyph glyph-name="glyph347" unicode="&#x1ee2;" horiz-adv-x="722" 
d="M183 368q0 -96 41 -170q51 -90 139 -90t137 90q40 74 40 170t-39 160q-48 76 -138 76q-92 0 -140 -75q-40 -64 -40 -161zM483 708q29 6 64 6q20 0 42 -2q19 16 21 32q2 19 -26 23q-7 1 -36 1l23 40q27 3 45 0q55 -10 55 -54q0 -38 -84 -80l-24 -12q127 -100 127 -294
q0 -156 -84 -265q-92 -120 -243 -120q-152 0 -245 119q-85 110 -85 266q0 157 85 256q90 105 245 105q66 0 120 -21zM416 -162h-108q0 5 1 16v17q0 36 -4 68l115 8q-5 -40 -5 -66q0 8 1 -22v-21z" />
    <glyph glyph-name="glyph348" unicode="&#x1ee3;" horiz-adv-x="593" 
d="M165 257q0 -68 31 -113q36 -51 101 -51q67 0 101 51q29 43 29 113q0 158 -130 158q-68 0 -102 -47q-30 -41 -30 -111zM428 495q22 -1 32 3q22 9 21 29t-26 23q-8 1 -36 1l23 40q27 3 45 0q55 -10 55 -54q0 -19 -29 -41q-24 -17 -47 -25q96 -75 96 -214q0 -117 -74 -195.5
t-191 -78.5q-119 0 -193 77.5t-74 196.5q0 121 73 194.5t194 73.5q73 0 131 -30zM350 -162h-108q0 5 1 16v17q0 36 -4 68l115 8q-5 -40 -5 -66q0 8 1 -22v-21z" />
    <glyph glyph-name="glyph349" unicode="&#x1ee4;" horiz-adv-x="741" 
d="M660 0h-135q-2 24 -4 92h-2q-77 -109 -212 -109q-141 0 -188 121q-27 69 -27 218v174q0 99 -10 216h170q-10 -81 -10 -216v-117q0 -144 14 -193q22 -78 96 -78q148 0 148 271v117q0 99 -10 216h170q-10 -81 -10 -216v-217q0 -144 10 -279zM422 -158h-108q0 5 1 16v17
q0 36 -4 68l115 8q-5 -40 -5 -66q0 8 1 -22v-21z" />
    <glyph glyph-name="glyph350" unicode="&#x1ee5;" horiz-adv-x="593" 
d="M543 0h-130q-1 24 -5 70q-44 -44 -64 -57q-47 -30 -111 -30q-169 0 -169 224v137q0 49 -10 159l155 10q-1 -17 -6 -82q-4 -54 -4 -87v-73q0 -89 16 -128q20 -50 75 -50q65 0 90 51q18 37 18 127v73q0 49 -10 159l155 10q-1 -17 -6 -82q-4 -54 -4 -87v-137q0 -59 10 -207z
M350 -158h-108q0 5 1 16v17q0 36 -4 68l115 8q-5 -40 -5 -66q0 8 1 -22v-21z" />
    <glyph glyph-name="glyph351" unicode="&#x1ee6;" horiz-adv-x="741" 
d="M660 0h-135q-2 24 -4 92h-2q-77 -109 -212 -109q-141 0 -188 121q-27 69 -27 218v174q0 99 -10 216h170q-10 -81 -10 -216v-117q0 -144 14 -193q22 -78 96 -78q148 0 148 271v117q0 99 -10 216h170q-10 -81 -10 -216v-217q0 -144 10 -279zM395 720l-25 -1l-25 -2
q-2 4 -2 13q0 28 29.5 58.5t29.5 36.5q0 20 -32 20q-18 0 -44 -8l1 37q28 6 53 6q70 0 70 -49q0 -22 -28.5 -52.5t-28.5 -45.5q0 -9 2 -13z" />
    <glyph glyph-name="glyph352" unicode="&#x1ee7;" horiz-adv-x="593" 
d="M543 0h-130q-1 24 -5 70q-44 -44 -64 -57q-47 -30 -111 -30q-169 0 -169 224v137q0 49 -10 159l155 10q-1 -17 -6 -82q-4 -54 -4 -87v-73q0 -89 16 -128q20 -50 75 -50q65 0 90 51q18 37 18 127v73q0 49 -10 159l155 10q-1 -17 -6 -82q-4 -54 -4 -87v-137q0 -59 10 -207z
M322 518l-25 -1l-25 -2q-2 4 -2 13q0 28 29.5 58.5t29.5 36.5q0 20 -32 20q-18 0 -44 -8l1 37q28 6 53 6q70 0 70 -49q0 -22 -28.5 -52.5t-28.5 -45.5q0 -9 2 -13z" />
    <glyph glyph-name="glyph353" unicode="&#x1ee8;" horiz-adv-x="741" 
d="M657 682q-7 -65 -7 -186v-217q0 -144 10 -279h-135q-2 24 -4 92h-2q-77 -109 -212 -109q-141 0 -188 121q-27 69 -27 218v174q0 99 -10 216h170q-10 -81 -10 -216v-117q0 -144 14 -193q22 -78 96 -78q148 0 148 271v117q0 99 -10 216h169q19 16 21 32q2 19 -26 23
q-7 1 -36 1l23 40q27 3 45 0q55 -10 55 -54q0 -27 -46 -53q-13 -7 -38 -19zM404 730l-70 -6q33 43 81 125l108 6q-21 -24 -66 -66q-34 -31 -53 -59z" />
    <glyph glyph-name="glyph354" unicode="&#x1ee9;" horiz-adv-x="593" 
d="M540 472q-7 -96 -7 -128v-137q0 -59 10 -207h-130q-1 24 -5 70q-44 -44 -64 -57q-47 -30 -111 -30q-169 0 -169 224v137q0 49 -10 159l155 10q-1 -17 -6 -82q-4 -54 -4 -87v-73q0 -89 16 -128q20 -50 75 -50q65 0 90 51q18 37 18 127v73q0 49 -10 159l105 10q0 -1 50 -6
q7 11 8 20q2 19 -26 23q-7 1 -36 1l23 40q27 3 45 0q55 -10 55 -53q0 -18 -28 -40q-21 -17 -44 -26zM331 531l-70 -6q33 43 81 125l108 6q-21 -24 -66 -66q-34 -31 -53 -59z" />
    <glyph glyph-name="glyph355" unicode="&#x1eea;" horiz-adv-x="741" 
d="M657 682q-7 -65 -7 -186v-217q0 -144 10 -279h-135q-2 24 -4 92h-2q-77 -109 -212 -109q-141 0 -188 121q-27 69 -27 218v174q0 99 -10 216h170q-10 -81 -10 -216v-117q0 -144 14 -193q22 -78 96 -78q148 0 148 271v117q0 99 -10 216h169q19 16 21 32q2 19 -26 23
q-7 1 -36 1l23 40q27 3 45 0q55 -10 55 -54q0 -27 -46 -53q-13 -7 -38 -19zM404 724l-70 6q-19 28 -53 59q-45 42 -66 66l108 -6q18 -33 81 -125z" />
    <glyph glyph-name="glyph356" unicode="&#x1eeb;" horiz-adv-x="593" 
d="M540 472q-7 -96 -7 -128v-137q0 -59 10 -207h-130q-1 24 -5 70q-44 -44 -64 -57q-47 -30 -111 -30q-169 0 -169 224v137q0 49 -10 159l155 10q-1 -17 -6 -82q-4 -54 -4 -87v-73q0 -89 16 -128q20 -50 75 -50q65 0 90 51q18 37 18 127v73q0 49 -10 159l105 10q0 -1 50 -6
q7 11 8 20q2 19 -26 23q-7 1 -36 1l23 40q27 3 45 0q55 -10 55 -53q0 -18 -28 -40q-21 -17 -44 -26zM332 525l-70 6q-19 28 -53 59q-45 42 -66 66l108 -6q18 -33 81 -125z" />
    <glyph glyph-name="glyph357" unicode="&#x1eec;" horiz-adv-x="741" 
d="M657 682q-7 -65 -7 -186v-217q0 -144 10 -279h-135q-2 24 -4 92h-2q-77 -109 -212 -109q-141 0 -188 121q-27 69 -27 218v174q0 99 -10 216h170q-10 -81 -10 -216v-117q0 -144 14 -193q22 -78 96 -78q148 0 148 271v117q0 99 -10 216h169q19 16 21 32q2 19 -26 23
q-7 1 -36 1l23 40q27 3 45 0q55 -10 55 -54q0 -27 -46 -53q-13 -7 -38 -19zM395 720l-25 -1l-25 -2q-2 4 -2 13q0 28 29.5 58.5t29.5 36.5q0 20 -32 20q-18 0 -44 -8l1 37q28 6 53 6q70 0 70 -49q0 -22 -28.5 -52.5t-28.5 -45.5q0 -9 2 -13z" />
    <glyph glyph-name="glyph358" unicode="&#x1eed;" horiz-adv-x="593" 
d="M540 472q-7 -96 -7 -128v-137q0 -59 10 -207h-130q-1 24 -5 70q-44 -44 -64 -57q-47 -30 -111 -30q-169 0 -169 224v137q0 49 -10 159l155 10q-1 -17 -6 -82q-4 -54 -4 -87v-73q0 -89 16 -128q20 -50 75 -50q65 0 90 51q18 37 18 127v73q0 49 -10 159l105 10q0 -1 50 -6
q7 11 8 20q2 19 -26 23q-7 1 -36 1l23 40q27 3 45 0q55 -10 55 -53q0 -18 -28 -40q-21 -17 -44 -26zM322 518l-25 -1l-25 -2q-2 4 -2 13q0 28 29.5 58.5t29.5 36.5q0 20 -32 20q-18 0 -44 -8l1 37q28 6 53 6q70 0 70 -49q0 -22 -28.5 -52.5t-28.5 -45.5q0 -9 2 -13z" />
    <glyph glyph-name="glyph359" unicode="&#x1eee;" horiz-adv-x="741" 
d="M657 682q-7 -65 -7 -186v-217q0 -144 10 -279h-135q-2 24 -4 92h-2q-77 -109 -212 -109q-141 0 -188 121q-27 69 -27 218v174q0 99 -10 216h170q-10 -81 -10 -216v-117q0 -144 14 -193q22 -78 96 -78q148 0 148 271v117q0 99 -10 216h169q19 16 21 32q2 19 -26 23
q-7 1 -36 1l23 40q27 3 45 0q55 -10 55 -54q0 -27 -46 -53q-13 -7 -38 -19zM284 757l-44 2q8 32 33 56t56 22q28 -2 52 -26q9 -9 13 -12q8 -5 17 -6q22 -1 34 25h46q-7 -25 -24 -46q-27 -34 -66 -31q-25 2 -45 16q-32 27 -39 28q-18 2 -33 -28z" />
    <glyph glyph-name="glyph360" unicode="&#x1eef;" horiz-adv-x="593" 
d="M540 472q-7 -96 -7 -128v-137q0 -59 10 -207h-130q-1 24 -5 70q-44 -44 -64 -57q-47 -30 -111 -30q-169 0 -169 224v137q0 49 -10 159l155 10q-1 -17 -6 -82q-4 -54 -4 -87v-73q0 -89 16 -128q20 -50 75 -50q65 0 90 51q18 37 18 127v73q0 49 -10 159l105 10q0 -1 50 -6
q7 11 8 20q2 19 -26 23q-7 1 -36 1l23 40q27 3 45 0q55 -10 55 -53q0 -18 -28 -40q-21 -17 -44 -26zM211 543l-44 2q8 32 33 56t56 22q28 -2 52 -26q9 -9 13 -12q8 -5 17 -6q22 -1 34 25h46q-7 -25 -24 -46q-27 -34 -66 -31q-25 2 -45 16q-32 27 -39 28q-18 2 -33 -28z" />
    <glyph glyph-name="glyph361" unicode="&#x1ef0;" horiz-adv-x="741" 
d="M657 682q-7 -65 -7 -186v-217q0 -144 10 -279h-135q-2 24 -4 92h-2q-77 -109 -212 -109q-141 0 -188 121q-27 69 -27 218v174q0 99 -10 216h170q-10 -81 -10 -216v-117q0 -144 14 -193q22 -78 96 -78q148 0 148 271v117q0 99 -10 216h169q19 16 21 32q2 19 -26 23
q-7 1 -36 1l23 40q27 3 45 0q55 -10 55 -54q0 -27 -46 -53q-13 -7 -38 -19zM422 -158h-108q0 5 1 16v17q0 36 -4 68l115 8q-5 -40 -5 -66q0 8 1 -22v-21z" />
    <glyph glyph-name="glyph362" unicode="&#x1ef1;" horiz-adv-x="593" 
d="M540 472q-7 -96 -7 -128v-137q0 -59 10 -207h-130q-1 24 -5 70q-44 -44 -64 -57q-47 -30 -111 -30q-169 0 -169 224v137q0 49 -10 159l155 10q-1 -17 -6 -82q-4 -54 -4 -87v-73q0 -89 16 -128q20 -50 75 -50q65 0 90 51q18 37 18 127v73q0 49 -10 159l105 10q0 -1 50 -6
q7 11 8 20q2 19 -26 23q-7 1 -36 1l23 40q27 3 45 0q55 -10 55 -53q0 -18 -28 -40q-21 -17 -44 -26zM350 -158h-108q0 5 1 16v17q0 36 -4 68l115 8q-5 -40 -5 -66q0 8 1 -22v-21z" />
    <glyph glyph-name="glyph363" unicode="&#x1ef2;" horiz-adv-x="611" 
d="M405 0h-170q10 70 10 178v118l-89 168q-62 117 -154 242l165 12q63 -106 113 -210l48 -100l54 117q39 83 73 181l155 12l-215 -416v-124q0 -91 10 -178zM364 714l-70 6q-19 28 -53 59q-45 42 -66 66l108 -6q18 -33 81 -125z" />
    <glyph glyph-name="glyph364" unicode="&#x1ef3;" 
d="M291 -218l-160 -10q21 48 69 173l22 64l-53 140q-44 116 -166 354l150 10q60 -128 105 -267l32 -100h2l63 197q1 4 45 160l150 10l-172 -440q-54 -138 -87 -291zM322 515l-70 6q-19 28 -53 59q-45 42 -66 66l108 -6q18 -33 81 -125z" />
    <glyph glyph-name="glyph365" unicode="&#x1ef4;" horiz-adv-x="611" 
d="M405 0h-170q10 70 10 178v118l-89 168q-62 117 -154 242l165 12q63 -106 113 -210l48 -100l54 117q39 83 73 181l155 12l-215 -416v-124q0 -91 10 -178zM372 -141h-108q0 5 1 16v17q0 36 -4 68l115 8q-5 -40 -5 -66q0 8 1 -22v-21z" />
    <glyph glyph-name="glyph366" unicode="&#x1ef5;" 
d="M291 -218l-160 -10q21 48 69 173l22 64l-53 140q-44 116 -166 354l150 10q60 -128 105 -267l32 -100h2l63 197q1 4 45 160l150 10l-172 -440q-54 -138 -87 -291zM475 -149h-108q0 5 1 16v17q0 36 -4 68l115 8q-5 -40 -5 -66q0 8 1 -22v-21z" />
    <glyph glyph-name="glyph367" unicode="&#x1ef6;" horiz-adv-x="611" 
d="M405 0h-170q10 70 10 178v118l-89 168q-62 117 -154 242l165 12q63 -106 113 -210l48 -100l54 117q39 83 73 181l155 12l-215 -416v-124q0 -91 10 -178zM355 710l-25 -1l-25 -2q-2 4 -2 13q0 28 29.5 58.5t29.5 36.5q0 20 -32 20q-18 0 -44 -8l1 37q28 6 53 6
q70 0 70 -49q0 -22 -28.5 -52.5t-28.5 -45.5q0 -9 2 -13z" />
    <glyph glyph-name="glyph368" unicode="&#x1ef7;" 
d="M291 -218l-160 -10q21 48 69 173l22 64l-53 140q-44 116 -166 354l150 10q60 -128 105 -267l32 -100h2l63 197q1 4 45 160l150 10l-172 -440q-54 -138 -87 -291zM322 508l-25 -1l-25 -2q-2 4 -2 13q0 28 29.5 58.5t29.5 36.5q0 20 -32 20q-18 0 -44 -8l1 37q28 6 53 6
q70 0 70 -49q0 -22 -28.5 -52.5t-28.5 -45.5q0 -9 2 -13z" />
    <glyph glyph-name="glyph369" unicode="&#x1ef8;" horiz-adv-x="611" 
d="M405 0h-170q10 70 10 178v118l-89 168q-62 117 -154 242l165 12q63 -106 113 -210l48 -100l54 117q39 83 73 181l155 12l-215 -416v-124q0 -91 10 -178zM244 747l-44 2q8 32 33 56t56 22q28 -2 52 -26q9 -9 13 -12q8 -5 17 -6q22 -1 34 25h46q-7 -25 -24 -46
q-27 -34 -66 -31q-25 2 -45 16q-32 27 -39 28q-18 2 -33 -28z" />
    <glyph glyph-name="glyph370" unicode="&#x1ef9;" 
d="M291 -218l-160 -10q21 48 69 173l22 64l-53 140q-44 116 -166 354l150 10q60 -128 105 -267l32 -100h2l63 197q1 4 45 160l150 10l-172 -440q-54 -138 -87 -291zM211 533l-44 2q8 32 33 56t56 22q28 -2 52 -26q9 -9 13 -12q8 -5 17 -6q22 -1 34 25h46q-7 -25 -24 -46
q-27 -34 -66 -31q-25 2 -45 16q-32 27 -39 28q-18 2 -33 -28z" />
  </font>
</defs>
</svg>
